<?xml version="1.0" encoding="iso-8859-1"?>
<!-- Generator: Adobe Illustrator 19.0.0, SVG Export Plug-In . SVG Version: 6.00 Build 0)  -->
<svg version="1.1" id="Capa_1" xmlns="http://www.w3.org/2000/svg" xmlns:xlink="http://www.w3.org/1999/xlink" x="0px" y="0px"
	 viewBox="0 0 512 512" style="enable-background:new 0 0 512 512;" xml:space="preserve">
<circle style="fill:#F2F2F2;" cx="256" cy="256" r="256"/>
<g>
	<path style="fill:#353535;" d="M153.311,291.892c-9.697,22.173-23.698,41.064-37.512,51.921
		c-24.848,19.529-35.495-5.319-58.567-5.319c-15.987,0-26.008,11.922-38.922,12.758C6.502,321.807,0.003,289.656,0.003,255.999
		c0-32.559,6.081-63.697,17.168-92.348c18.004,1.735,23.448,10.951,40.061,10.951c18.338,0,23.071-11.243,46.143-11.243
		c14.973,0,33.479,9.206,46.488,25.36c-19.446,8.683-33.008,28.202-33.008,50.887C116.854,263.606,132.036,284.065,153.311,291.892z
		"/>
	<path style="fill:#353535;" d="M49.349,161.267c0,1.488,0.077,2.958,0.196,4.416c28.579-0.945,51.462-24.394,51.462-53.204
		c0-1.488-0.077-2.958-0.196-4.416C72.232,109.007,49.349,132.457,49.349,161.267z"/>
	<path style="fill:#353535;" d="M184.098,172.584c0-4.615,4.102-8.718,10.512-8.718h50c31.539,0,56.154,15.128,56.154,56.41v2.051
		c0,41.026-25.385,56.666-57.693,56.666h-31.795v63.333c0,5.897-6.666,8.975-13.59,8.975c-6.666,0-13.589-3.077-13.589-8.975
		L184.098,172.584L184.098,172.584z M211.277,187.968v69.487h31.795c18.974,0,30.513-10.77,30.513-33.333v-3.077
		c0-22.564-11.539-33.076-30.513-33.076L211.277,187.968L211.277,187.968z"/>
	<path style="fill:#353535;" d="M397.41,277.967v64.358c0,4.872-5.64,8.975-13.078,8.975c-6.922,0-12.307-4.102-12.307-8.975v-8.974
		c-8.975,10.513-21.281,19.999-38.719,19.999c-18.717,0-34.101-10.769-34.101-33.845c0-28.974,24.36-36.667,60-36.667h11.282v-4.615
		c0-13.077-6.666-27.692-25.385-27.692c-18.717,0-23.333,7.693-28.461,7.693c-6.41,0-9.744-7.435-9.744-13.59
		c0-9.231,21.283-16.41,38.719-16.41C383.307,228.224,397.41,252.327,397.41,277.967z M370.487,297.711h-6.41
		c-19.486,0-37.692,2.051-37.692,18.462c0,11.538,7.18,16.667,16.666,16.667c12.82,0,27.436-13.334,27.436-25.642L370.487,297.711
		L370.487,297.711z"/>
	<path style="fill:#353535;" d="M401.488,244.378c-0.769-1.025-1.025-2.051-1.025-3.589c0-6.924,10.512-12.821,17.691-12.821
		c3.59,0,6.923,1.539,8.206,4.872l32.308,83.333l27.692-83.333c1.539-3.333,4.615-4.872,7.691-4.872
		c6.41,0,17.949,5.641,17.949,13.334c0,1.025,0,2.307-0.512,3.076L473.54,344.634c-11.539,30.257-24.102,64.359-60.512,64.359
		c-6.923,0-12.564-1.795-12.564-11.539c0-6.153,2.051-11.538,7.435-11.538c13.076,0,33.076-13.077,36.667-42.051L401.488,244.378z"
		/>
</g>
<g>
</g>
<g>
</g>
<g>
</g>
<g>
</g>
<g>
</g>
<g>
</g>
<g>
</g>
<g>
</g>
<g>
</g>
<g>
</g>
<g>
</g>
<g>
</g>
<g>
</g>
<g>
</g>
<g>
</g>
</svg>
