<svg class="svg-icon" style="width: 1em; height: 1em;vertical-align: middle;fill: currentColor;overflow: hidden;" viewBox="0 0 1024 1024" version="1.1" xmlns="http://www.w3.org/2000/svg"><path d="M534.373984 770.601626 534.373984 716.466991C557.788619 713.048454 593.730082 702.277724 612.297886 684.037724 630.865692 665.844553 640.278374 640.931381 640.278374 609.39187 640.278374 577.454308 631.333984 552.75187 613.211057 535.237724 595.08813 517.770406 566.779838 502.129431 528.192521 488.314797 502.717397 479.323578 485.367155 470.168454 476.024715 460.732358 466.729105 451.319676 462.022765 438.699187 462.022765 422.917724 462.022765 406.082603 466.494959 392.829918 475.486178 383.253333 484.453984 373.676749 498.268619 368.829918 516.930082 368.829918 534.865692 368.829918 548.773984 375.807479 558.654959 388.638699 568.489105 401.423089 573.453009 419.382114 573.453009 442.796749L638.569105 442.796749C638.569105 395.967479 626.978861 377.001626 610.003251 355.741139 593.097886 334.480651 581.203251 321.040651 534.373984 316.357724L534.373984 255.479676 487.544715 255.479676 487.544715 315.795772C464.130082 319.588943 436.290082 330.851381 418.44813 349.583089 400.559349 368.338212 394.167155 392.946991 394.167155 423.432845 394.167155 455.534308 404.680324 480.470895 423.271546 498.219187 441.839349 515.967479 471.037397 531.421139 509.624715 544.509918 533.484228 552.939187 550.553495 562.024064 560.22374 571.811381 569.917397 581.598699 574.92813 594.289431 574.92813 609.883578 574.92813 626.929431 569.636422 640.205527 558.865692 649.71187 548.094959 659.218212 532.594473 663.971381 512.340813 663.971381 493.32813 663.971381 477.710569 653.809431 465.394473 643.108943 453.125203 632.478699 447.013984 630.113822 447.013984 583.284553L381.640324 583.284553C381.640324 630.113822 389.577886 657.672845 410.089105 677.341139 430.62374 696.939187 464.130082 713.329431 487.544715 716.724553L487.544715 770.601626 534.373984 770.601626 534.373984 770.601626Z"  /><path d="M941.788619 166.035772 800.832521 123.116748C793.691057 120.986016 784.980813 122.297236 779.033495 126.699187 773.086178 131.101138 768.520324 138.102114 768.520324 145.524553L768.520324 255.479676 674.861788 255.479676 674.861788 104.783089C674.861788 94.059187 670.834473 84.693333 660.414959 82.070894L516.321301 45.450406C512.574959 44.490406 509.437397 44.490406 505.691057 45.450406L362.346667 82.070894C351.950569 84.693333 347.056911 94.059187 347.056911 104.783089L347.056911 255.479676 253.398374 255.479676 253.398374 145.524553C253.398374 138.102114 250.096911 131.101138 244.149594 126.699187 238.178862 122.297236 230.63935 121.009431 223.544716 123.116748L82.612032 166.035772C72.286179 169.173333 65.495935 178.96065 66.104716 189.754797L102.842276 839.019187C103.380813 848.759676 109.960325 857.142114 119.255935 860.045527L505.246178 980.279676C507.540813 980.982114 509.882276 981.333333 512.247155 981.333333 514.612032 981.333333 516.930082 980.982114 519.224715 980.279676L905.191546 860.045527C914.487155 857.142114 921.043251 848.759676 921.581788 839.019187L924.06374 794.788943C924.087155 794.507968 924.227642 794.297235 924.227642 794.01626 924.227642 781.091381 913.737886 770.601626 900.813009 770.601626 887.88813 770.601626 877.398374 781.091381 877.398374 794.01626L877.234473 794.01626 875.759349 820.146991 512.247155 933.380162 148.68813 820.146991 113.683252 205.466016 206.569106 177.110894 206.569106 269.762603C206.569106 282.710895 217.527155 302.308943 230.475447 302.308943L366.514473 302.308943C379.439349 302.308943 393.886178 282.710895 393.886178 269.762603L393.886178 123.046504 510.959349 92.326504 628.032521 123.046504 628.032521 269.762603C628.032521 282.710895 645.031546 302.308943 657.956422 302.308943L794.018861 302.308943C806.967155 302.308943 815.349594 282.710895 815.349594 269.762603L815.349594 177.110894 909.499838 205.466016 883.860813 676.170406C883.860813 676.451381 883.720324 676.662114 883.720324 676.943089 883.720324 689.867968 894.210082 700.357724 907.134959 700.357724 920.059838 700.357724 930.549594 689.867968 930.549594 676.943089L930.760324 676.943089 958.366178 189.754797C958.974959 178.96065 952.137886 169.173333 941.788619 166.035772L941.788619 166.035772Z"  /></svg>