<?xml version="1.0" encoding="iso-8859-1"?>
<!-- Generator: Adobe Illustrator 19.0.0, SVG Export Plug-In . SVG Version: 6.00 Build 0)  -->
<svg version="1.1" id="Capa_1" xmlns="http://www.w3.org/2000/svg" xmlns:xlink="http://www.w3.org/1999/xlink" x="0px" y="0px"
	 viewBox="0 0 503.2 503.2" style="enable-background:new 0 0 503.2 503.2;" xml:space="preserve">
<polyline style="fill:#636363;" points="0,196 17.6,196 21.6,228 22.4,228 26.4,196 47.2,196 52,228 52,228 56,196 73.6,196 
	63.2,246.4 41.6,246.4 36.8,213.6 36.8,213.6 32,246.4 11.2,246.4 0,196 "/>
<g>
	<polyline style="fill:#494949;" points="86.4,196 124,196 124,209.6 104.8,209.6 104.8,214.4 122.4,214.4 122.4,228 104.8,228 
		104.8,233.6 124.8,233.6 124.8,246.4 86.4,246.4 86.4,196 	"/>
	<path style="fill:#494949;" d="M165.6,210.4c0-3.2-1.6-4-4-4c-3.2,0-4.8,1.6-4.8,3.2c0,1.6,0.8,2.4,3.2,3.2c4,0.8,10.4,2.4,16,4.8
		c6.4,2.4,8.8,7.2,8.8,12.8c0,12-9.6,17.6-24,17.6c-12,0-23.2-4-23.2-16.8H156c0,1.6,0,2.4,0.8,4c0.8,0.8,2.4,1.6,4,1.6
		c3.2,0,4.8-1.6,4.8-4c0-1.6-1.6-3.2-3.2-3.2l-14.4-4c-8-2.4-10.4-7.2-10.4-13.6c0-10.4,8-16,23.2-16c12.8,0,21.6,4,21.6,15.2h-16.8
		"/>
	<polyline style="fill:#494949;" points="208,209.6 196,209.6 196,196 240,196 240,209.6 228,209.6 228,246.4 208,246.4 208,209.6 	
		"/>
	<polyline style="fill:#494949;" points="253.6,196 292,196 292,209.6 272.8,209.6 272.8,214.4 290.4,214.4 290.4,228 272.8,228 
		272.8,233.6 292,233.6 292,246.4 253.6,246.4 253.6,196 	"/>
</g>
<polygon points="273.6,228 290.4,228 290.4,214.4 272.8,214.4 272.8,209.6 292,209.6 292,196 253.6,196 253.6,208 "/>
<polygon points="292,233.6 279.2,233.6 292,246.4 292,246.4 "/>
<path d="M307.2,196h29.6c10.4,0,16.8,3.2,16.8,12.8c0,5.6-2.4,10.4-9.6,12l0,0c4.8,0.8,7.2,2.4,8.8,6.4c0.8,4,0.8,11.2,3.2,19.2
	h-19.2c-0.8-4-1.6-10.4-2.4-14.4c-0.8-2.4-1.6-3.2-4.8-3.2h-2.4v17.6H308V196 M328,216.8c4,0,6.4-1.6,6.4-4.8c0-4-2.4-4.8-6.4-4.8
	h-1.6v9.6H328z"/>
<polyline points="368.8,196 392.8,196 403.2,226.4 404,226.4 404,196 420,196 420,246.4 396,246.4 385.6,216 385.6,216 385.6,246.4 
	368.8,246.4 368.8,196 "/>
<path style="fill:#494949;" d="M184,289.6c0,12-8.8,18.4-24,18.4s-24-6.4-24-18.4V256h20v32.8c0,4,1.6,5.6,4,5.6s4-1.6,4-5.6V256h20
	V289.6"/>
<g>
	<polygon style="fill:#636363;" points="124,233.6 104.8,233.6 104.8,228 118.4,228 105.6,214.4 104.8,214.4 104.8,214.4 87.2,196 
		86.4,196 86.4,246.4 124.8,246.4 124.8,234.4 	"/>
	<path style="fill:#636363;" d="M160,307.2c13.6,0,21.6-4.8,23.2-14.4L164,273.6V288c0,4-1.6,5.6-4,5.6s-4-1.6-4-5.6v-22.4l-9.6-9.6
		H136v33.6C136.8,301.6,145.6,307.2,160,307.2z"/>
</g>
<g>
	<polyline style="fill:#494949;" points="200.8,256 224,256 235.2,286.4 235.2,286.4 235.2,256 251.2,256 251.2,306.4 227.2,306.4 
		216.8,276 216.8,276 216.8,306.4 200.8,306.4 200.8,256 	"/>
	<rect x="268" y="256" style="fill:#494949;" width="20" height="49.6"/>
	<path style="fill:#494949;" d="M328,254.4c17.6,0,25.6,10.4,25.6,26.4c0,15.2-8.8,26.4-25.6,26.4c-17.6,0-25.6-10.4-25.6-26.4
		C302.4,265.6,311.2,254.4,328,254.4 M328,294.4c3.2,0,5.6-1.6,5.6-13.6c0-11.2-2.4-13.6-5.6-13.6s-5.6,1.6-5.6,13.6
		C323.2,292.8,325.6,294.4,328,294.4z"/>
</g>
<path d="M328,254.4c-8.8,0-15.2,3.2-20,8l14.4,14.4c0.8-8,2.4-9.6,5.6-9.6s5.6,1.6,5.6,13.6c0,2.4,0,4.8,0,6.4l13.6,13.6
	c4.8-4.8,7.2-11.2,7.2-20C354.4,265.6,345.6,254.4,328,254.4z"/>
<polyline points="368.8,256 392.8,256 403.2,286.4 404,286.4 404,256 420,256 420,306.4 396,306.4 385.6,276 385.6,276 385.6,306.4 
	368.8,306.4 368.8,256 "/>
<rect x="434.4" y="195.2" width="6.4" height="111.2"/>
<rect x="479.2" y="196" width="6.4" height="109.6"/>
<path d="M490.4,202.4c0-4,3.2-6.4,6.4-6.4c4,0,6.4,3.2,6.4,6.4c0,4-3.2,6.4-6.4,6.4C493.6,208.8,490.4,206.4,490.4,202.4
	 M503.2,202.4c0-3.2-2.4-5.6-5.6-5.6s-5.6,2.4-5.6,5.6s2.4,5.6,5.6,5.6C500.8,208,503.2,205.6,503.2,202.4z M500.8,206.4H500
	l-2.4-3.2H496v3.2h-0.8v-7.2h3.2c1.6,0,2.4,0.8,2.4,1.6c0,1.6-0.8,2.4-2.4,2.4L500.8,206.4z M496.8,201.6c0.8,0,2.4,0,2.4-1.6
	c0-0.8-0.8-1.6-1.6-1.6h-2.4v2.4h1.6V201.6z"/>
<g>
</g>
<g>
</g>
<g>
</g>
<g>
</g>
<g>
</g>
<g>
</g>
<g>
</g>
<g>
</g>
<g>
</g>
<g>
</g>
<g>
</g>
<g>
</g>
<g>
</g>
<g>
</g>
<g>
</g>
</svg>
