<?xml version="1.0" encoding="iso-8859-1"?>
<!-- Generator: Adobe Illustrator 16.0.0, SVG Export Plug-In . SVG Version: 6.00 Build 0)  -->
<!DOCTYPE svg PUBLIC "-//W3C//DTD SVG 1.1//EN" "http://www.w3.org/Graphics/SVG/1.1/DTD/svg11.dtd">
<svg version="1.1" id="Capa_1" xmlns="http://www.w3.org/2000/svg" xmlns:xlink="http://www.w3.org/1999/xlink" x="0px" y="0px"
	 width="46.304px" height="46.305px" viewBox="0 0 46.304 46.305" style="enable-background:new 0 0 46.304 46.305;"
	 xml:space="preserve">
<g>
	<g>
		<path d="M2.113,13.369v0.722c0.253-0.59,0.531-1.164,0.829-1.727L2.113,13.369z"/>
		<polygon points="16.459,11.71 16.251,11.93 16.531,12.164 16.814,11.93 		"/>
		<path d="M3.904,11.196l-0.023-0.261l-0.014-0.159c-0.329,0.517-0.638,1.045-0.925,1.588l0.31-0.376L3.904,11.196z"/>
		<polygon points="11.191,5.751 11.191,5.389 10.363,5.389 10.319,5.563 9.814,5.563 9.814,5.606 9.814,6.067 10.953,6.067 		"/>
		<path d="M45.949,17.831l-0.073,0.085l0.164,0.308C46.01,18.092,45.98,17.961,45.949,17.831z"/>
		<path d="M15.024,12.548l0.433-0.081l0.346-0.223v-0.461h-0.778C15.024,11.854,15.024,12.548,15.024,12.548z"/>
		<path d="M44.583,13.779c-0.171-0.384-0.351-0.763-0.543-1.136l-0.146,0.165v1.021l0.449-0.061L44.583,13.779z"/>
		<path d="M11.172,7.15c0,0,0.043-0.505,0-0.505s-0.549,0.086-0.549,0.086L9.814,6.962l0.217,0.26L11.172,7.15z"/>
		<path d="M40.941,9.257l0.453-0.678c-0.363-0.448-0.746-0.881-1.143-1.301l-0.004,1.128L39.252,8.91l0.099,0.331L40.941,9.257z"/>
		<polygon points="13.105,9.228 12.556,9.096 11.951,9.386 12.324,10.152 12.917,9.965 		"/>
		<polygon points="15.414,11.046 15.414,11.594 15.89,11.48 		"/>
		<polygon points="14.056,10.844 13.393,11.118 13.263,11.451 13.783,11.594 15.167,11.594 15.167,11.118 14.966,11.118 
			14.966,10.844 		"/>
		<polygon points="13.175,12.935 13.582,13.153 14.562,11.783 13.797,11.783 13.263,12.36 		"/>
		<polygon points="15.991,12.288 15.991,12.705 16.193,12.995 16.929,12.995 16.929,12.548 16.048,12.288 		"/>
		<polygon points="15.024,12.951 14.677,12.98 14.562,13.485 15.298,13.485 15.631,13.153 15.631,12.705 15.096,12.778 		"/>
		<path d="M43.798,14.812l-0.605-0.664l-0.115-1.067l-0.619,0.338l-0.334,1.307l-0.895-0.953l-0.037-0.9l-0.863-0.744l-0.319-0.316
			h-1.003l0.318,0.894l1.205,0.672l0.209,0.223l-0.26,0.131l0.01,0.707l-0.588,0.245l-0.5-0.11l-0.314-0.445l0.814,0.045
			l0.221-0.297l-1.807-1.219l-0.138-0.521l-0.735,0.664l-0.744-0.153l-1.133,1.474L35.342,14.7l-0.726,0.066l-1.072,0.006
			l-0.641-0.299l-0.188-1.274l0.229-0.606l1.092-0.239l1.189,0.239l0.146-0.659l-0.507-0.119l0.175-1.025l1.196-0.188l0.838-1.183
			l0.863-0.146l0.781,0.116h0.287l-0.157-1.111L37.9,8.661l-0.334-0.83l-0.551-0.079l-0.104-0.57l0.449-0.489l1.067-0.418
			l0.274-0.491c-3.032-2.673-6.77-4.563-10.891-5.36c-0.094-0.017-0.186-0.034-0.279-0.05c-0.426-0.077-0.858-0.129-1.293-0.182
			C25.312,0.079,24.375,0,23.417,0c-5.08,0-9.78,1.649-13.603,4.434l0.197-0.001l0.97-0.008l0.521,0.288l0.98,0.211l0.076,0.386
			l1.56,0.057l-0.212-0.499l-1.385-0.039l0.326-0.308l-0.114-0.365h-1.251l1.365-1.021h1.309l0.615,0.848l1.021,0.057l0.615-0.597
			l0.462,0.231l-0.847,0.827c0,0-1.173,0.02-1.116,0.02c0.059,0,0.098,0.808,0.098,0.808l1.422-0.039l0.154-0.384l0.981-0.059
			l0.115-0.575l-0.576-0.098l0.192-0.52l0.441-0.135l1.539,0.076l-0.848,0.771l0.137,0.596l0.885,0.135l-0.058-1.076l0.847-0.443
			l1.501-0.174l2.175,0.963v0.828l0.691,0.172l-0.347,0.654h-0.979l-0.292,0.75l-2.244-0.528l1.764-0.939l-0.672-0.571l-1.52,0.192
			l-0.135,0.138l-0.005-0.002L20.152,5.09l-0.438,0.454l-0.723,0.062l0.058,0.361l0.253,0.104l-0.01,0.119l-0.589,0.084L18.66,6.616
			l-0.563,0.029l-0.102-0.678l-1.011,0.307l-2.063,1.209l0.23,0.85l0.576,0.376l1.155,0.159v1.313l0.532-0.087l0.492-1.024
			l1.228-0.389V7.107l0.683-0.515l1.65,0.39l-0.117,1.039h0.443l1.212-0.596l0.059,1.365l0.884,0.539l-0.037,0.809l-0.847,0.288
			l0.058,0.268l1.019,0.465l-0.019,0.557l-0.297,0.025c0-0.009-0.002-0.016-0.002-0.016l-1.288-0.396l-0.055-0.414H22.48
			l0.376-0.258v-0.376l-0.404-0.101l-0.1,0.347l-0.711,0.109l-0.07-0.024v0.036l-0.245,0.037l-0.2-0.404l-0.232-0.101h-0.505
			l-0.229,0.188v0.418l0.432,0.145l0.428,0.059l-0.096,0.043l-0.391,0.431l-0.17-0.216l-0.377-0.099l-1.025,0.965l0.135,0.11
			l-1.515,0.837l-1.425,1.482l-0.097,0.659l-1.427,0.938l-0.706,0.712l0.078,1.424l-0.981-0.458l0.007-0.832l-2.73,0.001
			l-1.415,0.716l-0.613,1.132l-0.244,0.897l0.398,0.871l1.113,0.136l1.771-1.185l0.154,0.587l-0.54,1.021l1.349,0.229l0.135,2.081
			l0.17,0.029l0.016,0.002l1.662,0.283l1.172-1.356l1.425,0.289l0.499,0.696l1.367-0.081l0.037-0.403l0.752,0.364l0.846,1.326
			l1.462,0.021l0.54,0.943l0.076,1.152l1.617,0.617l2.039,0.02l0.597,0.979l0.903,0.291l-0.172,0.809l-0.992,1.259l-0.289,2.786
			l-0.896,0.708l-1.325-0.041l-0.444,0.771l0.329,1.443l-1.443,1.848l-0.463,0.848l-1.376,0.66l-0.903,0.139l-0.039,0.384
			l0.636,0.183l-0.079,0.412L19.564,41.4l0.346,0.436l0.684,0.02l-0.039,0.528l-0.182,0.521l-0.057,0.422l1.012,0.854l-0.136,0.441
			l-1.378-0.024l-1.371-1.198l-1.067-1.877l0.149-1.812l-0.809-1.077l0.327-1.827l-0.479-0.136v-3.963c0,0-1.348-1.021-1.424-1.021
			c-0.078,0-0.713-0.172-0.713-0.172l-0.134-0.751l-1.752-2.192l0.173-0.789l0.059-1.289l1.211-0.848l-0.172-1.443l-1.77-0.133
			l-1.387-1.579l-0.98-0.269l-0.635-0.116l0.076-0.576l-0.809-0.116v0.327l-2.02-0.5l-0.814-1.244l0.282-0.511l-0.334-0.004
			l-0.098-0.324l0.237-0.12l-1.035-1.511L4.304,16.16h-0.52l0.174,1.327l0.885,1.366l-0.097,0.54l-0.751-0.115l-0.922-1.574v-1.832
			L2.11,15.409v-1.116v-0.202c-0.542,1.271-0.969,2.604-1.277,3.979l0.054-0.011l0.318-0.064l0.188,0.903l0.396,0.641l0.264,0.302
			l0.479,0.188l-0.451,0.536L1.208,20.65H0.548l0.074-0.78l0.547-0.113L1.123,19.39l-0.453-0.286l-0.037-0.026
			c-0.236,1.324-0.367,2.684-0.367,4.073c0,0.041,0.003,0.082,0.003,0.123c0.067,12.71,10.425,23.031,23.15,23.031
			c7.237,0,13.708-3.341,17.957-8.559h-0.763v-1.539l-0.885-1.189v-1.853l-0.675-0.671l-0.058-0.771l0.854-1.636l-1.623-2.866
			l0.191-1.945l-1.461-0.15l-0.539-0.539h-0.982l-0.5,0.462h-1.729l-0.06,0.153h-0.963l-2.211-2.521l0.018-1.963l0.365-0.135
			l0.137-0.751h-0.52l-0.213-0.789l2.559-1.847v-1.308l1.254-0.696l0.506,0.052h1.031l0.808-0.434l2.598-0.203v1.328l2.05,0.521
			l0.403,0.288h0.377v-0.722l1.183-0.115l1.125,0.837H45.5l0.129-0.118c-0.183-0.623-0.392-1.234-0.626-1.836L43.798,14.812z"/>
	</g>
</g>
<g>
</g>
<g>
</g>
<g>
</g>
<g>
</g>
<g>
</g>
<g>
</g>
<g>
</g>
<g>
</g>
<g>
</g>
<g>
</g>
<g>
</g>
<g>
</g>
<g>
</g>
<g>
</g>
<g>
</g>
</svg>
