<?xml version="1.0" encoding="utf-8"?>
<!-- Generator: Adobe Illustrator 24.2.1, SVG Export Plug-In . SVG Version: 6.00 Build 0)  -->
<svg version="1.1" id="Layer_2" xmlns="http://www.w3.org/2000/svg" xmlns:xlink="http://www.w3.org/1999/xlink" x="0px" y="0px"
	 width="22" height="24" viewBox="0 0 24 24" style="enable-background:new 0 0 24 24;" xml:space="preserve">
<style type="text/css">
	.st0{fill:#323232;}
</style>
<g>
	<path class="st0" d="M16.8,8.3c0,0,0.7,0.1,1.3,0.4s0.9,0.7,1,0.9c0.1,0.2,0.7,2.7,0.9,3.3c0.2,0.6,1.5,5.3,1.6,6s0.4,1.4,0.4,1.7
		c0,0.3,0.1,0.9,0,1.5c-0.1,0.6-0.4,1.5-1.7,1.8c0.3-0.1,0.9-0.4,1.1-1.1c0.2-0.7,0.2-1.6,0.2-2c-0.1-0.4-0.8-3.2-0.9-3.5
		c-0.1-0.3-0.8-2.9-0.9-3.4c-0.1-0.4-1-3.9-1-4c0-0.1-0.5-0.7-0.9-1C17.4,8.5,17.2,8.4,16.8,8.3z"/>
	<path class="st0" d="M11.3,23.7c0,0-5.6,0.2-6.5,0.2c-0.9,0-1.4,0.1-1.9,0c-0.5-0.1-0.8-0.3-0.9-0.7c-0.1-0.3-0.1-0.9,0-1.1
		C2,22,2.2,21.5,2.4,20.8c0.2-0.6,0.6-2,0.7-2.4c0.1-0.3,0.7-2.2,0.8-2.6c0.1-0.4,0.6-2,0.7-2.5c0.1-0.4,0.6-1.9,0.7-2.4
		c0.1-0.5,0.2-0.9,0.3-1.2c0.1-0.3,0.2-0.6,0.6-0.9c0.4-0.2,0.6-0.3,1-0.3c0.4-0.1,0.9-0.1,0.9-0.1S7.5,8.6,7,8.9
		C6.5,9.3,6.2,9.6,6.2,9.8c-0.1,0.3-0.3,1.3-0.5,2.1c-0.2,0.7-0.8,3.2-0.9,3.7S4.1,18,3.9,18.7c-0.2,0.7-0.5,2.1-0.6,2.4
		s-0.1,0.9,0,1.2c0,0.3,0.5,0.7,0.9,0.8c0.4,0,2.5,0.3,3.7,0.3C9,23.5,11.3,23.7,11.3,23.7z"/>
	<path class="st0" d="M8.4,8.6C8.1,8.6,7.9,8.8,7.9,9c0,0.3,0.2,0.5,0.5,0.5S8.8,9.3,8.8,9C8.8,8.8,8.6,8.6,8.4,8.6z M8.4,9.3
		C8.2,9.3,8.1,9.2,8.1,9s0.1-0.3,0.3-0.3S8.6,8.9,8.6,9C8.6,9.2,8.5,9.3,8.4,9.3z"/>
	<path class="st0" d="M16.5,8.6C16.2,8.6,16,8.8,16,9c0,0.3,0.2,0.5,0.5,0.5s0.5-0.2,0.5-0.5C16.9,8.8,16.7,8.6,16.5,8.6z M16.5,9.3
		c-0.1,0-0.3-0.1-0.3-0.3s0.1-0.3,0.3-0.3c0.1,0,0.3,0.1,0.3,0.3C16.7,9.2,16.6,9.3,16.5,9.3z"/>
	<path class="st0" d="M8.6,9.1H8.3c0,0-0.4-0.5-0.6-1.1C7.5,7.5,7.3,6.9,7.3,6.1C7.2,5.4,7.3,4.3,7.6,3.5s0.9-1.6,1.5-2.2
		c0.6-0.6,1.5-1.1,2.5-1.3s1.9-0.1,2.8,0.3s1.7,1.1,2.3,2c0.6,0.9,0.9,1.9,0.9,2.9c0,1-0.1,1.7-0.4,2.5c-0.3,0.7-0.7,1.3-0.7,1.3
		h-0.3c0,0,0.5-0.6,0.7-1.4c0.3-0.8,0.4-1.4,0.4-2.2S17.2,4,16.8,3.3c-0.4-0.7-1-1.4-1.9-1.9s-2-0.6-2.5-0.5S10.9,1,10.1,1.3
		S8.7,2.5,8.3,3.2C7.8,3.9,7.5,4.7,7.5,5.8C7.6,7,8.1,8.4,8.6,9.1z"/>
	<polygon class="st0" points="9.2,8.3 15.1,8.3 9.5,8.6 	"/>
</g>
</svg>
