<svg width="36" height="36" viewBox="0 0 36 36" fill="none" xmlns="http://www.w3.org/2000/svg">
<circle cx="18" cy="18" r="18" fill="#21125E"/>
<path d="M15.6955 16.0776L17.4391 14.3314L17.4402 14.3303C19.0991 12.669 20.7616 11.004 22.4132 9.34267C22.6738 9.07798 22.9748 8.96769 23.3052 9.00813L23.3676 9.01548L23.3735 9.01624C23.5997 9.04547 23.858 9.07883 24.1018 9.17724C25.3279 9.67353 26.2236 10.5558 26.7632 11.7911C26.8513 11.9969 26.8954 12.2102 26.9357 12.3976C26.9541 12.4712 26.9688 12.5484 26.9871 12.6219C26.9982 12.6697 27.0018 12.7212 26.9982 12.7726C26.9688 13.0851 26.8513 13.3388 26.6384 13.552C23.7531 16.4379 20.8678 19.3274 17.9824 22.2206C17.8099 22.3934 17.608 22.5 17.3694 22.5515C16.3415 22.7647 15.31 22.9853 14.2822 23.2022L13.6361 23.3382C13.5737 23.3493 13.5113 23.3566 13.4489 23.3566C13.2286 23.3566 13.0194 23.2721 12.8689 23.1213C12.6743 22.9265 12.5972 22.6397 12.656 22.353L12.7808 21.7648L12.7808 21.7647C13.0047 20.7023 13.2286 19.6399 13.4599 18.5775C13.5039 18.3753 13.6177 18.1694 13.7682 18.015C14.407 17.3643 15.0531 16.7209 15.6955 16.0776Z" fill="white"/>
<path d="M10.428 13.0084H16.8374C17.087 13.0084 17.2889 12.8062 17.2889 12.5562C17.2889 12.3062 17.087 12.104 16.8374 12.104H10.428C9.63874 12.104 9 12.7474 9 13.5341V25.5702C9 26.3606 9.64241 27.0002 10.428 27.0002H22.4428C23.2321 27.0002 23.8708 26.3569 23.8708 25.5702V19.4124C23.8708 19.1624 23.6689 18.9602 23.4193 18.9602C23.1697 18.9602 22.9678 19.1624 22.9678 19.4124V25.5702C22.9678 25.8606 22.7292 26.0996 22.4392 26.0996H10.428C10.138 26.0996 9.89937 25.8606 9.89937 25.5702V13.5377C9.89937 13.2473 10.138 13.0084 10.428 13.0084Z" fill="white"/>
</svg>
