<svg id="baseline-favorite_border-24px" xmlns="http://www.w3.org/2000/svg" xmlns:xlink="http://www.w3.org/1999/xlink" width="26" height="25.35" viewBox="0 0 26 25.35">
  <defs>
    <filter id="Path_798" x="0" y="1" width="26" height="24.35" filterUnits="userSpaceOnUse">
      <feOffset dx="1" dy="1" input="SourceAlpha"/>
      <feGaussianBlur stdDeviation="1" result="blur"/>
      <feFlood flood-opacity="0.412"/>
      <feComposite operator="in" in2="blur"/>
      <feComposite in="SourceGraphic"/>
    </filter>
  </defs>
  <path id="Path_799" data-name="Path 799" d="M0,0H24V24H0Z" fill="none"/>
  <path id="Path_800" data-name="Path 800" d="M16.5,3A5.988,5.988,0,0,0,12,5.09,5.988,5.988,0,0,0,7.5,3,5.447,5.447,0,0,0,2,8.5c0,3.78,3.4,6.86,8.55,11.54L12,21.35l1.45-1.32C18.6,15.36,22,12.28,22,8.5A5.447,5.447,0,0,0,16.5,3ZM12.1,18.55l-.1.1-.1-.1C7.14,14.24,4,11.39,4,8.5A3.418,3.418,0,0,1,7.5,5a3.909,3.909,0,0,1,3.57,2.36h1.87A3.885,3.885,0,0,1,16.5,5,3.418,3.418,0,0,1,20,8.5C20,11.39,16.86,14.24,12.1,18.55Z" fill="#fff"/>
  <path id="Path_797" data-name="Path 797" d="M0,0H24V24H0Z" fill="none"/>
  <g transform="matrix(1, 0, 0, 1, 0, 0)" filter="url(#Path_798)">
    <path id="Path_798-2" data-name="Path 798" d="M12,21.35l-1.45-1.32C5.4,15.36,2,12.28,2,8.5A5.447,5.447,0,0,1,7.5,3,5.988,5.988,0,0,1,12,5.09,5.988,5.988,0,0,1,16.5,3,5.447,5.447,0,0,1,22,8.5c0,3.78-3.4,6.86-8.55,11.54Z" fill="#fff"/>
  </g>
</svg>
