<?xml version="1.0" encoding="utf-8"?>
<!-- Generator: Adobe Illustrator 21.0.0, SVG Export Plug-In . SVG Version: 6.00 Build 0)  -->
<svg version="1.1" id="Laag_1" xmlns="http://www.w3.org/2000/svg" xmlns:xlink="http://www.w3.org/1999/xlink" x="0px" y="0px"
	 viewBox="0 0 841.9 1190.6" style="enable-background:new 0 0 841.9 1190.6;" xml:space="preserve">
<style type="text/css">
	.st0{fill:url(#SVGID_1_);}
	.st1{fill:url(#SVGID_2_);}
	.st2{fill:url(#SVGID_3_);}
	.st3{fill:url(#SVGID_4_);}
	.st4{fill:url(#SVGID_5_);}
	.st5{fill:#67AAE0;}
	.st6{fill:url(#SVGID_6_);}
	.st7{fill:url(#SVGID_7_);}
	.st8{fill:url(#SVGID_8_);}
	.st9{fill:url(#SVGID_9_);}
	.st10{fill:url(#SVGID_10_);}
	.st11{fill:url(#SVGID_11_);}
	.st12{fill:url(#SVGID_12_);}
	.st13{fill:url(#SVGID_13_);}
	.st14{fill:url(#SVGID_14_);}
	.st15{fill:url(#SVGID_15_);}
	.st16{fill:url(#SVGID_16_);}
	.st17{fill:url(#SVGID_17_);}
	.st18{fill:url(#SVGID_18_);}
	.st19{fill:url(#SVGID_19_);}
	.st20{fill:url(#SVGID_20_);}
	.st21{fill:url(#SVGID_21_);}
	.st22{fill:url(#SVGID_22_);}
	.st23{fill:url(#SVGID_23_);}
	.st24{fill:url(#SVGID_24_);}
	.st25{fill:url(#SVGID_25_);}
	.st26{fill:url(#SVGID_26_);}
</style>
<g>
	<linearGradient id="SVGID_1_" gradientUnits="userSpaceOnUse" x1="338.5895" y1="721.0532" x2="338.5895" y2="419.8992">
		<stop  offset="0" style="stop-color:#DB9023"/>
		<stop  offset="1" style="stop-color:#C73A2F"/>
	</linearGradient>
	<path class="st0" d="M324.5,659.9c0-2,0.3-3.9,1-5.7c0.7-1.8,1.7-3.4,3-4.7c1.3-1.4,2.9-2.4,4.8-3.2c1.9-0.8,4-1.2,6.3-1.2
		c3.1,0,5.8,0.7,8,2c2.2,1.4,3.9,3.1,5,5.3l-7.2,2.2c-0.6-1.1-1.4-1.9-2.5-2.4c-1-0.6-2.2-0.8-3.4-0.8c-1.1,0-2,0.2-3,0.6
		c-0.9,0.4-1.7,1-2.4,1.8c-0.7,0.7-1.2,1.7-1.6,2.7c-0.4,1.1-0.6,2.2-0.6,3.5c0,1.3,0.2,2.4,0.6,3.5c0.4,1.1,0.9,2,1.6,2.7
		c0.7,0.8,1.5,1.4,2.4,1.8c0.9,0.4,1.9,0.6,2.9,0.6c1.3,0,2.5-0.3,3.6-1c1.1-0.7,1.9-1.5,2.3-2.4l7.2,2.2c-1,2.2-2.6,4-4.9,5.4
		c-2.3,1.4-5,2.1-8.2,2.1c-2.3,0-4.4-0.4-6.3-1.2c-1.9-0.8-3.4-1.9-4.8-3.3c-1.3-1.4-2.3-3-3-4.8
		C324.8,663.8,324.5,661.9,324.5,659.9z"/>
	<linearGradient id="SVGID_2_" gradientUnits="userSpaceOnUse" x1="370.1288" y1="721.0532" x2="370.1288" y2="419.8992">
		<stop  offset="0" style="stop-color:#DB9023"/>
		<stop  offset="1" style="stop-color:#C73A2F"/>
	</linearGradient>
	<path class="st1" d="M370.2,674.8c-2.3,0-4.4-0.4-6.3-1.2s-3.4-1.9-4.7-3.3c-1.3-1.4-2.3-2.9-3-4.7c-0.7-1.8-1-3.7-1-5.6
		c0-2,0.3-3.9,1-5.7c0.7-1.8,1.7-3.4,3-4.7c1.3-1.4,2.9-2.5,4.7-3.3c1.9-0.8,4-1.2,6.3-1.2c2.3,0,4.4,0.4,6.3,1.2
		c1.8,0.8,3.4,1.9,4.7,3.3c1.3,1.4,2.3,2.9,3,4.7c0.7,1.8,1,3.7,1,5.7c0,2-0.3,3.9-1,5.6c-0.7,1.8-1.7,3.4-3,4.7
		c-1.3,1.4-2.8,2.5-4.7,3.3S372.5,674.8,370.2,674.8z M362.7,660c0,1.3,0.2,2.4,0.6,3.5c0.4,1,0.9,1.9,1.6,2.7
		c0.7,0.8,1.5,1.4,2.4,1.8c0.9,0.4,1.9,0.6,3,0.6c1.1,0,2-0.2,3-0.6c0.9-0.4,1.7-1,2.4-1.8c0.7-0.8,1.2-1.7,1.6-2.7
		c0.4-1.1,0.6-2.2,0.6-3.5c0-1.2-0.2-2.4-0.6-3.5c-0.4-1.1-0.9-2-1.6-2.7c-0.7-0.8-1.5-1.4-2.4-1.8c-0.9-0.4-1.9-0.6-3-0.6
		c-1.1,0-2,0.2-3,0.7c-0.9,0.4-1.7,1-2.4,1.8c-0.7,0.8-1.2,1.7-1.6,2.7C362.8,657.6,362.7,658.8,362.7,660z"/>
	<linearGradient id="SVGID_3_" gradientUnits="userSpaceOnUse" x1="404.1039" y1="721.0532" x2="404.1039" y2="419.8992">
		<stop  offset="0" style="stop-color:#DB9023"/>
		<stop  offset="1" style="stop-color:#C73A2F"/>
	</linearGradient>
	<path class="st2" d="M402,674.8c-2,0-3.8-0.4-5.5-1.2c-1.7-0.8-3.1-1.8-4.3-3.2c-1.2-1.3-2.1-2.9-2.8-4.7c-0.7-1.8-1-3.8-1-5.8
		c0-2.1,0.3-4,1-5.8c0.6-1.8,1.5-3.4,2.7-4.7c1.1-1.3,2.5-2.4,4.1-3.2c1.6-0.8,3.3-1.1,5.1-1.1c2.1,0,4,0.5,5.7,1.5c1.7,1,3,2.4,4,4
		v-16.3h7.3v31.5c0,0.8,0.1,1.3,0.4,1.6c0.3,0.3,0.7,0.5,1.3,0.5v6.2c-1.3,0.3-2.3,0.4-3.1,0.4c-1.3,0-2.4-0.3-3.2-1
		c-0.8-0.7-1.3-1.5-1.4-2.6l-0.2-1.8c-1.1,1.8-2.5,3.2-4.3,4.1S403.9,674.8,402,674.8z M403.9,668.6c0.7,0,1.4-0.1,2.1-0.4
		c0.7-0.2,1.4-0.6,2-1c0.6-0.4,1.2-0.9,1.7-1.5c0.5-0.6,0.9-1.2,1.1-1.9v-6.8c-0.3-0.8-0.7-1.5-1.2-2.2c-0.5-0.7-1.1-1.3-1.8-1.8
		c-0.7-0.5-1.4-0.9-2.1-1.2c-0.7-0.3-1.5-0.4-2.2-0.4c-1.1,0-2.1,0.2-3,0.7c-0.9,0.5-1.7,1.1-2.4,1.9c-0.7,0.8-1.2,1.8-1.5,2.8
		c-0.4,1.1-0.5,2.2-0.5,3.3c0,1.2,0.2,2.3,0.6,3.3c0.4,1,0.9,1.9,1.6,2.7c0.7,0.8,1.5,1.4,2.5,1.8
		C401.6,668.4,402.7,668.6,403.9,668.6z"/>
	<linearGradient id="SVGID_4_" gradientUnits="userSpaceOnUse" x1="438.6544" y1="721.0532" x2="438.6544" y2="419.8992">
		<stop  offset="0" style="stop-color:#DB9023"/>
		<stop  offset="1" style="stop-color:#C73A2F"/>
	</linearGradient>
	<path class="st3" d="M438.7,674.8c-2.3,0-4.4-0.4-6.2-1.2c-1.9-0.8-3.4-1.9-4.8-3.2c-1.3-1.3-2.3-2.9-3-4.7
		c-0.7-1.8-1.1-3.7-1.1-5.6c0-2,0.3-4,1-5.8c0.7-1.8,1.7-3.4,3-4.8c1.3-1.4,2.9-2.5,4.8-3.3c1.9-0.8,4-1.2,6.3-1.2s4.4,0.4,6.3,1.2
		c1.8,0.8,3.4,1.9,4.7,3.2c1.3,1.4,2.3,2.9,3,4.7s1,3.7,1,5.6c0,0.5,0,0.9,0,1.4c0,0.4-0.1,0.8-0.1,1.1h-22.2c0.1,1.1,0.4,2.1,0.8,3
		c0.4,0.9,1,1.6,1.7,2.2c0.7,0.6,1.5,1.1,2.4,1.4c0.9,0.3,1.8,0.5,2.7,0.5c1.5,0,2.8-0.4,4.1-1.1c1.3-0.7,2.2-1.7,2.7-2.8l6.3,1.8
		c-1.1,2.2-2.7,4-5.1,5.4C444.7,674.1,441.9,674.8,438.7,674.8z M446.2,657.5c-0.2-2.2-1-3.9-2.4-5.2c-1.4-1.3-3.1-1.9-5.1-1.9
		c-1,0-1.9,0.2-2.8,0.5c-0.9,0.3-1.6,0.8-2.3,1.5c-0.7,0.6-1.2,1.4-1.6,2.2s-0.7,1.8-0.7,2.9H446.2z"/>
	<linearGradient id="SVGID_5_" gradientUnits="userSpaceOnUse" x1="461.0487" y1="721.0532" x2="461.0487" y2="419.8992">
		<stop  offset="0" style="stop-color:#DB9023"/>
		<stop  offset="1" style="stop-color:#C73A2F"/>
	</linearGradient>
	<path class="st4" d="M458,674.3v-7.9h6v7.9H458z"/>
	<path class="st5" d="M470.5,641.6v-7.3h7.3v7.3H470.5z M470.5,674.3v-28.7h7.3v28.7H470.5z"/>
	<path class="st5" d="M501.7,672.8c-1,0.4-2.2,0.9-3.6,1.3c-1.4,0.4-2.9,0.7-4.5,0.7c-1,0-2-0.1-2.9-0.4c-0.9-0.3-1.7-0.7-2.4-1.2
		s-1.2-1.3-1.6-2.2c-0.4-0.9-0.6-2-0.6-3.3v-16.5h-3.8v-5.6h3.8v-9.3h7.3v9.3h6v5.6h-6v14c0,1,0.3,1.7,0.8,2.2
		c0.5,0.4,1.2,0.6,1.9,0.6s1.5-0.1,2.2-0.4c0.7-0.3,1.3-0.5,1.8-0.7L501.7,672.8z"/>
	<path class="st5" d="M505.3,674.3v-7.9h6v7.9H505.3z"/>
	<path class="st5" d="M528.7,674.8c-2.4,0-4.8-0.4-7.1-1.2s-4.3-1.9-5.9-3.3l2.7-4.6c1.8,1.2,3.5,2.2,5.1,2.8c1.7,0.6,3.3,1,5,1
		c1.5,0,2.6-0.3,3.4-0.8s1.3-1.3,1.3-2.4c0-1-0.5-1.8-1.5-2.2c-1-0.5-2.6-1-4.8-1.6c-1.9-0.5-3.4-1-4.8-1.5c-1.3-0.5-2.4-1-3.2-1.6
		c-0.8-0.6-1.4-1.3-1.8-2.1c-0.4-0.8-0.5-1.7-0.5-2.8c0-1.5,0.3-2.8,0.8-3.9c0.6-1.2,1.4-2.2,2.4-3c1-0.8,2.2-1.5,3.6-1.9
		c1.4-0.4,2.9-0.7,4.5-0.7c2.2,0,4.2,0.3,6.1,0.9c1.9,0.6,3.6,1.6,5.2,3l-3,4.4c-1.5-1.1-2.9-1.9-4.2-2.4c-1.4-0.5-2.7-0.8-4.1-0.8
		c-1.2,0-2.3,0.3-3.1,0.8c-0.8,0.5-1.3,1.3-1.3,2.5c0,0.5,0.1,0.9,0.3,1.3c0.2,0.3,0.5,0.6,1,0.9c0.4,0.3,1,0.5,1.7,0.7
		c0.7,0.2,1.6,0.5,2.7,0.7c2,0.5,3.7,1,5.1,1.5c1.4,0.5,2.6,1.1,3.5,1.8c0.9,0.7,1.6,1.4,2,2.3c0.4,0.9,0.6,1.9,0.6,3.1
		c0,2.8-1,5-3.1,6.7S532.2,674.8,528.7,674.8z"/>
	<path class="st5" d="M589.6,674.3h-7.3v-16.1c0-2.3-0.4-4-1.2-5c-0.8-1.1-1.9-1.6-3.3-1.6c-1.5,0-2.8,0.6-4.1,1.7
		c-1.3,1.1-2.2,2.6-2.7,4.4v16.7h-7.3v-16.1c0-2.3-0.4-4-1.2-5c-0.8-1.1-1.9-1.6-3.3-1.6c-1.4,0-2.8,0.5-4.1,1.6
		c-1.3,1.1-2.2,2.5-2.8,4.3v16.8H545v-28.7h6.6v5.3c1.1-1.9,2.5-3.3,4.4-4.3s4-1.5,6.3-1.5c2.4,0,4.3,0.6,5.6,1.8
		c1.3,1.2,2.2,2.6,2.5,4.3c1.2-2,2.6-3.5,4.4-4.5s3.8-1.6,6.1-1.6c1.8,0,3.2,0.3,4.3,1c1.1,0.7,2,1.5,2.6,2.6c0.6,1.1,1,2.3,1.3,3.6
		c0.2,1.4,0.4,2.7,0.4,4.1V674.3z"/>
	<path class="st5" d="M603.8,674.8c-1.4,0-2.7-0.2-3.9-0.7s-2.2-1.1-3.1-1.9c-0.9-0.8-1.6-1.8-2.1-2.9c-0.5-1.1-0.7-2.3-0.7-3.6
		c0-1.3,0.3-2.6,0.9-3.8c0.6-1.1,1.4-2.1,2.5-2.9c1.1-0.8,2.4-1.4,3.9-1.9c1.5-0.5,3.1-0.7,4.9-0.7c1.3,0,2.5,0.1,3.8,0.3
		c1.2,0.2,2.3,0.5,3.3,0.9v-1.6c0-1.9-0.5-3.4-1.6-4.4c-1.1-1-2.7-1.5-4.8-1.5c-1.5,0-3,0.3-4.5,0.8c-1.5,0.5-3,1.4-4.5,2.4
		l-2.2-4.7c3.7-2.4,7.7-3.7,11.9-3.7c4.1,0,7.3,1,9.6,3c2.3,2,3.4,5,3.4,8.8v8.9c0,0.8,0.1,1.3,0.4,1.6c0.3,0.3,0.7,0.5,1.3,0.5v6.2
		c-1.2,0.3-2.3,0.4-3.2,0.4c-1.4,0-2.5-0.3-3.2-0.9s-1.2-1.4-1.4-2.5l-0.2-1.6c-1.3,1.7-2.8,3-4.7,3.8
		C607.9,674.4,605.9,674.8,603.8,674.8z M605.9,669.5c1.2,0,2.4-0.2,3.5-0.7s2-1,2.6-1.8c0.8-0.6,1.2-1.3,1.2-2.1v-3.3
		c-0.9-0.3-1.8-0.6-2.8-0.8c-1-0.2-2-0.3-3-0.3c-1.9,0-3.4,0.4-4.7,1.3c-1.2,0.9-1.8,1.9-1.8,3.3c0,1.2,0.5,2.3,1.4,3.1
		C603.4,669.1,604.5,669.5,605.9,669.5z"/>
	<path class="st5" d="M644.5,652c-2.2,0-4.2,0.5-6,1.3c-1.8,0.8-3,2.1-3.8,3.7v17.4h-7.3v-28.7h6.7v6.1c0.5-1,1.1-1.9,1.8-2.7
		c0.7-0.8,1.4-1.5,2.2-2.1c0.8-0.6,1.6-1,2.4-1.3c0.8-0.3,1.6-0.5,2.4-0.5c0.4,0,0.7,0,0.9,0c0.2,0,0.4,0,0.6,0.1V652z"/>
	<path class="st5" d="M665.8,672.8c-1,0.4-2.2,0.9-3.6,1.3c-1.4,0.4-2.9,0.7-4.5,0.7c-1,0-2-0.1-2.9-0.4c-0.9-0.3-1.7-0.7-2.4-1.2
		s-1.2-1.3-1.6-2.2c-0.4-0.9-0.6-2-0.6-3.3v-16.5h-3.8v-5.6h3.8v-9.3h7.3v9.3h6v5.6h-6v14c0,1,0.3,1.7,0.8,2.2
		c0.5,0.4,1.2,0.6,1.9,0.6s1.5-0.1,2.2-0.4c0.7-0.3,1.3-0.5,1.8-0.7L665.8,672.8z"/>
	<path class="st5" d="M682.3,674.8c-2.3,0-4.4-0.4-6.2-1.2c-1.9-0.8-3.4-1.9-4.8-3.2c-1.3-1.3-2.3-2.9-3-4.7
		c-0.7-1.8-1.1-3.7-1.1-5.6c0-2,0.3-4,1-5.8c0.7-1.8,1.7-3.4,3-4.8c1.3-1.4,2.9-2.5,4.8-3.3c1.9-0.8,4-1.2,6.3-1.2
		c2.3,0,4.4,0.4,6.3,1.2c1.8,0.8,3.4,1.9,4.7,3.2c1.3,1.4,2.3,2.9,3,4.7c0.7,1.8,1,3.7,1,5.6c0,0.5,0,0.9,0,1.4
		c0,0.4-0.1,0.8-0.1,1.1h-22.2c0.1,1.1,0.4,2.1,0.8,3c0.4,0.9,1,1.6,1.7,2.2c0.7,0.6,1.5,1.1,2.4,1.4c0.9,0.3,1.8,0.5,2.7,0.5
		c1.5,0,2.8-0.4,4.1-1.1c1.3-0.7,2.2-1.7,2.7-2.8l6.3,1.8c-1.1,2.2-2.7,4-5.1,5.4S685.5,674.8,682.3,674.8z M689.7,657.5
		c-0.2-2.2-1-3.9-2.4-5.2c-1.4-1.3-3.1-1.9-5.1-1.9c-1,0-1.9,0.2-2.8,0.5c-0.9,0.3-1.6,0.8-2.3,1.5c-0.7,0.6-1.2,1.4-1.6,2.2
		c-0.4,0.9-0.7,1.8-0.7,2.9H689.7z"/>
	<path class="st5" d="M718.8,652c-2.2,0-4.2,0.5-6,1.3s-3,2.1-3.8,3.7v17.4h-7.3v-28.7h6.7v6.1c0.5-1,1.1-1.9,1.8-2.7
		c0.7-0.8,1.4-1.5,2.2-2.1c0.8-0.6,1.6-1,2.4-1.3c0.8-0.3,1.6-0.5,2.4-0.5c0.4,0,0.7,0,0.9,0s0.4,0,0.6,0.1V652z"/>
</g>
<g>
	<g>
		<g>
			<linearGradient id="SVGID_6_" gradientUnits="userSpaceOnUse" x1="652.2351" y1="721.0532" x2="652.2351" y2="419.8992">
				<stop  offset="0" style="stop-color:#DB9023"/>
				<stop  offset="1" style="stop-color:#C73A2F"/>
			</linearGradient>
			<path class="st6" d="M644.3,615.2v-81.6h15.9v81.6H644.3z"/>
			<linearGradient id="SVGID_7_" gradientUnits="userSpaceOnUse" x1="704.2156" y1="721.0532" x2="704.2156" y2="419.8992">
				<stop  offset="0" style="stop-color:#DB9023"/>
				<stop  offset="1" style="stop-color:#C73A2F"/>
			</linearGradient>
			<path class="st7" d="M738.2,547.5h-26.1v67.7h-15.7v-67.7h-26.1v-13.9h67.9V547.5z"/>
			<linearGradient id="SVGID_8_" gradientUnits="userSpaceOnUse" x1="522.6541" y1="721.0532" x2="522.6541" y2="419.8992">
				<stop  offset="0" style="stop-color:#DB9023"/>
				<stop  offset="1" style="stop-color:#C73A2F"/>
			</linearGradient>
			<path class="st8" d="M551.4,580.8c-2.7-3.6-6.4-6-11.1-7.4c3.8-1.7,6.7-4.3,8.7-7.8c2-3.5,3-7.2,3-11.2c0-2.5-0.4-5-1.3-7.5
				c-0.9-2.5-2.1-4.7-3.7-6.7c-1.6-2-3.6-3.5-5.9-4.8c-2.3-1.2-4.9-1.8-7.7-1.8h-43.7v81.6h16l-0.2-68h21.8c2.5,0,4.7,0.9,6.4,2.8
				s2.6,4.3,2.6,7.5c0,3.2-0.9,5.7-2.8,7.6c-1.9,1.8-4.2,2.8-6.8,2.8h-12.3v12.5H530c1.4,0,2.6,0.3,3.8,0.9c1.1,0.6,2.1,1.4,3,2.4
				c0.8,1,1.5,2.2,2,3.5c0.5,1.3,0.7,2.7,0.7,4.2c0,1.5-0.3,2.8-0.8,4.1c-0.5,1.3-1.3,2.4-2.2,3.4c-0.9,1-2,1.7-3.3,2.2
				c-1.3,0.5-2.6,0.8-4.1,0.8h-14.7v13.4h14.7c3.6,0,7-0.5,10.2-1.4c3.2-0.9,6-2.3,8.4-4c2.4-1.8,4.3-3.9,5.7-6.5
				c1.4-2.6,2.1-5.6,2.1-9.1C555.5,588.8,554.1,584.3,551.4,580.8z"/>
			<linearGradient id="SVGID_9_" gradientUnits="userSpaceOnUse" x1="600.8859" y1="721.0532" x2="600.8859" y2="419.8992">
				<stop  offset="0" style="stop-color:#DB9023"/>
				<stop  offset="1" style="stop-color:#C73A2F"/>
			</linearGradient>
			<path class="st9" d="M615.2,584.5c4.5-1.9,8.1-5,10.7-9.4c2.6-4.3,4-9.1,4-14.4c0-3.3-0.7-6.6-2-9.8c-1.3-3.3-3.1-6.2-5.4-8.7
				c-2.3-2.6-5-4.6-8.2-6.2c-3.2-1.6-6.6-2.4-10.4-2.4h-36.1v81.6h15.9v-67.7h0.3v0h8.7v0H603c1.4,0,2.7,0.3,4.1,1
				c1.3,0.7,2.5,1.6,3.6,2.8c1,1.2,1.9,2.6,2.5,4.2c0.6,1.6,0.9,3.4,0.9,5.3c0,1.8-0.3,3.6-0.8,5.2c-0.5,1.6-1.3,3-2.2,4.2
				c-0.9,1.2-2,2.1-3.3,2.8c-1.3,0.7-2.6,1-4.1,1h-10.9v13.9h6.6l16.7,27.3h17.8L615.2,584.5z"/>
			<g>
				<linearGradient id="SVGID_10_" gradientUnits="userSpaceOnUse" x1="350.4946" y1="721.0532" x2="350.4946" y2="419.8992">
					<stop  offset="0" style="stop-color:#DB9023"/>
					<stop  offset="1" style="stop-color:#C73A2F"/>
				</linearGradient>
				<polygon class="st10" points="372.6,566.6 344.3,566.6 344.3,533.6 328.4,533.6 328.4,615.2 344.3,615.2 344.3,580.4 
					372.6,580.4 				"/>
				<linearGradient id="SVGID_11_" gradientUnits="userSpaceOnUse" x1="389.1251" y1="721.0532" x2="389.1251" y2="419.8992">
					<stop  offset="0" style="stop-color:#DB9023"/>
					<stop  offset="1" style="stop-color:#C73A2F"/>
				</linearGradient>
				<rect x="381.3" y="533.6" class="st11" width="15.7" height="81.6"/>
			</g>
			<g>
				<linearGradient id="SVGID_12_" gradientUnits="userSpaceOnUse" x1="458.1526" y1="721.0532" x2="458.1526" y2="419.8992">
					<stop  offset="0" style="stop-color:#DB9023"/>
					<stop  offset="1" style="stop-color:#C73A2F"/>
				</linearGradient>
				<polygon class="st12" points="463.9,533.6 435.5,587.1 435.5,615.2 451.2,615.2 451.2,586.7 480.8,533.6 				"/>
				<linearGradient id="SVGID_13_" gradientUnits="userSpaceOnUse" x1="422.1328" y1="721.0532" x2="422.1328" y2="419.8992">
					<stop  offset="0" style="stop-color:#DB9023"/>
					<stop  offset="1" style="stop-color:#C73A2F"/>
				</linearGradient>
				<polygon class="st13" points="438.3,563.2 423.2,533.6 405.9,533.6 430.6,577.8 				"/>
			</g>
		</g>
		<g>
			<linearGradient id="SVGID_14_" gradientUnits="userSpaceOnUse" x1="194.6191" y1="721.0532" x2="194.6191" y2="419.8992">
				<stop  offset="0" style="stop-color:#DB9023"/>
				<stop  offset="1" style="stop-color:#C73A2F"/>
			</linearGradient>
			<path class="st14" d="M262.2,518.1l-0.3-0.9l-95.5-22.5l-0.1,0l-67.2,71.5l-0.1,0.1l28,93l0.3,0.9l95.5,22.5l0.1,0l67.2-71.4
				l0.1-0.1L262.2,518.1z M121.7,587.3l60.9,14.3l17.9,59.4l13.5,13.3L132.4,655l-24.4-80.7L121.7,587.3z M168.3,501.8l82.1,19.2
				l0,0l-16.6,5.1l-43.9,46.7l-62.7-14.8l-16.4,5L168.3,501.8z M225.4,670.9L225.4,670.9l4.3-18.6l-18-59.6l42.9-45.5l4.3-18.2
				l24.3,80.4L225.4,670.9z M255.7,522.3l1.2,0.3l0.3,1.3L196,589l-0.1,0.1l0,0.1c15.5,49.2,23.1,75.1,25.8,85.7L221,676l-1.3-0.5
				c-3.9-14-15.7-53.1-26-85.7l0-0.1l-0.1,0c-22.9-5.4-70.6-16.7-87.1-20.5l-0.4-1.2l0.9-1c20.8,4.8,86.4,20.3,87,20.5l0.1,0
				L255.7,522.3z"/>
		</g>
	</g>
	<g>
		<g>
			<g>
				<linearGradient id="SVGID_15_" gradientUnits="userSpaceOnUse" x1="246.8216" y1="721.0532" x2="246.8216" y2="419.8992">
					<stop  offset="0" style="stop-color:#DB9023"/>
					<stop  offset="1" style="stop-color:#C73A2F"/>
				</linearGradient>
				<path class="st15" d="M279.8,609.3l-2.9-0.7l0.2-1l2.9,0.7L279.8,609.3z M274.9,608.1l-2.9-0.7l0.2-1l2.9,0.7L274.9,608.1z
					 M270.1,607l-2.9-0.7l0.2-1l2.9,0.7L270.1,607z M265.2,605.8l-2.9-0.7l0.2-1l2.9,0.7L265.2,605.8z M260.3,604.7l-2.9-0.7l0.2-1
					l2.9,0.7L260.3,604.7z M255.5,603.5l-2.9-0.7l0.2-1l2.9,0.7L255.5,603.5z M250.6,602.4l-2.9-0.7l0.2-1l2.9,0.7L250.6,602.4z
					 M245.7,601.2l-2.9-0.7l0.2-1l2.9,0.7L245.7,601.2z M240.9,600.1l-2.9-0.7l0.2-1l2.9,0.7L240.9,600.1z M236,598.9l-2.9-0.7
					l0.2-1l2.9,0.7L236,598.9z M231.1,597.8l-2.9-0.7l0.2-1l2.9,0.7L231.1,597.8z M226.3,596.6l-2.9-0.7l0.2-1l2.9,0.7L226.3,596.6z
					 M221.4,595.5l-2.9-0.7l0.2-1l2.9,0.7L221.4,595.5z M216.5,594.4l-2.9-0.7l0.2-1l2.9,0.7L216.5,594.4z"/>
			</g>
		</g>
		<g>
			<linearGradient id="SVGID_16_" gradientUnits="userSpaceOnUse" x1="242.0173" y1="721.0532" x2="242.0173" y2="419.8992">
				<stop  offset="0" style="stop-color:#DB9023"/>
				<stop  offset="1" style="stop-color:#C73A2F"/>
			</linearGradient>
			<path class="st16" d="M230.6,649.9l-1-0.2l0.7-2.9l1,0.2L230.6,649.9z M231.8,645.1l-1-0.2l0.7-2.9l1,0.2L231.8,645.1z
				 M232.9,640.2l-1-0.2l0.7-2.9l1,0.2L232.9,640.2z M234.1,635.3l-1-0.2l0.7-2.9l1,0.2L234.1,635.3z M235.2,630.5l-1-0.2l0.7-2.9
				l1,0.2L235.2,630.5z M236.4,625.6l-1-0.2l0.7-2.9l1,0.2L236.4,625.6z M237.5,620.8l-1-0.2l0.7-2.9l1,0.2L237.5,620.8z
				 M238.7,615.9l-1-0.2l0.7-2.9l1,0.2L238.7,615.9z M239.9,611l-1-0.2l0.7-2.9l1,0.2L239.9,611z M241,606.2l-1-0.2l0.7-2.9l1,0.2
				L241,606.2z M242.2,601.3l-1-0.2l0.7-2.9l1,0.2L242.2,601.3z M243.3,596.4l-1-0.2l0.7-2.9l1,0.2L243.3,596.4z M244.5,591.6
				l-1-0.2l0.7-2.9l1,0.2L244.5,591.6z M245.6,586.7l-1-0.2l0.7-2.9l1,0.2L245.6,586.7z M246.8,581.8l-1-0.2l0.7-2.9l1,0.2
				L246.8,581.8z M247.9,577l-1-0.2l0.7-2.9l1,0.2L247.9,577z M249.1,572.1l-1-0.2l0.7-2.9l1,0.2L249.1,572.1z M250.2,567.2l-1-0.2
				l0.7-2.9l1,0.2L250.2,567.2z M251.4,562.4l-1-0.2l0.7-2.9l1,0.2L251.4,562.4z M252.5,557.5l-1-0.2l0.7-2.9l1,0.2L252.5,557.5z
				 M253.7,552.6l-1-0.2l0.7-2.9l1,0.2L253.7,552.6z"/>
		</g>
		<g>
			<linearGradient id="SVGID_17_" gradientUnits="userSpaceOnUse" x1="260.205" y1="721.0532" x2="260.205" y2="419.8992">
				<stop  offset="0" style="stop-color:#DB9023"/>
				<stop  offset="1" style="stop-color:#C73A2F"/>
			</linearGradient>
			<path class="st17" d="M280,606.5l-2.1-2.2l0.7-0.7l2.1,2.2L280,606.5z M276.6,602.9l-2.1-2.2l0.7-0.7l2.1,2.2L276.6,602.9z
				 M273.1,599.3l-2.1-2.2l0.7-0.7l2.1,2.2L273.1,599.3z M269.6,595.7l-2.1-2.2l0.7-0.7l2.1,2.2L269.6,595.7z M266.1,592.1l-2.1-2.2
				l0.7-0.7l2.1,2.2L266.1,592.1z M262.6,588.5l-2.1-2.2l0.7-0.7l2.1,2.2L262.6,588.5z M259.1,584.9l-2.1-2.2l0.7-0.7l2.1,2.2
				L259.1,584.9z M255.7,581.3l-2.1-2.2l0.7-0.7l2.1,2.2L255.7,581.3z M252.2,577.7l-2.1-2.2l0.7-0.7l2.1,2.2L252.2,577.7z
				 M248.7,574.2l-2.1-2.2l0.7-0.7l2.1,2.2L248.7,574.2z M245.2,570.6l-2.1-2.2l0.7-0.7l2.1,2.2L245.2,570.6z M241.7,567l-2.1-2.2
				l0.7-0.7l2.1,2.2L241.7,567z"/>
		</g>
		<g>
			<linearGradient id="SVGID_18_" gradientUnits="userSpaceOnUse" x1="252.113" y1="721.0532" x2="252.113" y2="419.8992">
				<stop  offset="0" style="stop-color:#DB9023"/>
				<stop  offset="1" style="stop-color:#C73A2F"/>
			</linearGradient>
			<path class="st18" d="M224.9,630.8l-0.3-0.9l2.8-1l0.3,0.9L224.9,630.8z M229.6,629.2l-0.3-0.9l2.8-1l0.3,0.9L229.6,629.2z
				 M234.3,627.5l-0.3-0.9l2.8-1l0.3,0.9L234.3,627.5z M239.1,625.9l-0.3-0.9l2.8-1l0.3,0.9L239.1,625.9z M243.8,624.2l-0.3-0.9
				l2.8-1l0.3,0.9L243.8,624.2z M248.5,622.6l-0.3-0.9l2.8-1l0.3,0.9L248.5,622.6z M253.2,620.9l-0.3-0.9l2.8-1l0.3,0.9L253.2,620.9
				z M257.9,619.3l-0.3-0.9l2.8-1l0.3,0.9L257.9,619.3z M262.7,617.7l-0.3-0.9l2.8-1l0.3,0.9L262.7,617.7z M267.4,616l-0.3-0.9
				l2.8-1l0.3,0.9L267.4,616z M272.1,614.4l-0.3-0.9l2.8-1l0.3,0.9L272.1,614.4z M276.8,612.7l-0.3-0.9l2.8-1l0.3,0.9L276.8,612.7z"
				/>
		</g>
		<g>
			<g>
				<linearGradient id="SVGID_19_" gradientUnits="userSpaceOnUse" x1="179.3104" y1="721.0532" x2="179.3104" y2="419.8992">
					<stop  offset="0" style="stop-color:#DB9023"/>
					<stop  offset="1" style="stop-color:#C73A2F"/>
				</linearGradient>
				<path class="st19" d="M170,505.2l0.9,2.9l-1,0.3l-0.9-2.9L170,505.2z M171.5,509.9l0.9,2.9l-1,0.3l-0.9-2.9L171.5,509.9z
					 M172.9,514.7l0.9,2.9l-1,0.3l-0.9-2.9L172.9,514.7z M174.3,519.5l0.9,2.9l-1,0.3l-0.9-2.9L174.3,519.5z M175.8,524.3l0.9,2.9
					l-1,0.3l-0.9-2.9L175.8,524.3z M177.2,529.1l0.9,2.9l-1,0.3l-0.9-2.9L177.2,529.1z M178.6,533.9l0.9,2.9l-1,0.3l-0.9-2.9
					L178.6,533.9z M180.1,538.7l0.9,2.9l-1,0.3l-0.9-2.9L180.1,538.7z M181.5,543.5l0.9,2.9l-1,0.3l-0.9-2.9L181.5,543.5z
					 M182.9,548.3l0.9,2.9l-1,0.3l-0.9-2.9L182.9,548.3z M184.4,553.1l0.9,2.9l-1,0.3l-0.9-2.9L184.4,553.1z M185.8,557.8l0.9,2.9
					l-1,0.3l-0.9-2.9L185.8,557.8z M187.3,562.6l0.9,2.9l-1,0.3l-0.9-2.9L187.3,562.6z M188.7,567.4l0.9,2.9l-1,0.3l-0.9-2.9
					L188.7,567.4z"/>
			</g>
		</g>
		<g>
			<linearGradient id="SVGID_20_" gradientUnits="userSpaceOnUse" x1="180.6165" y1="721.0532" x2="180.6165" y2="419.8992">
				<stop  offset="0" style="stop-color:#DB9023"/>
				<stop  offset="1" style="stop-color:#C73A2F"/>
			</linearGradient>
			<path class="st20" d="M229.8,527.5l0.3,1l-2.9,0.9l-0.3-1L229.8,527.5z M225,528.9l0.3,1l-2.9,0.9l-0.3-1L225,528.9z
				 M220.2,530.3l0.3,1l-2.9,0.9l-0.3-1L220.2,530.3z M215.5,531.7l0.3,1l-2.9,0.9l-0.3-1L215.5,531.7z M210.7,533.2l0.3,1l-2.9,0.9
				l-0.3-1L210.7,533.2z M205.9,534.6l0.3,1l-2.9,0.9l-0.3-1L205.9,534.6z M201.1,536l0.3,1l-2.9,0.9l-0.3-1L201.1,536z
				 M196.3,537.5l0.3,1l-2.9,0.9l-0.3-1L196.3,537.5z M191.5,538.9l0.3,1l-2.9,0.9l-0.3-1L191.5,538.9z M186.7,540.3l0.3,1l-2.9,0.9
				l-0.3-1L186.7,540.3z M181.9,541.8l0.3,1l-2.9,0.9l-0.3-1L181.9,541.8z M177.1,543.2l0.3,1l-2.9,0.9l-0.3-1L177.1,543.2z
				 M172.3,544.6l0.3,1l-2.9,0.9l-0.3-1L172.3,544.6z M167.5,546l0.3,1l-2.9,0.9l-0.3-1L167.5,546z M162.7,547.5l0.3,1l-2.9,0.9
				l-0.3-1L162.7,547.5z M158,548.9l0.3,1l-2.9,0.9l-0.3-1L158,548.9z M153.2,550.3l0.3,1l-2.9,0.9l-0.3-1L153.2,550.3z
				 M148.4,551.8l0.3,1l-2.9,0.9l-0.3-1L148.4,551.8z M143.6,553.2l0.3,1L141,555l-0.3-1L143.6,553.2z M138.8,554.6l0.3,1l-2.9,0.9
				l-0.3-1L138.8,554.6z M134,556l0.3,1l-2.9,0.9l-0.3-1L134,556z"/>
		</g>
		<g>
			<linearGradient id="SVGID_21_" gradientUnits="userSpaceOnUse" x1="159.0374" y1="721.0532" x2="159.0374" y2="419.8992">
				<stop  offset="0" style="stop-color:#DB9023"/>
				<stop  offset="1" style="stop-color:#C73A2F"/>
			</linearGradient>
			<path class="st21" d="M167.5,506.4l-0.8,2.9l-1-0.3l0.8-2.9L167.5,506.4z M166.1,511.2l-0.8,2.9l-1-0.3l0.8-2.9L166.1,511.2z
				 M164.7,516l-0.8,2.9l-1-0.3l0.8-2.9L164.7,516z M163.4,520.8l-0.8,2.9l-1-0.3l0.8-2.9L163.4,520.8z M162,525.6l-0.8,2.9l-1-0.3
				l0.8-2.9L162,525.6z M160.6,530.4l-0.8,2.9l-1-0.3l0.8-2.9L160.6,530.4z M159.2,535.2l-0.8,2.9l-1-0.3l0.8-2.9L159.2,535.2z
				 M157.9,540l-0.8,2.9l-1-0.3l0.8-2.9L157.9,540z M156.5,544.8l-0.8,2.9l-1-0.3l0.8-2.9L156.5,544.8z M155.1,549.6l-0.8,2.9
				l-1-0.3l0.8-2.9L155.1,549.6z M153.8,554.4l-0.8,2.9l-1-0.3l0.8-2.9L153.8,554.4z M152.4,559.2l-0.8,2.9l-1-0.3l0.8-2.9
				L152.4,559.2z"/>
		</g>
		<g>
			<linearGradient id="SVGID_22_" gradientUnits="userSpaceOnUse" x1="193.8506" y1="721.0532" x2="193.8506" y2="419.8992">
				<stop  offset="0" style="stop-color:#DB9023"/>
				<stop  offset="1" style="stop-color:#C73A2F"/>
			</linearGradient>
			<path class="st22" d="M216.1,542l-0.7,0.8l-2.3-2l0.7-0.8L216.1,542z M212.3,538.7l-0.7,0.8l-2.3-2l0.7-0.8L212.3,538.7z
				 M208.5,535.5l-0.7,0.8l-2.3-2l0.7-0.8L208.5,535.5z M204.8,532.2l-0.7,0.8l-2.3-2l0.7-0.8L204.8,532.2z M201,528.9l-0.7,0.8
				l-2.3-2l0.7-0.8L201,528.9z M197.2,525.6l-0.7,0.8l-2.3-2l0.7-0.8L197.2,525.6z M193.4,522.4l-0.7,0.8l-2.3-2l0.7-0.8
				L193.4,522.4z M189.6,519.1l-0.7,0.8l-2.3-2l0.7-0.8L189.6,519.1z M185.9,515.8l-0.7,0.8l-2.3-2l0.7-0.8L185.9,515.8z
				 M182.1,512.5l-0.7,0.8l-2.3-2l0.7-0.8L182.1,512.5z M178.3,509.3l-0.7,0.8l-2.3-2l0.7-0.8L178.3,509.3z M174.5,506l-0.7,0.8
				l-2.3-2l0.7-0.8L174.5,506z"/>
		</g>
		<g>
			<g>
				<linearGradient id="SVGID_23_" gradientUnits="userSpaceOnUse" x1="158.2781" y1="721.0532" x2="158.2781" y2="419.8992">
					<stop  offset="0" style="stop-color:#DB9023"/>
					<stop  offset="1" style="stop-color:#C73A2F"/>
				</linearGradient>
				<path class="st23" d="M134.7,652.2l2-2.2l0.7,0.7l-2,2.2L134.7,652.2z M138.1,648.5l2.1-2.2l0.7,0.7l-2.1,2.2L138.1,648.5z
					 M141.5,644.9l2.1-2.2l0.7,0.7l-2,2.2L141.5,644.9z M144.9,641.2l2.1-2.2l0.7,0.7l-2.1,2.2L144.9,641.2z M148.3,637.6l2-2.2
					l0.7,0.7l-2,2.2L148.3,637.6z M151.8,633.9l2-2.2l0.7,0.7l-2,2.2L151.8,633.9z M155.2,630.3l2.1-2.2l0.7,0.7l-2.1,2.2
					L155.2,630.3z M158.6,626.6l2-2.2l0.7,0.7l-2,2.2L158.6,626.6z M162,623l2.1-2.2l0.7,0.7l-2.1,2.2L162,623z M165.4,619.3
					l2.1-2.2l0.7,0.7l-2.1,2.2L165.4,619.3z M168.8,615.7l2.1-2.2l0.7,0.7l-2.1,2.2L168.8,615.7z M172.3,612l2.1-2.2l0.7,0.7
					l-2.1,2.2L172.3,612z M175.7,608.4l2-2.2l0.7,0.7l-2,2.2L175.7,608.4z M179.1,604.7l2.1-2.2l0.7,0.7l-2,2.2L179.1,604.7z"/>
			</g>
		</g>
		<g>
			<linearGradient id="SVGID_24_" gradientUnits="userSpaceOnUse" x1="161.7626" y1="721.0532" x2="161.7626" y2="419.8992">
				<stop  offset="0" style="stop-color:#DB9023"/>
				<stop  offset="1" style="stop-color:#C73A2F"/>
			</linearGradient>
			<path class="st24" d="M123.9,589.3l0.7-0.7l2.2,2.1l-0.7,0.7L123.9,589.3z M127.5,592.7l0.7-0.7l2.2,2.1l-0.7,0.7L127.5,592.7z
				 M131.2,596.1l0.7-0.7l2.2,2.1l-0.7,0.7L131.2,596.1z M134.8,599.5l0.7-0.7l2.2,2.1l-0.7,0.7L134.8,599.5z M138.5,603l0.7-0.7
				l2.2,2.1l-0.7,0.7L138.5,603z M142.1,606.4l0.7-0.7l2.2,2.1l-0.7,0.7L142.1,606.4z M145.7,609.8l0.7-0.7l2.2,2.1l-0.7,0.7
				L145.7,609.8z M149.4,613.2l0.7-0.7l2.2,2.1l-0.7,0.7L149.4,613.2z M153,616.7l0.7-0.7l2.2,2.1l-0.7,0.7L153,616.7z M156.7,620.1
				l0.7-0.7l2.2,2.1l-0.7,0.7L156.7,620.1z M160.3,623.5l0.7-0.7l2.2,2.1l-0.7,0.7L160.3,623.5z M164,626.9l0.7-0.7l2.2,2.1
				l-0.7,0.7L164,626.9z M167.6,630.3l0.7-0.7l2.2,2.1l-0.7,0.7L167.6,630.3z M171.3,633.8l0.7-0.7l2.2,2.1l-0.7,0.7L171.3,633.8z
				 M174.9,637.2l0.7-0.7l2.2,2.1l-0.7,0.7L174.9,637.2z M178.6,640.6l0.7-0.7l2.2,2.1l-0.7,0.7L178.6,640.6z M182.2,644l0.7-0.7
				l2.2,2.1l-0.7,0.7L182.2,644z M185.8,647.5l0.7-0.7l2.2,2.1l-0.7,0.7L185.8,647.5z M189.5,650.9l0.7-0.7l2.2,2.1l-0.7,0.7
				L189.5,650.9z M193.1,654.3l0.7-0.7l2.2,2.1l-0.7,0.7L193.1,654.3z M196.8,657.7l0.7-0.7l2.2,2.1l-0.7,0.7L196.8,657.7z"/>
		</g>
		<g>
			<linearGradient id="SVGID_25_" gradientUnits="userSpaceOnUse" x1="165.2193" y1="721.0532" x2="165.2193" y2="419.8992">
				<stop  offset="0" style="stop-color:#DB9023"/>
				<stop  offset="1" style="stop-color:#C73A2F"/>
			</linearGradient>
			<path class="st25" d="M137,653.8l2.9-0.7l0.2,1l-2.9,0.7L137,653.8z M141.8,652.5l2.9-0.7l0.2,1l-2.9,0.7L141.8,652.5z
				 M146.7,651.3l2.9-0.7l0.2,1l-2.9,0.7L146.7,651.3z M151.5,650.1l2.9-0.7l0.2,1l-2.9,0.7L151.5,650.1z M156.4,648.9l2.9-0.7
				l0.2,1l-2.9,0.7L156.4,648.9z M161.2,647.6l2.9-0.7l0.2,1l-2.9,0.7L161.2,647.6z M166.1,646.4l2.9-0.7l0.2,1l-2.9,0.7
				L166.1,646.4z M170.9,645.2l2.9-0.7l0.2,1l-2.9,0.7L170.9,645.2z M175.8,643.9l2.9-0.7l0.2,1l-2.9,0.7L175.8,643.9z M180.6,642.7
				l2.9-0.7l0.2,1l-2.9,0.7L180.6,642.7z M185.4,641.5l2.9-0.7l0.2,1l-2.9,0.7L185.4,641.5z M190.3,640.2l2.9-0.7l0.2,1l-2.9,0.7
				L190.3,640.2z"/>
		</g>
		<g>
			<linearGradient id="SVGID_26_" gradientUnits="userSpaceOnUse" x1="138.449" y1="721.0532" x2="138.449" y2="419.8992">
				<stop  offset="0" style="stop-color:#DB9023"/>
				<stop  offset="1" style="stop-color:#C73A2F"/>
			</linearGradient>
			<path class="st26" d="M143.3,593.8l1,0.2l-0.6,2.9l-1-0.2L143.3,593.8z M142.4,598.7l1,0.2l-0.6,2.9l-1-0.2L142.4,598.7z
				 M141.5,603.7l1,0.2l-0.6,2.9l-1-0.2L141.5,603.7z M140.6,608.6l1,0.2l-0.6,2.9l-1-0.2L140.6,608.6z M139.6,613.5l1,0.2l-0.6,2.9
				l-1-0.2L139.6,613.5z M138.7,618.4l1,0.2l-0.6,2.9l-1-0.2L138.7,618.4z M137.8,623.3l1,0.2l-0.6,2.9l-1-0.2L137.8,623.3z
				 M136.8,628.2l1,0.2l-0.6,2.9l-1-0.2L136.8,628.2z M135.9,633.1l1,0.2l-0.6,2.9l-1-0.2L135.9,633.1z M135,638l1,0.2l-0.6,2.9
				l-1-0.2L135,638z M134.1,643l1,0.2l-0.6,2.9l-1-0.2L134.1,643z M133.1,647.9l1,0.2l-0.6,2.9l-1-0.2L133.1,647.9z"/>
		</g>
	</g>
</g>
</svg>
