<svg xmlns="http://www.w3.org/2000/svg" xmlns:xlink="http://www.w3.org/1999/xlink" width="500.987" height="147.435" viewBox="0 0 500.987 147.435">
  <defs>
    <linearGradient id="linear-gradient" x1="0.5" x2="0.5" y2="1" gradientUnits="objectBoundingBox">
      <stop offset="0" stop-color="#e95b25"/>
      <stop offset="1" stop-color="#ee8211"/>
    </linearGradient>
    <linearGradient id="linear-gradient-2" x1="0.337" y1="1.056" x2="0.338" y2="0" xlink:href="#linear-gradient"/>
    <clipPath id="clip-path">
      <path id="Path_18" data-name="Path 18" d="M0,101.067H500.987V-46.368H0Z" transform="translate(0 46.368)" fill="none"/>
    </clipPath>
    <linearGradient id="linear-gradient-4" y1="-3.761" xlink:href="#linear-gradient"/>
    <clipPath id="clip-path-2">
      <path id="Path_21" data-name="Path 21" d="M0,101.067H500.971V-46.368H0Z" transform="translate(0 46.368)" fill="none"/>
    </clipPath>
    <linearGradient id="linear-gradient-9" y2="1.751" xlink:href="#linear-gradient"/>
    <clipPath id="clip-path-3">
      <path id="Path_27" data-name="Path 27" d="M0,101.067H500.987V-46.368H0Z" transform="translate(0 46.368)" fill="url(#linear-gradient)"/>
    </clipPath>
    <linearGradient id="linear-gradient-11" y2="1.674" xlink:href="#linear-gradient"/>
    <clipPath id="clip-path-4">
      <path id="Path_30" data-name="Path 30" d="M0,101.067H500.97V-46.368H0Z" transform="translate(0 46.368)" fill="url(#linear-gradient-2)"/>
    </clipPath>
    <linearGradient id="linear-gradient-16" y2="3.171" xlink:href="#linear-gradient"/>
  </defs>
  <g id="Hybrit_Logo_CMYK" transform="translate(-960 -522.368)">
    <g id="Group_13" data-name="Group 13" transform="translate(960 522.368)" clip-path="url(#clip-path)">
      <g id="Group_1" data-name="Group 1" transform="translate(176.73 117.868)">
        <path id="Path_3" data-name="Path 3" d="M0,7.973A12.3,12.3,0,0,1,.814,3.509,10.875,10.875,0,0,1,3.176-.183,11.481,11.481,0,0,1,6.909-2.714a12.35,12.35,0,0,1,4.935-.944,11.866,11.866,0,0,1,6.289,1.587,10.153,10.153,0,0,1,3.882,4.165L16.394,3.811A5.061,5.061,0,0,0,14.464,1.9,5.385,5.385,0,0,0,11.8,1.236a5.455,5.455,0,0,0-2.318.493A5.723,5.723,0,0,0,7.619,3.1,6.346,6.346,0,0,0,6.372,5.226a8.057,8.057,0,0,0-.448,2.747,7.689,7.689,0,0,0,.471,2.747A6.954,6.954,0,0,0,7.66,12.867a5.561,5.561,0,0,0,1.87,1.393,5.34,5.34,0,0,0,2.273.5,5.523,5.523,0,0,0,2.855-.773,4.348,4.348,0,0,0,1.822-1.889l5.625,1.717a9.468,9.468,0,0,1-3.822,4.2,11.972,11.972,0,0,1-6.394,1.631A12.339,12.339,0,0,1,6.954,18.7,11.173,11.173,0,0,1,.836,12.415,12.035,12.035,0,0,1,0,7.973" transform="translate(0 3.658)" fill="url(#linear-gradient-4)"/>
      </g>
      <g id="Group_2" data-name="Group 2" transform="translate(200.721 117.869)">
        <path id="Path_4" data-name="Path 4" d="M4.061,8a7.789,7.789,0,0,0,.452,2.725,6.635,6.635,0,0,0,1.243,2.124,5.516,5.516,0,0,0,1.866,1.4,5.455,5.455,0,0,0,2.318.493,5.455,5.455,0,0,0,2.318-.493,5.528,5.528,0,0,0,1.87-1.4A6.633,6.633,0,0,0,15.371,10.7a8.025,8.025,0,0,0,.452-2.744,7.934,7.934,0,0,0-.452-2.706,6.667,6.667,0,0,0-1.243-2.146,5.561,5.561,0,0,0-1.87-1.393,5.457,5.457,0,0,0-2.318-.5,5.287,5.287,0,0,0-2.318.515A5.844,5.844,0,0,0,5.756,3.153,6.61,6.61,0,0,0,4.512,5.3,7.84,7.84,0,0,0,4.061,8M9.94,19.633a12.35,12.35,0,0,1-4.935-.944,11.036,11.036,0,0,1-3.711-2.553,11.27,11.27,0,0,1-2.34-3.714A12.1,12.1,0,0,1-1.863,8a12.24,12.24,0,0,1,.817-4.464A11.256,11.256,0,0,1,1.294-.173,11.09,11.09,0,0,1,5.005-2.73,12.4,12.4,0,0,1,9.94-3.671a12.255,12.255,0,0,1,4.916.941A11.2,11.2,0,0,1,18.547-.173a11.36,11.36,0,0,1,2.34,3.711A12.3,12.3,0,0,1,21.7,8a12.167,12.167,0,0,1-.814,4.42,11.585,11.585,0,0,1-2.318,3.714,10.862,10.862,0,0,1-3.692,2.553,12.354,12.354,0,0,1-4.938.944" transform="translate(1.863 3.671)" fill="url(#linear-gradient-4)"/>
      </g>
      <g id="Group_3" data-name="Group 3" transform="translate(226.775 109.412)">
        <path id="Path_5" data-name="Path 5" d="M8.355,18.418a5.365,5.365,0,0,0,1.676-.28,5.93,5.93,0,0,0,1.587-.792,7.116,7.116,0,0,0,1.31-1.2,5.106,5.106,0,0,0,.881-1.5V9.277a6.436,6.436,0,0,0-.967-1.739,7.247,7.247,0,0,0-1.418-1.374,7.441,7.441,0,0,0-1.673-.922A4.768,4.768,0,0,0,8.011,4.9a5.132,5.132,0,0,0-2.382.56A5.647,5.647,0,0,0,3.763,6.981a7.308,7.308,0,0,0-1.2,2.21,7.846,7.846,0,0,0-.429,2.576,7.027,7.027,0,0,0,.474,2.617,6.756,6.756,0,0,0,1.285,2.1A5.872,5.872,0,0,0,5.843,17.9a6.026,6.026,0,0,0,2.512.515m-1.5,4.894a10.213,10.213,0,0,1-4.293-.9,10.073,10.073,0,0,1-3.39-2.49,11.641,11.641,0,0,1-2.213-3.711,13,13,0,0,1-.792-4.572,13.472,13.472,0,0,1,.75-4.55A11.985,11.985,0,0,1-1,3.394,9.584,9.584,0,0,1,2.173.908,9.071,9.071,0,0,1,6.208,0a8.554,8.554,0,0,1,4.487,1.2,8.751,8.751,0,0,1,3.113,3.135V-8.45h5.749V16.272a2.13,2.13,0,0,0,.3,1.288,1.325,1.325,0,0,0,1.03.429v4.894a13.029,13.029,0,0,1-2.448.3,3.983,3.983,0,0,1-2.531-.773,2.832,2.832,0,0,1-1.116-2.016l-.13-1.415a8.191,8.191,0,0,1-3.367,3.24,9.6,9.6,0,0,1-4.442,1.094" transform="translate(3.833 8.45)" fill="url(#linear-gradient-4)"/>
      </g>
      <g id="Group_4" data-name="Group 4" transform="translate(254.414 117.868)">
        <path id="Path_6" data-name="Path 6" d="M12.121,6.679a5.991,5.991,0,0,0-1.866-4.057A5.714,5.714,0,0,0,6.242,1.1a5.769,5.769,0,0,0-2.169.407A5.665,5.665,0,0,0,2.293,2.644,5.858,5.858,0,0,0,1.027,4.4,6.244,6.244,0,0,0,.445,6.679ZM6.283,20.24a12.453,12.453,0,0,1-4.894-.922,11.192,11.192,0,0,1-3.733-2.512,11.105,11.105,0,0,1-2.382-3.692,11.858,11.858,0,0,1-.836-4.42,12.529,12.529,0,0,1,.814-4.528A11.091,11.091,0,0,1-2.388.434,11.338,11.338,0,0,1,1.368-2.12a12.515,12.515,0,0,1,4.957-.944,12.191,12.191,0,0,1,4.916.944A11.265,11.265,0,0,1,14.932.411,10.811,10.811,0,0,1,17.25,4.1a12.26,12.26,0,0,1,.795,4.378c0,.372-.01.728-.022,1.072a4.483,4.483,0,0,1-.108.859H.534a6.7,6.7,0,0,0,.642,2.362,5.773,5.773,0,0,0,3.176,2.874,6.061,6.061,0,0,0,2.146.385A6.614,6.614,0,0,0,9.74,15.2a4.432,4.432,0,0,0,2.083-2.21l4.935,1.374a10.058,10.058,0,0,1-3.971,4.229,12.314,12.314,0,0,1-6.5,1.65" transform="translate(5.561 3.064)" fill="url(#linear-gradient-4)"/>
      </g>
      <path id="Path_7" data-name="Path 7" d="M88.5-4.048h4.722V2.133H88.5Z" transform="translate(192.908 138.612)" fill="url(#linear-gradient-4)"/>
      <path id="Path_8" data-name="Path 8" d="M91.58-3.115h5.752v22.49H91.58Zm0,22.487,0-31.329h5.752V-6.25H91.58Z" transform="translate(199.615 121.371)"/>
      <g id="Group_5" data-name="Group 5" transform="translate(300.464 110.958)">
        <path id="Path_9" data-name="Path 9" d="M10.386,19.624a25.668,25.668,0,0,1-2.833,1.03,11.9,11.9,0,0,1-3.52.515,8.161,8.161,0,0,1-2.251-.3A4.89,4.89,0,0,1-.065,19.9a4.761,4.761,0,0,1-1.266-1.717A6.217,6.217,0,0,1-1.8,15.633V2.714H-4.765v-4.42H-1.8V-9H3.947v7.3H8.669v4.42H3.947V13.7a2.046,2.046,0,0,0,.623,1.695,2.369,2.369,0,0,0,1.523.5,5.3,5.3,0,0,0,1.762-.3c.572-.2,1.027-.372,1.374-.515Z" transform="translate(4.765 9.003)"/>
      </g>
      <path id="Path_10" data-name="Path 10" d="M100.164-4.048h4.722V2.133h-4.722Z" transform="translate(218.325 138.612)"/>
      <g id="Group_6" data-name="Group 6" transform="translate(326.603 117.825)">
        <path id="Path_11" data-name="Path 11" d="M6.973,16.005a17.389,17.389,0,0,1-5.536-.9A13.558,13.558,0,0,1-3.2,12.53l2.146-3.606a18.378,18.378,0,0,0,4.013,2.21,10.79,10.79,0,0,0,3.886.75,4.912,4.912,0,0,0,2.7-.642,2.075,2.075,0,0,0,.986-1.847A1.84,1.84,0,0,0,9.377,7.636,25.026,25.026,0,0,0,5.6,6.349q-2.189-.6-3.733-1.161A9.439,9.439,0,0,1-.623,3.923,4.308,4.308,0,0,1-2,2.291,5.2,5.2,0,0,1-2.426.082a7.02,7.02,0,0,1,.665-3.091A6.69,6.69,0,0,1,.1-5.346,8.611,8.611,0,0,1,2.919-6.828a11.389,11.389,0,0,1,3.494-.515,15.144,15.144,0,0,1,4.744.728,11.631,11.631,0,0,1,4.057,2.363L12.9-.777A13.452,13.452,0,0,0,9.567-2.666a9.074,9.074,0,0,0-3.2-.6,4.615,4.615,0,0,0-2.445.6A2.088,2.088,0,0,0,2.938-.732a1.877,1.877,0,0,0,.235.986A2.075,2.075,0,0,0,3.927.94a7.173,7.173,0,0,0,1.351.579q.835.281,2.08.582,2.318.6,3.971,1.2a11.014,11.014,0,0,1,2.7,1.374,4.854,4.854,0,0,1,1.545,1.784A5.434,5.434,0,0,1,16.07,8.88a6.254,6.254,0,0,1-2.445,5.215,10.526,10.526,0,0,1-6.652,1.911" transform="translate(3.199 7.343)"/>
      </g>
      <g id="Group_7" data-name="Group 7" transform="translate(349.606 117.869)">
        <path id="Path_12" data-name="Path 12" d="M23.95,15.681H18.2V3.064a6.706,6.706,0,0,0-.922-3.949,3.008,3.008,0,0,0-2.553-1.246A4.82,4.82,0,0,0,11.5-.822,7.184,7.184,0,0,0,9.359,2.59V15.681H3.607V3.064A6.68,6.68,0,0,0,2.681-.886,3,3,0,0,0,.128-2.132a4.894,4.894,0,0,0-3.2,1.288A7,7,0,0,0-5.236,2.549V15.681h-5.752V-6.809h5.2v4.162A8.54,8.54,0,0,1-2.381-6.014a10.161,10.161,0,0,1,4.954-1.18A6.377,6.377,0,0,1,6.955-5.82a6.109,6.109,0,0,1,1.971,3.39A9.737,9.737,0,0,1,12.4-5.973a9.4,9.4,0,0,1,4.8-1.221,6.69,6.69,0,0,1,3.393.769,5.584,5.584,0,0,1,2.06,2.019A8.4,8.4,0,0,1,23.67-1.572a18.4,18.4,0,0,1,.28,3.218Z" transform="translate(10.988 7.194)"/>
      </g>
      <g id="Group_8" data-name="Group 8" transform="translate(388.02 117.867)">
        <path id="Path_13" data-name="Path 13" d="M6.384,13.093a7.5,7.5,0,0,0,2.769-.515A5.033,5.033,0,0,0,11.192,11.2a2.066,2.066,0,0,0,.944-1.631V7A13.917,13.917,0,0,0,9.9,6.378a11.907,11.907,0,0,0-2.318-.238A6.151,6.151,0,0,0,3.939,7.147a3.093,3.093,0,0,0-.3,4.979,4.044,4.044,0,0,0,2.747.967M4.753,17.3a8.49,8.49,0,0,1-3.046-.537,7.362,7.362,0,0,1-2.448-1.5A7.035,7.035,0,0,1-2.35,13.007a6.849,6.849,0,0,1-.579-2.833A6.231,6.231,0,0,1-2.22,7.233a6.745,6.745,0,0,1,1.971-2.3A9.843,9.843,0,0,1,2.779,3.459a13.148,13.148,0,0,1,3.863-.537,16.669,16.669,0,0,1,2.941.258,12,12,0,0,1,2.553.728V2.623A4.51,4.51,0,0,0,10.871-.811a5.271,5.271,0,0,0-3.755-1.2,9.946,9.946,0,0,0-3.52.642A16.346,16.346,0,0,0,.076.518L-1.686-3.129A16.608,16.608,0,0,1,7.672-6.007q4.851,0,7.533,2.385t2.68,6.887v7a2.01,2.01,0,0,0,.324,1.288,1.4,1.4,0,0,0,1.049.429v4.894a12.751,12.751,0,0,1-2.531.3,3.84,3.84,0,0,1-2.512-.728,3.148,3.148,0,0,1-1.094-1.933l-.127-1.243a9.934,9.934,0,0,1-3.65,3A10.471,10.471,0,0,1,4.753,17.3" transform="translate(2.929 6.007)"/>
      </g>
      <g id="Group_9" data-name="Group 9" transform="translate(414.199 117.952)">
        <path id="Path_14" data-name="Path 14" d="M9.181,3.62A11.312,11.312,0,0,0,4.5,4.628a5.9,5.9,0,0,0-2.963,2.9V21.131H-4.212V-1.359H1.069V3.449A10.3,10.3,0,0,1,2.484,1.366,11,11,0,0,1,4.246-.243,8.2,8.2,0,0,1,6.157-1.3,5.3,5.3,0,0,1,8.02-1.661h.712a2.281,2.281,0,0,1,.448.045Z" transform="translate(4.212 1.661)"/>
      </g>
      <g id="Group_10" data-name="Group 10" transform="translate(429.136 110.958)">
        <path id="Path_15" data-name="Path 15" d="M10.386,19.624a25.668,25.668,0,0,1-2.833,1.03,11.9,11.9,0,0,1-3.52.515,8.184,8.184,0,0,1-2.254-.3A4.9,4.9,0,0,1-.065,19.9a4.761,4.761,0,0,1-1.266-1.717A6.217,6.217,0,0,1-1.8,15.633V2.714H-4.765v-4.42H-1.8V-9H3.947v7.3H8.669v4.42H3.947V13.7a2.046,2.046,0,0,0,.623,1.695,2.363,2.363,0,0,0,1.523.5,5.27,5.27,0,0,0,1.758-.3c.572-.2,1.03-.372,1.374-.515Z" transform="translate(4.765 9.003)"/>
      </g>
      <g id="Group_11" data-name="Group 11" transform="translate(445.318 117.868)">
        <path id="Path_16" data-name="Path 16" d="M12.121,6.679a5.991,5.991,0,0,0-1.866-4.057A5.714,5.714,0,0,0,6.242,1.1a5.769,5.769,0,0,0-2.169.407A5.7,5.7,0,0,0,2.293,2.644,5.858,5.858,0,0,0,1.027,4.4,6.181,6.181,0,0,0,.445,6.679ZM6.283,20.24a12.453,12.453,0,0,1-4.894-.922,11.224,11.224,0,0,1-3.733-2.512,11.056,11.056,0,0,1-2.382-3.692,11.858,11.858,0,0,1-.836-4.42,12.529,12.529,0,0,1,.814-4.528A11.05,11.05,0,0,1-2.385.434,11.273,11.273,0,0,1,1.371-2.12a12.493,12.493,0,0,1,4.957-.944,12.175,12.175,0,0,1,4.913.944A11.3,11.3,0,0,1,14.932.411,10.715,10.715,0,0,1,17.25,4.1a12.327,12.327,0,0,1,.792,4.378c0,.372-.006.728-.019,1.072a4.242,4.242,0,0,1-.108.859H.531a6.7,6.7,0,0,0,.645,2.362,5.773,5.773,0,0,0,3.176,2.874,6.061,6.061,0,0,0,2.146.385A6.623,6.623,0,0,0,9.74,15.2a4.425,4.425,0,0,0,2.08-2.21l4.938,1.374a10.038,10.038,0,0,1-3.971,4.229,12.314,12.314,0,0,1-6.5,1.65" transform="translate(5.561 3.064)"/>
      </g>
      <g id="Group_12" data-name="Group 12" transform="translate(472.441 117.952)">
        <path id="Path_17" data-name="Path 17" d="M9.181,3.62A11.3,11.3,0,0,0,4.5,4.628a5.9,5.9,0,0,0-2.963,2.9V21.131H-4.212V-1.359H1.069V3.449A10.3,10.3,0,0,1,2.484,1.366,11,11,0,0,1,4.246-.243,8.241,8.241,0,0,1,6.154-1.3,5.325,5.325,0,0,1,8.02-1.661h.709a2.289,2.289,0,0,1,.452.045Z" transform="translate(4.212 1.661)"/>
      </g>
    </g>
    <g id="Group_15" data-name="Group 15" transform="translate(960 522.368)" clip-path="url(#clip-path-2)">
      <path id="Path_19" data-name="Path 19" d="M134.422-36.781h12.426V27.153H134.422Z" transform="translate(292.996 67.265)" fill="url(#linear-gradient-9)"/>
      <g id="Group_14" data-name="Group 14" transform="translate(447.766 30.484)">
        <path id="Path_20" data-name="Path 20" d="M36.481,7.47H16.042V60.507H3.705V7.47H-16.737v-10.9H36.481Z" transform="translate(16.737 3.427)" fill="url(#linear-gradient-9)"/>
      </g>
    </g>
    <g id="Group_20" data-name="Group 20" transform="translate(960 522.368)" clip-path="url(#clip-path-3)">
      <g id="Group_16" data-name="Group 16" transform="translate(306.307 30.485)">
        <path id="Path_22" data-name="Path 22" d="M33.116,25.339a16.412,16.412,0,0,0-8.69-5.806,14.293,14.293,0,0,0,6.846-6.08,17.5,17.5,0,0,0,1.3-14.677A17.094,17.094,0,0,0,29.65-6.448a15.07,15.07,0,0,0-4.591-3.736,12.637,12.637,0,0,0-6.035-1.44H-15.193V52.309H-2.636L-2.767-1h17.11a6.57,6.57,0,0,1,5,2.159,8.218,8.218,0,0,1,2.025,5.854,7.942,7.942,0,0,1-2.2,5.943A7.381,7.381,0,0,1,13.8,15.119H4.165v9.816H16.324a6.532,6.532,0,0,1,2.97.674,7.386,7.386,0,0,1,2.34,1.844A9.169,9.169,0,0,1,23.211,30.2a9.353,9.353,0,0,1,.585,3.288,8.556,8.556,0,0,1-2.34,5.9,7.682,7.682,0,0,1-2.566,1.755,8.12,8.12,0,0,1-3.2.63H4.165V52.309H15.691a28.658,28.658,0,0,0,7.971-1.081,20.932,20.932,0,0,0,6.572-3.151,14.507,14.507,0,0,0,6.08-12.248,16.793,16.793,0,0,0-3.2-10.49" transform="translate(15.193 11.625)" fill="url(#linear-gradient-11)"/>
      </g>
      <g id="Group_17" data-name="Group 17" transform="translate(367.537 30.486)">
        <path id="Path_23" data-name="Path 23" d="M25.432,27.344a17.85,17.85,0,0,0,8.42-7.339A21.261,21.261,0,0,0,36.959,8.7a20.572,20.572,0,0,0-1.533-7.7,22.917,22.917,0,0,0-4.232-6.846A21.108,21.108,0,0,0,24.755-10.7a18.143,18.143,0,0,0-8.15-1.844H-11.668V51.386H.758V-1.651h.248v-.019h6.8v.019H15.8a7.26,7.26,0,0,1,3.2.766,8.786,8.786,0,0,1,2.792,2.162,10.885,10.885,0,0,1,1.936,3.285A11.628,11.628,0,0,1,24.44,8.7a12.736,12.736,0,0,1-.63,4.051A10.954,10.954,0,0,1,22.1,16.043a8.2,8.2,0,0,1-2.566,2.207,6.576,6.576,0,0,1-3.2.811H7.808V29.955h5.2L26.062,51.386H40.021Z" transform="translate(11.668 12.545)" fill="url(#linear-gradient-11)"/>
      </g>
      <g id="Group_18" data-name="Group 18" transform="translate(179.793 30.484)">
        <path id="Path_24" data-name="Path 24" d="M23.745,17.716H1.532V-8.128H-10.894V55.806H1.532V28.524H23.745Z" transform="translate(10.894 8.128)" fill="url(#linear-gradient-11)"/>
      </g>
      <path id="Path_25" data-name="Path 25" d="M69.578,27.153H81.893V-36.781H69.578Z" transform="translate(151.658 67.265)" fill="url(#linear-gradient-11)"/>
      <g id="Group_19" data-name="Group 19" transform="translate(263.718 30.485)">
        <path id="Path_26" data-name="Path 26" d="M15.288,0l-22.3,41.9V63.934H5.323V41.6L28.554,0Z" transform="translate(7.014)" fill="url(#linear-gradient-11)"/>
      </g>
    </g>
    <g id="Group_23" data-name="Group 23" transform="translate(960 522.368)" clip-path="url(#clip-path-4)">
      <g id="Group_21" data-name="Group 21" transform="translate(240.573 30.485)">
        <path id="Path_28" data-name="Path 28" d="M17.4,15.912,5.523-7.3H-7.984L11.345,27.292Z" transform="translate(7.984 7.3)" fill="url(#linear-gradient-16)"/>
      </g>
      <g id="Group_22" data-name="Group 22" transform="translate(0 -0.001)">
        <path id="Path_29" data-name="Path 29" d="M84.183,14.793l.97.248.232,1.059L37.375,67.077l-.079.083.035.111C49.452,105.824,55.42,126.1,57.585,134.426L57,135.3l-1.017-.362C52.93,123.945,43.674,93.344,35.639,67.78l-.032-.1-.108-.025C17.518,63.376-19.8,54.539-32.74,51.582l-.289-.967.7-.747C-16,53.592,35.379,65.8,35.9,65.929l.108.025ZM60.409,131.322l0-.01,3.355-14.563L49.652,70.072,83.271,34.393l3.345-14.248L105.64,83.179ZM15.642-1.216,80.005,13.852l-.006,0L67.007,17.884,32.561,54.517l-49.167-11.59-12.862,3.9ZM-20.813,65.751,26.9,76.924l14.019,46.554,10.56,10.436-63.905-15.1-19.116-63.26ZM89.255,11.55l-.213-.7L14.208-6.762,14.1-6.787-38.546,49.3l-.076.083,21.965,72.932.213.7,74.83,17.609.111.025,52.665-56,.076-.083Z" transform="translate(38.622 6.787)" fill="url(#linear-gradient)"/>
      </g>
    </g>
    <g id="Group_36" data-name="Group 36" transform="translate(960 522.368)" clip-path="url(#clip-path-3)">
      <g id="Group_24" data-name="Group 24" transform="translate(89.818 76.786)">
        <path id="Path_31" data-name="Path 31" d="M1.569.891-.72.354l.181-.763L1.747.128Zm3.816.9L3.1,1.251,3.274.488l2.289.541Zm3.816.9L6.911,2.147l.178-.76,2.289.537Zm3.812.9-2.286-.541.178-.763,2.289.541Zm3.816.9-2.289-.541.181-.76,2.289.537Zm3.816.9-2.289-.541.178-.763,2.289.541Zm3.816.9L22.17,5.74l.178-.76,2.289.537Zm3.812.9L25.986,6.64l.178-.763,2.289.541Zm3.816.9L29.8,7.537l.181-.76,2.289.537Zm3.816.9-2.289-.541.181-.763,2.286.541Zm3.816.9L37.43,9.337l.178-.763,2.289.537Zm3.816.9-2.289-.541.178-.763,2.289.541Zm3.812.9-2.289-.537.181-.763,2.289.537Zm3.816.9-2.289-.541.181-.763,2.289.541Z" transform="translate(0.72 0.409)" fill="url(#linear-gradient)"/>
      </g>
      <g id="Group_25" data-name="Group 25" transform="translate(102.394 42.918)">
        <path id="Path_32" data-name="Path 32" d="M12.912,1.691l-.763-.181.544-2.286.763.178Zm-.9,3.812-.763-.178.541-2.289.763.181Zm-.9,3.816-.763-.181.541-2.289.763.181ZM10.2,13.132l-.76-.181.541-2.286.763.181Zm-.9,3.812-.763-.178.544-2.289.763.181Zm-.9,3.816-.763-.181.544-2.289.76.181Zm-.9,3.812-.763-.178L7.272,22.1l.76.181Zm-.9,3.816-.763-.181.541-2.289.763.181ZM5.682,32.2l-.76-.181.541-2.286.763.178Zm-.9,3.812-.76-.178.541-2.289.763.181Zm-.9,3.816-.763-.181.544-2.289.76.181Zm-.9,3.812L2.21,43.46l.544-2.286.76.181Zm-.9,3.816-.763-.181.541-2.289.763.181Zm-.906,3.812L.4,51.088.944,48.8l.763.178Zm-.9,3.812L-.5,54.9l.544-2.289L.8,52.8Zm-.9,3.816-.763-.181.544-2.289.763.181Zm-.9,3.812-.763-.181.544-2.286.76.181Zm-.9,3.812-.763-.178.541-2.289.763.181Zm-.9,3.816-.763-.181.541-2.289.763.181Zm-.906,3.812-.763-.181.544-2.286.763.181Zm-.9,3.816-.763-.181.544-2.289.763.181Z" transform="translate(5.924 0.776)" fill="url(#linear-gradient)"/>
      </g>
      <g id="Group_26" data-name="Group 26" transform="translate(110.231 54.392)">
        <path id="Path_33" data-name="Path 33" d="M1.123,1.53-.515-.158.048-.7,1.685.983ZM3.851,4.341,2.213,2.656l.563-.547L4.413,3.8ZM6.582,7.155,4.945,5.467l.563-.544L7.142,6.611ZM9.31,9.969,7.673,8.281l.563-.547L9.873,9.422Zm2.728,2.814L10.4,11.095l.563-.547L12.6,12.236ZM14.767,15.6l-1.638-1.688.563-.547,1.638,1.688Zm2.728,2.814-1.638-1.692.563-.544,1.638,1.688Zm2.728,2.811-1.634-1.688.56-.544,1.638,1.688Zm2.731,2.814-1.638-1.688.563-.544,1.638,1.685Zm2.728,2.814-1.638-1.688.563-.547L26.245,26.3Zm2.728,2.811-1.638-1.688.563-.544,1.638,1.688Zm2.728,2.814L29.5,30.786l.563-.544L31.7,31.928Z" transform="translate(0.515 0.702)" fill="url(#linear-gradient)"/>
      </g>
      <g id="Group_27" data-name="Group 27" transform="translate(98.397 90.984)">
        <path id="Path_34" data-name="Path 34" d="M28.092,1.038,27.834.3l2.223-.773.258.741Zm-3.7,1.285-.258-.741L26.352.812l.258.741Zm-3.7,1.288-.254-.741L22.651,2.1l.258.741ZM16.985,4.9l-.258-.744,2.223-.769.258.741Zm-3.7,1.285-.258-.741,2.223-.773.254.744ZM9.58,7.47l-.254-.744,2.219-.769L11.8,6.7Zm-3.7,1.285-.258-.741,2.223-.769.258.741Zm-3.7,1.288L1.92,9.3l2.223-.773L4.4,9.27Zm-3.7,1.288-.258-.744L.438,9.817l.258.741Zm-3.7,1.285-.258-.741,2.223-.773.258.741Zm-3.7,1.288-.258-.744,2.223-.769.258.741Zm-3.7,1.285-.258-.741,2.219-.769.258.741Z" transform="translate(12.888 0.476)" fill="url(#linear-gradient)"/>
      </g>
      <g id="Group_28" data-name="Group 28" transform="translate(54.901 8.168)">
        <path id="Path_35" data-name="Path 35" d="M10.545,33.456l.674,2.251-.75.226-.674-2.251ZM9.42,29.7l.674,2.254-.75.223-.674-2.251ZM8.294,25.949,8.968,28.2l-.75.226-.674-2.254ZM7.168,22.193l.674,2.251-.75.226-.674-2.251ZM6.043,18.438l.677,2.254-.754.223-.674-2.251ZM4.917,14.686l.677,2.251-.75.226-.677-2.254ZM3.792,10.931l.677,2.251-.75.226-.677-2.251ZM2.666,7.176,3.343,9.43l-.75.223L1.916,7.4ZM1.54,3.424l.677,2.251-.75.226L.79,3.646ZM.415-.331,1.092,1.92l-.75.226L-.336-.106ZM-.711-4.087l.677,2.254-.75.223-.677-2.251ZM-1.836-7.839l.677,2.251-.75.226-.677-2.254Zm-1.126-3.755.677,2.251-.75.226-.677-2.251Zm-1.126-3.755.677,2.254-.75.223-.677-2.251Z" transform="translate(4.838 15.349)" fill="url(#linear-gradient)"/>
      </g>
      <g id="Group_29" data-name="Group 29" transform="translate(25.158 25.652)">
        <path id="Path_36" data-name="Path 36" d="M1.545,15.358l.223.75-2.251.671-.226-.75ZM5.3,14.239l.226.75-2.254.671-.226-.75Zm3.755-1.122.226.754-2.254.671L6.8,13.787ZM12.811,12l.226.75-2.254.671-.223-.75Zm3.758-1.119.223.75-2.254.671-.223-.75Zm3.755-1.122.223.75-2.254.674-.223-.75ZM24.08,8.636l.226.75-2.254.674-.226-.754Zm3.755-1.119.226.75-2.254.671-.226-.75ZM31.59,6.394l.226.754-2.254.671-.223-.75Zm3.758-1.119.223.75L33.317,6.7l-.223-.75ZM39.1,4.156l.223.75-2.254.671-.223-.75Zm3.755-1.122.223.75-2.251.674-.226-.75Zm3.755-1.119.223.75-2.251.674-.226-.754ZM50.369.8l.226.75-2.254.671-.226-.75ZM54.125-.327l.226.754L52.1,1.1l-.223-.75Zm3.758-1.119.223.75-2.254.674-.223-.75Zm3.755-1.119.223.75-2.254.671-.223-.75Zm3.755-1.119.223.75-2.251.671-.226-.75Zm3.755-1.122.223.75-2.251.674-.226-.75ZM72.9-5.927l.226.75L70.875-4.5l-.223-.754Zm3.755-1.119.226.75-2.254.671-.223-.75Z" transform="translate(0.709 7.046)" fill="url(#linear-gradient)"/>
      </g>
      <g id="Group_30" data-name="Group 30" transform="translate(40.423 8.89)">
        <path id="Path_37" data-name="Path 37" d="M.959,28.565.314,30.825l-.754-.213.645-2.264ZM2.034,24.8l-.645,2.261-.754-.216.645-2.261Zm1.075-3.768L2.466,23.29l-.754-.216.645-2.261Zm1.078-3.768-.645,2.258-.754-.213.645-2.261ZM5.261,13.49l-.645,2.261-.754-.213.645-2.264ZM6.339,9.722l-.645,2.261-.754-.216.645-2.261ZM7.414,5.954,6.768,8.215,6.015,8,6.66,5.738ZM8.492,2.183,7.843,4.447l-.75-.216L7.738,1.97ZM9.566-1.585,8.921.676,8.167.459,8.813-1.8Zm1.075-3.768L10-3.092l-.754-.213.645-2.264Zm1.078-3.768L11.074-6.86l-.754-.216.645-2.261Zm1.075-3.768-.645,2.261-.754-.216L12.04-13.1Z" transform="translate(0.44 13.105)" fill="url(#linear-gradient)"/>
      </g>
      <g id="Group_31" data-name="Group 31" transform="translate(56.889 7.28)">
        <path id="Path_38" data-name="Path 38" d="M1.572,1.055l-.515.591L-.721.107l.515-.591ZM4.535,3.621l-.515.595L2.242,2.673l.515-.591ZM7.5,6.187l-.512.591L5.206,5.239l.512-.591Zm2.963,2.566-.515.591L8.166,7.805l.515-.591Zm2.963,2.566-.515.591L11.13,10.371l.515-.591Zm2.96,2.566-.512.595-1.777-1.542.512-.591Zm2.963,2.566-.515.595L17.053,15.5l.515-.591Zm2.963,2.566-.515.591-1.777-1.539.515-.591Zm2.96,2.566-.512.591L22.98,20.635l.512-.591Zm2.963,2.566-.515.591L25.941,23.2l.515-.591ZM31.2,26.715l-.515.595L28.9,25.767l.515-.591Zm2.96,2.566-.512.595-1.777-1.542.512-.591Z" transform="translate(0.721 0.484)" fill="url(#linear-gradient)"/>
      </g>
      <g id="Group_32" data-name="Group 32" transform="translate(27.945 84.5)">
        <path id="Path_39" data-name="Path 39" d="M23.87,1.177,25.475-.54l.572.534-1.606,1.72ZM21.192,4.039,22.8,2.322l.572.537L21.762,4.573ZM18.512,6.9l1.609-1.717.569.534L19.084,7.435ZM15.835,9.759,17.44,8.045l.572.534L16.407,10.3Zm-2.677,2.865,1.606-1.717.572.534-1.609,1.717Zm-2.68,2.859,1.609-1.717.569.537L11.049,16.02ZM7.8,18.344l1.606-1.717.572.537L8.372,18.881Zm-2.68,2.862,1.609-1.717.572.534L5.691,21.74ZM2.442,24.068,4.051,22.35l.569.534L3.014,24.6ZM-.235,26.929,1.37,25.212l.572.534L.337,27.463Zm-2.677,2.862,1.606-1.717.572.534-1.609,1.717Zm-2.68,2.859,1.606-1.717.572.537-1.606,1.717Zm-2.677,2.862,1.606-1.717.572.537L-7.7,36.049Zm-2.68,2.862,1.609-1.717.569.534-1.606,1.717Z" transform="translate(10.951 0.54)" fill="url(#linear-gradient)"/>
      </g>
      <g id="Group_33" data-name="Group 33" transform="translate(19.477 73.534)">
        <path id="Path_40" data-name="Path 40" d="M39.175,37.168l.537-.569,1.714,1.609-.537.569Zm-2.859-2.684.537-.569,1.714,1.609-.534.572ZM33.461,31.8,34,31.231l1.717,1.609-.537.572ZM30.6,29.123l.537-.572,1.714,1.609-.537.569ZM27.744,26.44l.537-.572L30,27.476l-.534.572Zm-2.855-2.684.534-.572L27.14,24.8l-.537.569Zm-2.859-2.68.537-.572,1.714,1.609-.537.572Zm-2.859-2.684.537-.572,1.714,1.609L20.889,20Zm-2.855-2.684.534-.569,1.717,1.609-.537.569Zm-2.859-2.68L14,12.455l1.714,1.609-.537.572ZM10.6,10.344l.537-.572,1.714,1.612-.534.569ZM7.744,7.66l.534-.569L9.992,8.7l-.534.569ZM4.886,4.98l.537-.572L7.137,6.017,6.6,6.589ZM2.027,2.3l.537-.572L4.278,3.336l-.537.572ZM-.828-.384l.534-.572L1.42.652l-.534.572ZM-3.687-3.068l.537-.572,1.714,1.609-.537.572ZM-6.545-5.751l.537-.569,1.714,1.609-.537.572ZM-9.4-8.432-8.866-9-7.153-7.4l-.534.572Zm-2.859-2.684.537-.569,1.714,1.609-.537.569Zm-2.859-2.68.537-.572,1.714,1.609-.534.572Zm-2.855-2.684.534-.572,1.714,1.609-.534.572Z" transform="translate(17.973 17.052)" fill="url(#linear-gradient)"/>
      </g>
      <g id="Group_34" data-name="Group 34" transform="translate(29.759 113.462)">
        <path id="Path_41" data-name="Path 41" d="M28.641.4l2.28-.579.194.76-2.28.579Zm-3.8.967L27.121.785l.194.76-2.28.579Zm-3.8.967,2.28-.582.191.76-2.277.582Zm-3.8.967,2.277-.582.194.76-2.28.579Zm-3.8.967,2.28-.582.191.76-2.277.579Zm-3.8.963,2.28-.579.194.76-2.28.579Zm-3.8.967,2.277-.579.194.757-2.28.582Zm-3.8.967,2.28-.579.191.757L2.246,7.92Zm-3.8.963L.533,7.545l.194.76-2.28.579Zm-3.8.967,2.28-.579.194.76-2.28.579Zm-3.8.967,2.277-.579.194.76-2.28.579Zm-3.8.967,2.28-.582.191.76-2.277.579Z" transform="translate(13.14 0.182)" fill="url(#linear-gradient)"/>
      </g>
      <g id="Group_35" data-name="Group 35" transform="translate(26.298 77.673)">
        <path id="Path_42" data-name="Path 42" d="M.3,29.04l.769.146L.632,31.5l-.769-.146Zm.728-3.851.769.146-.436,2.308L.588,27.5Zm.728-3.851.769.146-.436,2.308-.773-.143Zm.728-3.851.769.146-.436,2.308L2.044,19.8Zm.725-3.854.773.149-.439,2.308-.769-.146Zm.728-3.851.773.146L4.27,12.242,3.5,12.1Zm.728-3.851.769.146L5,8.391l-.769-.146Zm.728-3.851.769.146L5.726,4.54l-.773-.146Zm.725-3.851.773.146L6.454.687,5.682.544Zm.728-3.851.773.143L7.183-3.164,6.41-3.31Zm.728-3.851.773.143L7.908-7.015l-.769-.146ZM8.3-13.323l.769.146-.436,2.312-.773-.146Z" transform="translate(0.137 13.323)" fill="url(#linear-gradient)"/>
      </g>
    </g>
  </g>
</svg>
