<svg xmlns="http://www.w3.org/2000/svg" width="15.117" height="18.291" viewBox="0 0 15.117 18.291"><defs><style>.a{fill:#bfad71;stroke:#bfad71;stroke-width:0.5px;}</style></defs><g transform="translate(-3.744 -1.75)"><path class="a" d="M18.612,2.635v16.52a.635.635,0,0,1-.635.635H5.269a.635.635,0,0,1-.635-.635V17.884H5.9v.635H17.341V3.271H5.9V5.177H4.633V2.635A.635.635,0,0,1,5.269,2H17.976A.635.635,0,0,1,18.612,2.635ZM8.261,13.621l-2.1-2.09h6.729V10.26H6.165l2.1-2.09-.9-.9L4.182,10.444a.635.635,0,0,0,0,.9l3.177,3.177Z"/></g></svg>