<svg viewBox="0 0 128 40" fill="none" xmlns="http://www.w3.org/2000/svg">
<path d="M32.3725 6.36365L2.67029e-05 6.36365L6.3946 1.14441e-05L38.7671 1.14441e-05L32.3725 6.36365Z" fill="#3EE7CD"/>
<path d="M18.5792 39.9569C26.5332 39.9569 28.5331 36.807 28.5331 32.4921C28.5331 27.1848 23.6698 26.1923 19.6246 25.5451C16.5339 25.0273 15.1249 24.7684 15.1249 22.913C15.1249 21.5323 16.3521 21.0145 18.352 21.0145C20.8064 21.0145 21.4881 21.7049 21.7154 23.7329L28.1695 22.7836C27.624 18.4255 25.1242 16.2249 18.5338 16.2249C11.307 16.2249 8.76176 19.0728 8.76176 23.6034C8.71631 29.4717 14.3523 30.0758 18.5338 30.7661C21.1245 31.2408 22.1244 31.6723 22.1244 33.3551C22.1244 34.7358 21.2609 35.3399 18.6701 35.3399C15.8067 35.3399 14.9431 34.8653 14.5795 32.5784L8.30725 33.4845C8.89812 38.1015 11.6706 39.9569 18.5792 39.9569Z" fill="#21125E"/>
<path d="M38.581 39.9569C42.1262 39.9569 43.717 38.835 44.8533 37.1953V39.6548H51.2619V24.0349C51.2619 18.8139 49.2166 16.1818 42.1262 16.1818C35.2631 16.1818 32.8541 18.0803 31.8997 22.7404L38.2628 23.6897C38.6719 21.7049 39.2628 21.1008 41.8989 21.1008C44.4442 21.1008 44.8533 22.1363 44.8533 23.8623V25.4588H41.8535C33.7177 25.4588 30.9452 27.8752 30.9452 32.7941C30.9452 37.6268 33.445 39.9569 38.581 39.9569ZM41.399 35.2105C38.3537 35.2105 37.2629 34.5632 37.2629 32.4058C37.2629 30.4641 38.3538 29.6874 41.6262 29.6874H44.8987V31.9312C44.8987 34.0886 43.8079 35.2105 41.399 35.2105Z" fill="#21125E"/>
<path d="M56.0563 39.6548H62.6013V6.36365L56.0563 12.7273V39.6548Z" fill="#21125E"/>
<path d="M76.8613 40C84.4062 40 86.4061 36.5481 86.8606 33.0962L80.6338 32.1901C80.361 34.2612 79.952 35.3399 76.8613 35.3399C73.7252 35.3399 73.0434 33.8297 73.0434 31.8449V29.9463H86.8606V25.804C86.8606 20.022 84.5426 16.1818 76.8613 16.1818C69.2709 16.1818 66.6802 20.0652 66.6802 24.9842V31.1976C66.6802 35.9872 69.3164 40 76.8613 40ZM73.0434 25.5883V24.4232C73.0434 22.3952 73.9979 21.0145 76.8613 21.0145C79.6338 21.0145 80.5428 22.1795 80.5428 24.4232V25.5883H73.0434Z" fill="#21125E"/>
<path d="M100.26 34.9947C97.624 34.9947 96.3059 33.6571 96.3059 31.4997V24.8547C96.3059 22.6541 97.624 21.3165 100.26 21.3165C102.896 21.3165 104.305 22.6541 104.305 24.8547V31.4997C104.305 33.6571 102.896 34.9947 100.26 34.9947ZM100.26 40C107.76 40 110.85 36.2461 110.85 31.1976V24.9842C110.85 19.8494 107.76 16.1818 100.26 16.1818C92.7607 16.1818 89.7609 19.8494 89.7609 24.9842V31.1976C89.7609 36.2461 92.7153 40 100.26 40Z" fill="#21125E"/>
<path d="M114.728 39.6548H121.273V24.7684C121.273 22.4384 123.955 21.4891 127.091 21.4891H128V16.2681H127.091C124.5 16.3112 122.591 17.4331 121.273 19.3317V16.527H114.728V39.6548Z" fill="#21125E"/>
</svg>
