<svg id="svg" version="1.1" xmlns="http://www.w3.org/2000/svg" xmlns:xlink="http://www.w3.org/1999/xlink" width="400" height="142.69944806823884" viewBox="0, 0, 400,142.69944806823884" fill="#FF6A00"><g id="svgg"><path id="path0" d="M66.167 0.772 C 24.617 3.679,-5.633 42.572,1.693 83.666 C 9.169 125.601,51.631 151.481,92.305 138.894 C 129.684 127.327,150.585 87.493,138.861 50.167 C 129.032 18.874,99.009 -1.526,66.167 0.772 M80.000 8.312 C 82.702 8.732,82.616 8.715,85.750 9.445 C 94.876 11.570,103.328 15.693,111.000 21.762 C 113.139 23.453,119.500 29.613,119.500 29.993 C 119.500 30.112,114.570 30.167,103.743 30.167 C 84.095 30.167,86.754 29.749,77.250 34.332 C 69.511 38.065,70.666 37.748,68.532 36.728 C 61.051 33.155,56.149 31.058,54.250 30.619 C 52.801 30.284,52.235 30.270,37.708 30.210 C 29.270 30.176,22.667 30.085,22.667 30.003 C 22.667 29.723,28.165 24.238,29.867 22.820 C 33.929 19.437,37.709 16.935,42.167 14.683 C 49.735 10.859,56.108 9.003,65.333 7.937 C 67.313 7.708,77.851 7.978,80.000 8.312 M55.083 37.977 C 56.551 38.451,58.930 39.440,61.067 40.465 L 62.718 41.257 61.401 41.868 C 54.265 45.179,52.416 45.836,49.311 46.163 C 48.390 46.260,40.530 46.329,30.129 46.330 L 12.508 46.333 12.681 45.875 C 13.027 44.959,15.118 40.877,16.050 39.295 L 17.007 37.673 20.462 37.621 C 22.362 37.592,30.667 37.576,38.917 37.585 L 53.917 37.601 55.083 37.977 M126.279 39.622 C 127.692 42.018,129.833 46.351,129.833 46.813 C 129.833 46.870,120.572 46.893,109.253 46.863 C 84.512 46.799,87.074 46.537,80.250 49.837 C 62.201 58.566,55.164 61.769,52.811 62.328 C 50.174 62.955,48.711 62.994,28.070 62.997 L 7.890 63.000 8.103 61.708 C 8.413 59.818,9.120 56.413,9.459 55.167 L 9.755 54.083 30.252 53.983 C 50.964 53.882,51.399 53.868,55.060 53.238 C 57.119 52.883,58.544 52.262,69.750 46.833 C 71.308 46.078,73.258 45.141,74.083 44.751 C 74.908 44.360,76.671 43.517,78.000 42.877 C 83.141 40.402,85.775 39.261,87.178 38.899 C 89.150 38.391,89.843 38.374,107.742 38.395 L 125.568 38.417 126.279 39.622 M245.815 38.737 C 245.779 38.771,245.450 38.848,245.083 38.908 C 244.147 39.063,243.962 39.104,243.583 39.241 C 242.629 39.586,241.903 39.926,241.794 40.079 C 241.727 40.173,241.671 40.189,241.669 40.114 C 241.662 39.753,239.167 41.893,239.167 42.259 C 239.167 42.363,239.026 42.576,238.853 42.732 C 238.551 43.005,237.989 44.639,237.901 45.500 C 237.878 45.729,237.783 46.367,237.690 46.917 C 237.519 47.928,237.525 62.521,237.697 63.333 C 237.745 63.563,237.836 64.162,237.898 64.667 C 238.048 65.871,238.533 67.833,238.681 67.833 C 238.745 67.833,238.840 68.004,238.892 68.213 C 238.999 68.638,240.540 70.333,240.820 70.333 C 240.919 70.333,241.000 70.391,241.000 70.461 C 241.000 70.634,243.466 71.672,244.208 71.810 C 244.277 71.823,244.352 71.837,244.375 71.842 C 245.707 72.133,249.464 72.081,249.976 71.765 C 250.059 71.713,250.418 71.625,250.772 71.569 C 251.127 71.513,251.454 71.418,251.500 71.358 C 251.546 71.299,251.696 71.225,251.833 71.195 C 251.971 71.165,252.202 71.034,252.346 70.904 C 252.491 70.773,252.702 70.667,252.815 70.667 C 252.927 70.667,252.974 70.593,252.918 70.502 C 252.862 70.411,252.917 70.376,253.040 70.423 C 253.302 70.524,254.333 69.655,254.333 69.332 C 254.333 69.211,254.380 69.158,254.437 69.214 C 254.682 69.460,255.866 67.678,256.129 66.666 C 256.306 65.984,256.369 65.631,256.588 64.083 C 256.627 63.808,256.665 62.434,256.673 61.030 L 256.687 58.477 252.636 58.484 C 250.409 58.488,248.571 58.550,248.553 58.621 C 248.534 58.692,248.484 60.250,248.442 62.083 C 248.341 66.398,248.361 66.324,247.287 66.364 C 245.841 66.418,245.829 66.319,245.882 55.142 C 245.926 45.648,245.950 45.182,246.415 44.669 C 246.648 44.411,246.860 44.383,247.875 44.474 C 248.047 44.489,248.167 44.637,248.167 44.833 C 248.167 45.017,248.231 45.167,248.309 45.167 C 248.463 45.167,248.462 45.123,248.485 50.125 L 248.500 53.500 252.490 53.500 C 254.685 53.500,256.519 53.437,256.567 53.360 C 256.673 53.188,256.698 47.108,256.595 46.417 C 256.554 46.142,256.479 45.692,256.427 45.417 C 256.375 45.142,256.289 44.656,256.235 44.336 C 256.181 44.017,256.053 43.605,255.950 43.420 C 255.847 43.235,255.778 43.027,255.798 42.958 C 255.817 42.890,255.775 42.833,255.703 42.833 C 255.631 42.833,255.434 42.600,255.265 42.314 C 254.938 41.761,253.716 40.583,253.469 40.583 C 253.388 40.583,253.265 40.493,253.197 40.382 C 253.033 40.116,251.372 39.387,250.603 39.243 C 250.269 39.180,249.961 39.071,249.917 39.000 C 249.873 38.930,248.998 38.860,247.973 38.844 C 246.947 38.829,246.057 38.785,245.994 38.746 C 245.931 38.707,245.851 38.703,245.815 38.737 M303.444 38.777 C 303.429 38.791,303.079 38.841,302.667 38.887 C 302.254 38.934,301.692 39.058,301.417 39.164 C 301.142 39.270,300.899 39.354,300.877 39.350 C 300.615 39.303,298.833 40.193,298.833 40.372 C 298.833 40.442,298.724 40.500,298.591 40.500 C 298.132 40.500,296.687 42.300,296.584 43.000 C 296.577 43.046,296.464 43.271,296.333 43.500 C 295.947 44.175,295.996 51.051,296.390 51.445 C 296.450 51.506,296.500 51.731,296.500 51.944 C 296.500 52.158,296.575 52.333,296.667 52.333 C 296.758 52.333,296.833 52.450,296.833 52.593 C 296.833 52.747,296.912 52.805,297.026 52.734 C 297.147 52.659,297.173 52.689,297.095 52.815 C 296.869 53.181,297.926 54.462,299.250 55.424 C 299.617 55.691,300.137 56.117,300.407 56.371 C 300.676 56.625,300.991 56.833,301.107 56.833 C 301.222 56.833,301.377 56.927,301.450 57.042 C 301.523 57.156,301.846 57.394,302.167 57.571 C 302.487 57.747,302.915 58.066,303.117 58.279 C 303.319 58.492,303.592 58.667,303.724 58.667 C 303.856 58.667,304.008 58.780,304.061 58.918 C 304.114 59.057,304.216 59.150,304.287 59.127 C 304.358 59.103,304.672 59.328,304.985 59.627 C 305.297 59.925,305.592 60.130,305.640 60.082 C 305.750 59.972,306.194 60.944,306.286 61.496 C 306.324 61.723,306.411 61.985,306.480 62.079 C 307.076 62.896,306.518 65.874,305.695 66.265 C 305.088 66.553,303.839 66.228,304.077 65.843 C 304.129 65.759,304.109 65.651,304.033 65.604 C 303.956 65.556,303.875 64.258,303.851 62.719 C 303.822 60.801,303.747 59.881,303.613 59.793 C 303.505 59.723,301.779 59.671,299.778 59.678 L 296.138 59.690 296.215 62.387 C 296.290 65.059,296.420 66.408,296.634 66.743 C 296.695 66.838,296.752 66.954,296.761 67.000 C 296.881 67.621,297.115 68.179,297.436 68.610 C 298.033 69.412,298.936 70.333,299.126 70.333 C 299.394 70.333,300.171 70.773,300.074 70.871 C 299.965 70.980,301.153 71.463,301.820 71.581 C 302.093 71.629,302.514 71.744,302.755 71.835 C 302.997 71.927,303.258 71.963,303.336 71.915 C 303.413 71.867,303.512 71.885,303.556 71.956 C 303.686 72.166,306.617 72.216,306.744 72.010 C 306.806 71.910,306.919 71.867,306.997 71.915 C 307.074 71.962,307.650 71.883,308.277 71.739 C 308.904 71.594,309.623 71.435,309.875 71.386 C 310.127 71.336,310.333 71.237,310.333 71.166 C 310.333 71.095,310.625 70.919,310.982 70.777 C 311.339 70.634,311.838 70.326,312.090 70.092 C 312.342 69.858,312.603 69.667,312.669 69.667 C 312.816 69.667,313.734 68.315,313.744 68.083 C 313.748 67.992,313.863 67.729,314.000 67.500 C 314.455 66.738,314.311 58.411,313.835 57.935 C 313.742 57.842,313.667 57.632,313.667 57.467 C 313.667 57.302,313.600 57.167,313.518 57.167 C 313.436 57.167,313.320 56.968,313.259 56.726 C 313.141 56.257,311.140 54.165,310.167 53.494 C 309.846 53.273,309.508 53.034,309.417 52.962 C 309.325 52.890,308.762 52.521,308.167 52.141 C 304.945 50.086,304.047 49.341,303.940 48.633 C 303.922 48.514,303.853 48.329,303.786 48.222 C 303.689 48.067,303.728 46.597,303.870 45.042 C 303.880 44.927,303.964 44.833,304.056 44.833 C 304.148 44.833,304.356 44.714,304.517 44.568 C 304.803 44.310,305.815 44.363,305.846 44.638 C 305.853 44.700,305.894 44.900,305.937 45.083 C 306.051 45.567,306.101 46.239,306.136 47.792 L 306.167 49.167 310.013 49.167 L 313.859 49.167 313.763 47.042 C 313.570 42.799,313.035 41.430,311.167 40.404 C 310.846 40.228,310.546 40.041,310.500 39.989 C 310.394 39.868,309.023 39.323,308.583 39.228 C 307.367 38.962,306.389 38.845,305.028 38.801 C 304.172 38.773,303.460 38.762,303.444 38.777 M153.833 42.750 L 153.833 46.000 156.167 46.000 L 158.500 46.000 158.503 58.542 C 158.504 65.440,158.560 71.158,158.628 71.250 C 158.703 71.353,160.262 71.417,162.708 71.417 L 166.667 71.417 166.667 58.713 L 166.667 46.009 169.042 45.963 L 171.417 45.917 171.462 42.708 L 171.507 39.500 162.670 39.500 L 153.833 39.500 153.833 42.750 M181.000 55.333 C 181.000 64.042,181.000 71.207,181.000 71.256 C 181.000 71.306,182.819 71.346,185.042 71.346 L 189.083 71.346 189.127 64.665 L 189.170 57.984 190.210 58.034 L 191.250 58.083 191.294 64.703 L 191.337 71.322 195.419 71.369 L 199.500 71.417 199.500 55.458 L 199.500 39.500 195.417 39.500 L 191.333 39.500 191.334 45.125 L 191.334 50.750 190.250 50.694 L 189.167 50.638 189.167 45.069 L 189.167 39.500 185.083 39.500 L 181.000 39.500 181.000 55.333 M212.487 39.956 C 212.480 40.209,212.452 40.529,212.426 40.667 C 212.362 40.992,212.163 42.422,212.077 43.167 C 211.964 44.152,211.850 45.032,211.678 46.250 C 211.587 46.892,211.463 47.942,211.402 48.583 C 211.342 49.225,211.259 49.900,211.219 50.083 C 211.089 50.685,210.805 52.735,210.746 53.500 C 210.715 53.913,210.678 54.250,210.665 54.250 C 210.611 54.250,210.529 54.864,210.419 56.103 C 210.268 57.793,210.254 57.890,210.131 58.090 C 210.037 58.241,209.850 59.808,209.743 61.333 C 209.721 61.654,209.661 62.029,209.611 62.167 C 209.561 62.304,209.483 62.998,209.436 63.709 C 209.390 64.420,209.302 65.082,209.242 65.180 C 209.096 65.416,208.949 66.686,208.932 67.860 C 208.924 68.378,208.862 68.767,208.792 68.725 C 208.723 68.682,208.664 68.858,208.660 69.115 C 208.656 69.373,208.613 69.996,208.564 70.500 L 208.476 71.417 212.696 71.378 L 216.917 71.339 216.944 70.795 C 216.959 70.495,216.986 70.212,217.004 70.167 C 217.022 70.121,217.060 69.783,217.089 69.417 C 217.117 69.050,217.186 68.412,217.241 68.000 C 217.296 67.587,217.386 66.894,217.442 66.458 L 217.542 65.667 218.855 65.667 L 220.167 65.667 220.186 66.458 C 220.196 66.894,220.233 67.475,220.267 67.750 C 220.301 68.025,220.360 68.813,220.398 69.500 C 220.437 70.188,220.475 70.879,220.484 71.036 C 220.499 71.297,220.867 71.326,224.683 71.369 L 228.866 71.417 228.758 70.142 C 228.699 69.441,228.619 68.691,228.581 68.475 C 228.543 68.260,228.468 67.783,228.416 67.417 C 228.364 67.050,228.286 66.563,228.243 66.333 C 228.110 65.629,228.023 64.997,227.756 62.801 C 227.615 61.637,227.429 60.501,227.343 60.276 C 227.258 60.052,227.227 59.829,227.274 59.781 C 227.322 59.734,227.242 59.107,227.096 58.389 C 226.951 57.671,226.800 56.783,226.760 56.417 C 226.577 54.702,226.465 53.867,226.337 53.283 C 226.260 52.934,226.218 52.467,226.242 52.246 C 226.267 52.024,226.234 51.875,226.170 51.915 C 226.106 51.954,226.041 51.643,226.025 51.224 C 226.009 50.805,225.964 50.410,225.925 50.346 C 225.854 50.232,225.776 49.656,225.576 47.752 C 225.518 47.203,225.434 46.694,225.388 46.621 C 225.343 46.547,225.306 46.134,225.306 45.702 C 225.306 45.270,225.245 44.842,225.170 44.750 C 225.096 44.658,224.994 44.246,224.945 43.833 C 224.896 43.421,224.799 42.596,224.730 42.000 C 224.609 40.959,224.587 40.818,224.504 40.542 C 224.484 40.473,224.456 40.229,224.442 40.000 L 224.417 39.583 218.458 39.540 L 212.500 39.496 212.487 39.956 M267.278 39.611 C 267.217 39.672,267.167 46.835,267.167 55.528 L 267.167 71.333 271.167 71.333 C 273.367 71.333,275.207 71.352,275.257 71.375 C 275.307 71.398,275.343 68.398,275.337 64.708 L 275.326 58.000 276.411 58.000 L 277.496 58.000 277.540 64.625 L 277.583 71.250 281.709 71.333 L 285.835 71.417 285.793 55.500 L 285.750 39.583 281.625 39.539 L 277.500 39.494 277.500 45.080 L 277.500 50.667 276.412 50.667 L 275.325 50.667 275.371 45.083 L 275.417 39.500 271.403 39.500 C 269.195 39.500,267.339 39.550,267.278 39.611 M326.894 39.750 C 326.946 39.887,326.927 40.000,326.850 40.000 C 326.727 40.000,326.270 43.213,326.269 44.083 C 326.269 44.267,326.218 44.454,326.156 44.500 C 326.094 44.546,325.995 45.033,325.937 45.583 C 325.878 46.133,325.795 46.883,325.751 47.250 C 325.707 47.617,325.596 48.554,325.504 49.333 C 325.412 50.112,325.293 51.087,325.239 51.500 C 325.185 51.913,325.128 52.456,325.112 52.708 C 325.096 52.960,325.035 53.167,324.976 53.167 C 324.917 53.167,324.872 53.335,324.876 53.542 C 324.881 53.748,324.801 54.554,324.700 55.333 C 324.598 56.112,324.473 57.266,324.421 57.896 C 324.369 58.527,324.287 59.106,324.239 59.185 C 324.190 59.263,324.117 59.647,324.077 60.039 C 323.980 60.964,323.886 61.758,323.776 62.583 C 323.726 62.950,323.644 63.625,323.592 64.083 C 323.464 65.213,323.327 66.298,323.223 67.000 C 323.176 67.321,323.121 67.811,323.101 68.088 C 323.081 68.366,323.003 68.693,322.928 68.815 C 322.846 68.948,322.874 69.089,322.998 69.165 C 323.111 69.235,323.132 69.321,323.044 69.355 C 322.956 69.389,322.840 69.848,322.787 70.375 L 322.691 71.333 326.762 71.333 C 329.001 71.333,330.888 71.352,330.956 71.375 C 331.114 71.429,331.352 70.310,331.406 69.250 C 331.474 67.942,331.688 65.934,331.774 65.794 C 332.034 65.373,334.333 65.669,334.348 66.125 C 334.370 66.799,334.508 68.366,334.580 68.750 C 334.614 68.933,334.647 69.590,334.654 70.208 L 334.667 71.333 338.907 71.333 C 342.736 71.333,343.694 71.243,343.185 70.928 C 343.100 70.876,343.070 70.683,343.118 70.500 C 343.166 70.317,343.136 70.167,343.052 70.167 C 342.968 70.167,342.883 69.848,342.864 69.458 C 342.827 68.709,342.541 66.535,342.386 65.833 C 342.336 65.604,342.283 65.154,342.270 64.833 C 342.256 64.512,342.200 64.175,342.145 64.083 C 342.090 63.992,342.060 63.748,342.078 63.542 C 342.096 63.335,342.062 63.167,342.002 63.167 C 341.942 63.167,341.875 62.777,341.853 62.302 C 341.832 61.826,341.789 61.395,341.759 61.343 C 341.707 61.255,341.489 59.635,341.433 58.917 C 341.419 58.733,341.362 58.508,341.307 58.417 C 341.252 58.325,341.230 58.042,341.259 57.789 C 341.293 57.489,341.248 57.367,341.130 57.439 C 341.030 57.501,340.994 57.478,341.049 57.389 C 341.104 57.299,341.077 56.744,340.987 56.155 C 340.815 55.018,340.708 54.217,340.568 53.000 C 340.423 51.740,340.354 51.268,340.248 50.833 C 340.128 50.339,339.867 48.648,339.696 47.250 C 339.628 46.700,339.508 46.145,339.428 46.016 C 339.322 45.846,339.342 45.819,339.500 45.917 C 339.655 46.012,339.678 45.987,339.581 45.830 C 339.449 45.616,339.378 45.176,339.291 44.042 C 339.269 43.744,339.189 43.500,339.115 43.500 C 339.041 43.500,339.014 43.444,339.056 43.375 C 339.098 43.306,339.071 42.837,338.997 42.333 C 338.923 41.829,338.813 40.985,338.752 40.458 L 338.643 39.500 332.720 39.500 C 327.524 39.500,326.809 39.531,326.894 39.750 M352.167 55.417 L 352.167 71.340 355.625 71.295 L 359.083 71.250 359.170 64.917 C 359.217 61.433,359.282 58.733,359.314 58.917 C 359.347 59.100,359.364 59.306,359.353 59.375 C 359.342 59.444,359.396 59.500,359.472 59.500 C 359.549 59.500,359.620 59.594,359.631 59.708 C 359.678 60.200,360.388 62.924,360.489 63.000 C 360.550 63.046,360.745 63.702,360.922 64.458 C 361.100 65.215,361.310 65.833,361.390 65.833 C 361.470 65.833,361.492 65.946,361.440 66.083 C 361.387 66.221,361.412 66.333,361.495 66.333 C 361.578 66.333,361.648 66.465,361.651 66.625 C 361.662 67.221,361.876 68.000,362.029 68.000 C 362.115 68.000,362.145 68.067,362.094 68.149 C 362.044 68.231,362.222 68.962,362.489 69.774 L 362.976 71.250 366.530 71.250 L 370.083 71.250 370.126 55.375 L 370.168 39.500 366.668 39.500 L 363.167 39.500 363.147 45.958 C 363.137 49.510,363.094 52.285,363.052 52.125 C 363.010 51.965,362.919 51.833,362.849 51.833 C 362.779 51.833,362.722 51.730,362.722 51.605 C 362.722 51.395,362.330 50.035,361.731 48.167 C 361.460 47.321,361.354 46.933,361.232 46.339 C 361.185 46.112,361.058 45.819,360.948 45.688 C 360.839 45.556,360.759 45.404,360.770 45.349 C 360.782 45.295,360.770 45.175,360.745 45.083 C 360.673 44.825,359.488 40.997,359.248 40.250 L 359.034 39.583 355.600 39.538 L 352.167 39.493 352.167 55.417 M380.944 39.611 C 380.720 39.836,380.816 71.171,381.042 71.251 C 381.156 71.292,383.031 71.346,385.208 71.371 L 389.167 71.417 389.167 64.708 L 389.167 58.000 390.250 58.000 L 391.333 58.000 391.333 64.768 C 391.333 70.871,391.359 71.526,391.597 71.434 C 391.742 71.379,393.579 71.333,395.679 71.333 L 399.497 71.333 399.540 55.417 L 399.583 39.500 395.458 39.500 L 391.333 39.500 391.333 45.069 L 391.333 50.638 390.250 50.694 L 389.166 50.750 389.166 45.125 L 389.167 39.500 385.111 39.500 C 382.881 39.500,381.006 39.550,380.944 39.611 M218.909 50.084 C 218.964 50.909,219.042 51.808,219.081 52.083 C 219.120 52.358,219.198 53.146,219.256 53.833 C 219.313 54.521,219.392 55.383,219.430 55.750 C 219.469 56.117,219.537 56.867,219.583 57.417 C 219.747 59.400,219.772 59.599,219.870 59.756 C 219.931 59.855,219.481 59.896,218.693 59.864 C 217.349 59.808,217.085 59.554,217.451 58.667 C 217.507 58.529,217.569 57.995,217.587 57.480 C 217.605 56.964,217.659 56.477,217.707 56.396 C 217.754 56.316,217.844 55.612,217.906 54.833 C 217.969 54.054,218.086 52.935,218.168 52.346 C 218.250 51.756,218.282 51.218,218.239 51.149 C 218.196 51.080,218.243 50.973,218.342 50.911 C 218.441 50.850,218.484 50.697,218.436 50.572 C 218.359 50.372,218.676 48.454,218.770 48.548 C 218.791 48.569,218.853 49.260,218.909 50.084 M333.404 52.583 C 333.561 55.110,333.617 55.787,333.749 56.750 C 333.812 57.208,333.888 57.883,333.919 58.250 C 333.949 58.617,334.011 59.123,334.056 59.375 L 334.137 59.833 332.883 59.833 L 331.629 59.833 331.735 58.316 C 331.793 57.482,331.874 56.563,331.916 56.275 C 332.072 55.186,332.180 54.215,332.262 53.167 C 332.309 52.571,332.415 51.858,332.497 51.583 C 332.579 51.308,332.702 50.483,332.770 49.750 L 332.893 48.417 333.091 49.583 C 333.200 50.225,333.341 51.575,333.404 52.583 M132.765 55.458 C 132.822 55.710,132.976 56.299,133.106 56.765 C 133.458 58.033,134.175 62.184,134.071 62.353 C 134.020 62.437,125.053 62.500,113.302 62.500 C 89.151 62.500,89.215 62.495,84.784 64.570 C 84.124 64.879,82.871 65.468,82.000 65.878 C 81.129 66.288,79.750 66.938,78.934 67.322 C 78.119 67.705,76.821 68.318,76.049 68.683 C 75.278 69.047,73.620 69.823,72.365 70.406 C 71.110 70.989,69.183 71.894,68.083 72.418 C 66.983 72.942,65.071 73.842,63.833 74.417 C 56.173 77.976,55.626 78.327,53.706 80.917 C 51.146 84.369,51.167 84.129,51.167 110.590 L 51.167 131.860 50.625 131.741 C 49.471 131.488,45.486 129.819,42.583 128.372 C 26.131 120.171,14.139 105.378,9.436 87.481 C 8.166 82.646,7.668 79.204,7.551 74.458 L 7.458 70.667 27.520 70.662 C 57.771 70.656,54.620 71.128,68.083 64.581 C 69.917 63.690,72.167 62.604,73.083 62.168 C 74.000 61.732,75.774 60.883,77.025 60.282 C 78.276 59.681,79.813 58.950,80.441 58.657 C 81.069 58.364,81.958 57.943,82.417 57.721 C 88.377 54.835,86.329 55.026,111.455 55.012 L 132.660 55.000 132.765 55.458 M113.625 70.664 L 134.833 70.667 134.830 72.625 C 134.786 98.530,116.743 123.241,91.708 131.679 C 89.637 132.377,89.432 132.350,90.670 131.540 L 91.500 130.997 91.500 100.860 C 91.500 84.284,91.554 70.668,91.621 70.601 C 91.687 70.535,91.893 70.522,92.079 70.571 C 92.265 70.621,101.960 70.663,113.625 70.664 M83.833 103.663 L 83.833 133.827 83.458 133.913 C 82.549 134.121,79.153 134.655,78.167 134.745 C 77.571 134.800,76.722 134.887,76.281 134.940 L 75.478 135.034 75.587 105.975 C 75.647 89.993,75.708 76.914,75.723 76.911 C 75.795 76.894,78.499 75.740,79.083 75.476 C 80.699 74.746,83.594 73.513,83.708 73.507 C 83.777 73.503,83.833 87.074,83.833 103.663 M318.614 79.668 C 316.712 80.172,316.097 80.498,314.764 81.708 C 314.486 81.960,314.213 82.167,314.156 82.167 C 314.099 82.167,313.911 82.429,313.738 82.750 C 313.566 83.071,313.358 83.333,313.278 83.333 C 313.197 83.333,313.176 83.450,313.230 83.592 C 313.285 83.734,313.272 83.815,313.202 83.772 C 313.132 83.729,312.938 84.156,312.771 84.722 C 312.603 85.287,312.405 85.870,312.331 86.017 C 312.057 86.554,312.309 90.012,312.688 90.930 C 312.923 91.500,312.908 91.455,313.073 92.042 C 313.145 92.294,313.270 92.500,313.351 92.500 C 313.433 92.500,313.500 92.607,313.500 92.738 C 313.500 92.869,313.618 93.094,313.762 93.238 C 313.906 93.382,313.964 93.500,313.890 93.500 C 313.706 93.500,315.133 94.840,315.750 95.248 C 316.782 95.929,318.361 96.476,318.958 96.359 C 319.073 96.337,319.167 96.385,319.167 96.466 C 319.167 96.598,320.184 96.716,321.333 96.718 C 322.173 96.720,322.927 96.604,323.333 96.410 C 323.563 96.301,323.840 96.245,323.951 96.284 C 324.612 96.521,327.202 94.814,328.334 93.397 C 328.843 92.759,329.511 90.798,329.197 90.865 C 329.134 90.879,328.783 90.829,328.417 90.756 C 327.478 90.568,327.297 90.527,326.896 90.409 C 326.602 90.323,326.542 90.376,326.542 90.718 C 326.542 91.706,324.774 93.624,323.295 94.242 C 322.340 94.641,319.699 94.549,318.732 94.083 C 318.288 93.869,317.876 93.724,317.816 93.761 C 317.596 93.897,316.132 92.130,315.752 91.270 C 314.915 89.379,314.844 86.597,315.593 85.147 C 315.730 84.883,315.793 84.667,315.734 84.667 C 315.674 84.667,315.725 84.547,315.847 84.400 C 315.969 84.253,316.085 84.020,316.106 83.882 C 316.308 82.503,320.240 81.110,322.667 81.557 C 323.848 81.775,325.896 83.348,325.924 84.059 C 325.928 84.164,326.031 84.228,326.153 84.202 C 326.282 84.173,326.337 84.249,326.286 84.383 C 326.119 84.817,326.405 85.028,326.903 84.839 C 327.155 84.743,327.430 84.707,327.514 84.759 C 327.598 84.811,327.667 84.774,327.667 84.677 C 327.667 84.579,327.967 84.500,328.333 84.500 C 328.825 84.500,329.000 84.432,329.000 84.241 C 329.000 83.823,328.367 82.554,327.916 82.067 C 327.687 81.820,327.500 81.554,327.500 81.476 C 327.500 81.397,327.442 81.352,327.372 81.375 C 327.301 81.398,327.062 81.248,326.840 81.042 C 326.619 80.835,326.334 80.667,326.209 80.667 C 326.083 80.667,326.027 80.592,326.083 80.500 C 326.140 80.408,326.107 80.324,326.010 80.313 C 325.708 80.277,325.610 80.241,324.333 79.706 C 323.408 79.318,320.019 79.295,318.614 79.668 M252.484 79.864 C 252.195 80.404,252.303 81.639,252.656 81.827 C 252.842 81.927,254.180 82.000,255.822 82.000 L 258.667 82.000 258.667 88.903 C 258.667 97.012,258.542 96.333,260.030 96.333 C 261.809 96.333,261.681 96.930,261.629 88.883 L 261.583 81.917 264.667 81.917 L 267.750 81.917 267.799 80.795 L 267.848 79.673 260.241 79.628 C 253.252 79.587,252.621 79.606,252.484 79.864 M158.670 87.978 L 158.661 96.289 160.170 96.320 L 161.678 96.350 161.631 92.423 L 161.583 88.495 166.417 88.539 L 171.250 88.583 171.250 92.458 L 171.250 96.333 172.542 96.333 C 173.340 96.333,173.833 96.266,173.833 96.157 C 173.833 96.060,173.910 96.027,174.003 96.085 C 174.117 96.156,174.170 93.496,174.164 87.950 L 174.155 79.710 172.702 79.681 L 171.250 79.651 171.298 83.034 L 171.346 86.417 166.506 86.370 L 161.667 86.323 161.667 82.995 L 161.667 79.667 160.173 79.667 L 158.679 79.667 158.670 87.978 M183.455 87.958 L 183.494 96.250 190.747 96.287 L 198.000 96.323 198.000 95.245 L 198.000 94.167 192.083 94.167 L 186.167 94.167 186.167 91.500 L 186.167 88.833 191.402 88.833 L 196.637 88.833 196.694 87.819 C 196.725 87.261,196.719 86.773,196.681 86.736 C 196.642 86.698,194.261 86.667,191.389 86.667 L 186.167 86.667 186.167 84.336 L 186.167 82.004 191.792 81.961 L 197.417 81.917 197.466 80.792 L 197.515 79.667 190.466 79.667 L 183.417 79.667 183.455 87.958 M211.747 79.881 C 211.502 80.174,210.113 83.212,210.112 83.458 C 210.112 83.573,210.064 83.667,210.006 83.667 C 209.886 83.667,209.453 84.789,209.532 84.896 C 209.560 84.934,209.445 85.118,209.275 85.305 C 209.106 85.493,209.017 85.725,209.077 85.823 C 209.137 85.920,209.113 86.000,209.024 86.000 C 208.934 86.000,208.727 86.356,208.564 86.792 C 208.401 87.227,208.188 87.638,208.092 87.706 C 207.996 87.773,207.975 87.829,208.046 87.831 C 208.116 87.832,208.066 88.002,207.934 88.208 C 207.802 88.415,207.611 88.899,207.509 89.284 C 207.408 89.670,207.227 90.083,207.107 90.203 C 206.987 90.322,206.754 90.850,206.589 91.375 C 206.424 91.900,206.186 92.414,206.061 92.518 C 205.936 92.622,205.833 92.792,205.833 92.895 C 205.833 92.999,205.614 93.533,205.345 94.083 C 204.224 96.378,204.218 96.356,205.942 96.298 L 207.385 96.250 207.956 94.917 C 208.539 93.553,208.945 92.509,209.121 91.917 C 209.287 91.360,209.450 91.339,213.445 91.336 L 217.307 91.333 217.500 91.917 C 217.606 92.237,217.766 92.500,217.856 92.500 C 217.946 92.500,217.978 92.568,217.926 92.651 C 217.875 92.734,217.975 93.090,218.147 93.442 C 218.496 94.154,218.885 95.038,218.907 95.167 C 218.914 95.212,219.019 95.485,219.139 95.771 L 219.357 96.293 221.009 96.321 C 222.544 96.348,222.652 96.328,222.529 96.050 C 221.995 94.843,221.762 94.380,221.406 93.816 C 221.183 93.463,221.000 93.084,221.000 92.974 C 221.000 92.763,220.266 91.166,218.713 88.000 C 218.196 86.946,217.696 85.896,217.602 85.667 C 217.508 85.438,217.328 85.125,217.203 84.973 C 217.077 84.821,216.958 84.596,216.938 84.473 C 216.917 84.350,216.810 84.086,216.700 83.886 C 216.590 83.686,216.500 83.404,216.500 83.261 C 216.500 83.117,216.432 83.000,216.350 83.000 C 216.267 83.000,216.127 82.794,216.038 82.542 C 215.950 82.290,215.624 81.542,215.314 80.881 L 214.750 79.678 213.333 79.679 C 212.428 79.679,211.856 79.752,211.747 79.881 M229.670 87.718 C 229.659 97.204,229.506 96.333,231.184 96.333 L 232.500 96.333 232.500 92.658 L 232.500 88.982 234.373 89.012 C 236.466 89.045,237.614 89.312,238.269 89.919 C 238.511 90.144,238.786 90.279,238.880 90.221 C 238.979 90.160,239.001 90.197,238.933 90.308 C 238.860 90.425,238.931 90.505,239.115 90.513 C 239.281 90.520,239.326 90.563,239.215 90.608 C 239.083 90.662,239.182 90.874,239.501 91.220 C 239.911 91.667,240.294 92.134,241.300 93.417 C 241.372 93.508,241.686 93.958,241.999 94.417 C 242.312 94.875,242.646 95.335,242.742 95.438 C 242.838 95.541,243.027 95.785,243.162 95.980 C 243.383 96.299,243.564 96.333,245.037 96.333 C 246.745 96.333,247.006 96.196,246.417 95.607 C 246.279 95.470,246.167 95.310,246.167 95.252 C 246.167 95.138,245.250 93.945,244.815 93.492 C 244.667 93.338,244.407 92.977,244.237 92.690 C 244.067 92.402,243.869 92.167,243.797 92.167 C 243.725 92.167,243.667 92.093,243.667 92.002 C 243.667 91.655,241.756 89.660,240.947 89.162 L 240.478 88.874 241.031 88.674 C 241.335 88.565,241.769 88.439,241.996 88.394 C 242.224 88.349,242.457 88.236,242.515 88.142 C 242.573 88.048,242.650 87.983,242.685 87.997 C 243.001 88.119,245.142 86.253,244.930 86.041 C 244.894 86.005,244.966 85.782,245.089 85.545 C 245.469 84.813,245.309 83.148,244.782 82.352 C 244.535 81.979,244.333 81.631,244.333 81.578 C 244.333 81.320,243.040 80.346,242.436 80.149 C 241.391 79.809,241.304 79.804,235.298 79.722 L 229.679 79.645 229.670 87.718 M275.659 79.730 C 275.617 79.771,275.603 83.527,275.628 88.076 L 275.673 96.347 277.013 96.298 L 278.352 96.250 278.384 92.417 L 278.417 88.583 283.208 88.539 L 288.000 88.495 288.000 92.414 L 288.000 96.333 289.417 96.333 L 290.833 96.333 290.833 88.000 L 290.833 79.667 289.417 79.667 C 288.637 79.667,288.009 79.723,288.020 79.792 C 288.031 79.860,288.031 81.379,288.020 83.167 L 288.000 86.417 283.161 86.370 L 278.321 86.323 278.341 83.037 L 278.361 79.750 277.048 79.702 C 276.326 79.676,275.701 79.688,275.659 79.730 M342.721 79.875 C 342.720 79.990,342.557 80.416,342.359 80.823 C 342.162 81.230,342.000 81.661,342.000 81.781 C 342.000 81.902,341.944 82.000,341.875 82.001 C 341.806 82.001,341.608 82.357,341.434 82.792 C 340.960 83.979,339.182 87.865,338.728 88.708 C 338.592 88.960,338.532 89.167,338.594 89.167 C 338.657 89.167,338.615 89.278,338.502 89.415 C 338.389 89.551,338.337 89.770,338.387 89.901 C 338.438 90.032,338.366 90.182,338.229 90.235 C 338.091 90.288,338.026 90.407,338.083 90.499 C 338.140 90.591,338.121 90.667,338.041 90.667 C 337.961 90.667,337.788 90.947,337.656 91.289 C 337.524 91.631,337.285 92.172,337.125 92.491 C 336.965 92.810,336.833 93.136,336.833 93.215 C 336.833 93.295,336.581 93.863,336.273 94.478 C 335.293 96.429,335.265 96.333,336.808 96.333 C 338.292 96.333,338.667 96.244,338.667 95.890 C 338.667 95.757,338.832 95.296,339.033 94.866 C 339.235 94.435,339.409 94.046,339.420 94.000 C 339.441 93.916,339.589 93.564,340.215 92.122 L 340.560 91.327 344.472 91.372 C 348.171 91.414,348.388 91.434,348.431 91.733 C 348.457 91.907,348.547 92.095,348.630 92.150 C 348.714 92.205,348.977 92.737,349.215 93.333 C 349.452 93.929,349.837 94.848,350.071 95.375 L 350.496 96.333 352.070 96.333 L 353.643 96.333 353.509 95.864 C 353.358 95.338,353.022 94.711,352.708 94.370 C 352.594 94.245,352.491 94.073,352.479 93.988 C 352.468 93.903,352.448 93.777,352.435 93.708 C 352.423 93.640,352.175 93.096,351.886 92.500 C 351.596 91.904,351.149 90.967,350.894 90.417 C 350.638 89.867,350.369 89.392,350.297 89.361 C 350.224 89.330,350.202 89.244,350.249 89.169 C 350.295 89.094,350.108 88.605,349.833 88.083 C 349.558 87.560,349.333 87.028,349.333 86.900 C 349.333 86.772,349.254 86.667,349.157 86.667 C 349.060 86.667,349.027 86.592,349.083 86.500 C 349.140 86.408,349.125 86.333,349.051 86.333 C 348.921 86.333,348.800 86.087,348.334 84.875 C 348.220 84.577,348.060 84.333,347.980 84.333 C 347.899 84.333,347.833 84.254,347.833 84.158 C 347.833 83.969,347.430 83.029,346.652 81.403 C 346.385 80.846,346.167 80.335,346.167 80.267 C 346.167 80.199,346.060 80.036,345.929 79.905 C 345.611 79.587,342.723 79.560,342.721 79.875 M360.833 87.986 L 360.833 96.333 362.167 96.333 L 363.500 96.333 363.500 92.658 L 363.500 88.982 365.345 89.011 C 366.360 89.027,367.503 89.115,367.887 89.206 C 368.270 89.297,368.677 89.376,368.792 89.380 C 368.906 89.385,369.000 89.489,369.000 89.611 C 369.000 89.733,369.072 89.833,369.160 89.833 C 369.483 89.833,370.885 91.438,372.584 93.750 C 373.190 94.575,373.812 95.400,373.965 95.583 C 374.119 95.767,374.227 95.972,374.206 96.039 C 374.138 96.261,374.898 96.348,376.475 96.299 L 378.034 96.250 377.517 95.710 C 377.233 95.413,377.000 95.060,377.000 94.926 C 377.000 94.793,376.902 94.623,376.783 94.550 C 376.663 94.477,376.390 94.128,376.176 93.776 C 375.962 93.423,375.610 92.958,375.393 92.742 C 375.177 92.525,375.000 92.270,375.000 92.174 C 375.000 92.078,374.925 92.000,374.833 92.000 C 374.742 92.000,374.667 91.904,374.667 91.787 C 374.667 91.670,374.517 91.465,374.333 91.333 C 374.150 91.201,374.000 90.997,374.000 90.880 C 374.000 90.763,373.944 90.667,373.875 90.667 C 373.806 90.667,373.405 90.346,372.985 89.955 C 372.565 89.564,372.040 89.110,371.819 88.947 C 371.598 88.784,371.499 88.690,371.600 88.737 C 371.701 88.784,372.189 88.668,372.684 88.479 C 373.179 88.291,373.677 88.131,373.792 88.124 C 373.906 88.117,374.000 88.044,374.000 87.962 C 374.000 87.881,374.070 87.857,374.155 87.910 C 374.241 87.962,374.428 87.838,374.572 87.632 C 374.716 87.427,374.833 87.310,374.833 87.372 C 374.833 87.670,375.699 86.631,375.989 85.984 C 376.420 85.022,376.337 82.953,375.833 82.127 C 375.650 81.828,375.499 81.658,375.497 81.750 C 375.494 81.842,375.372 81.673,375.225 81.375 C 375.066 81.051,374.833 80.833,374.646 80.833 C 374.474 80.833,374.333 80.754,374.333 80.657 C 374.333 79.928,372.982 79.755,366.792 79.695 L 360.833 79.638 360.833 87.986 M385.500 88.000 L 385.500 96.333 392.663 96.333 L 399.827 96.333 399.924 95.945 C 399.978 95.731,399.998 95.241,399.969 94.854 L 399.917 94.152 394.083 94.118 L 388.250 94.083 388.204 91.458 L 388.158 88.833 393.371 88.814 C 396.238 88.803,398.640 88.803,398.708 88.814 C 398.777 88.824,398.833 88.346,398.833 87.750 L 398.833 86.667 393.500 86.667 L 388.167 86.667 388.167 84.292 L 388.167 81.917 393.695 81.963 C 399.870 82.014,399.518 82.091,399.556 80.686 L 399.583 79.667 392.542 79.667 L 385.500 79.667 385.500 88.000 M68.000 107.841 L 68.000 135.182 67.458 135.089 C 67.160 135.038,66.092 134.923,65.083 134.833 C 62.798 134.628,59.779 134.172,59.477 133.986 C 59.287 133.868,59.250 130.084,59.250 110.881 L 59.250 87.917 59.657 87.000 C 60.218 85.735,61.417 83.933,62.054 83.397 C 62.614 82.925,67.376 80.566,67.875 80.513 C 67.944 80.506,68.000 92.803,68.000 107.841 M239.931 81.831 C 240.021 81.921,240.367 82.015,240.700 82.039 C 241.033 82.063,241.293 82.125,241.278 82.176 C 241.262 82.227,241.450 82.455,241.694 82.682 C 242.332 83.276,242.578 84.746,242.130 85.292 C 242.036 85.406,242.012 85.500,242.076 85.500 C 242.219 85.500,241.399 86.159,240.833 86.500 C 240.502 86.699,239.607 86.761,236.458 86.805 L 232.500 86.860 232.500 84.350 L 232.500 81.840 236.042 81.791 C 237.990 81.765,239.625 81.726,239.675 81.705 C 239.725 81.684,239.840 81.740,239.931 81.831 M371.133 81.895 C 371.252 81.969,371.462 81.986,371.600 81.933 C 371.742 81.879,371.807 81.909,371.749 82.002 C 371.693 82.093,371.783 82.169,371.948 82.172 C 372.347 82.180,372.928 82.677,373.074 83.137 C 373.138 83.339,373.260 83.462,373.345 83.409 C 373.432 83.356,373.500 83.645,373.500 84.064 C 373.500 84.476,373.424 84.861,373.331 84.918 C 373.237 84.976,373.204 85.093,373.257 85.178 C 373.310 85.264,373.274 85.333,373.177 85.333 C 373.079 85.333,373.000 85.434,373.000 85.558 C 373.000 85.822,372.522 86.284,372.167 86.362 C 372.029 86.392,371.863 86.492,371.798 86.583 C 371.726 86.684,370.061 86.772,367.590 86.805 L 363.500 86.859 363.500 84.350 L 363.500 81.840 366.875 81.795 C 371.087 81.739,370.875 81.734,371.133 81.895 M213.775 83.417 C 213.881 83.600,213.977 83.805,213.989 83.873 C 214.000 83.940,214.170 84.353,214.366 84.790 C 214.562 85.226,214.729 85.621,214.738 85.667 C 214.759 85.787,215.321 87.032,215.508 87.373 C 215.595 87.532,215.667 87.758,215.667 87.875 C 215.667 87.992,215.817 88.368,216.000 88.711 L 216.334 89.333 213.255 89.333 L 210.176 89.333 210.766 88.158 C 211.090 87.512,211.366 86.842,211.379 86.670 C 211.392 86.497,211.455 86.389,211.520 86.429 C 211.584 86.469,211.798 86.005,211.993 85.399 C 212.189 84.793,212.450 84.136,212.573 83.940 C 212.696 83.744,212.897 83.178,213.019 82.684 L 213.242 81.784 213.413 82.434 C 213.507 82.791,213.670 83.233,213.775 83.417 M344.728 83.213 C 344.899 83.600,345.180 84.200,345.353 84.547 C 345.525 84.893,345.667 85.287,345.667 85.422 C 345.667 85.556,345.742 85.667,345.833 85.667 C 345.925 85.667,346.000 85.782,346.000 85.922 C 346.000 86.062,346.101 86.419,346.224 86.714 C 346.347 87.009,346.471 87.325,346.499 87.417 C 346.527 87.508,346.670 87.675,346.817 87.786 C 346.963 87.898,347.031 87.992,346.967 87.995 C 346.903 87.998,346.959 88.260,347.092 88.578 C 347.225 88.896,347.333 89.196,347.333 89.245 C 347.333 89.293,345.983 89.333,344.333 89.333 C 341.488 89.333,341.137 89.281,341.478 88.908 C 341.558 88.821,341.758 88.375,341.923 87.917 C 342.088 87.458,342.315 86.971,342.426 86.833 C 342.538 86.696,342.681 86.340,342.745 86.042 C 342.808 85.744,342.920 85.500,342.994 85.500 C 343.067 85.500,343.183 85.331,343.250 85.125 C 343.317 84.919,343.385 84.712,343.401 84.667 C 343.417 84.621,343.569 84.171,343.737 83.667 C 344.222 82.220,344.278 82.194,344.728 83.213 " stroke="none" fill="#fcfdf8" fill-rule="evenodd"></path><path id="path1" d="M246.455 38.787 C 246.750 38.824,247.275 38.824,247.621 38.788 C 247.967 38.752,247.725 38.722,247.083 38.721 C 246.442 38.721,246.159 38.750,246.455 38.787 M304.292 38.787 C 304.590 38.824,305.077 38.824,305.375 38.787 C 305.673 38.750,305.429 38.720,304.833 38.720 C 304.237 38.720,303.994 38.750,304.292 38.787 M153.736 42.667 C 153.736 44.454,153.761 45.185,153.791 44.292 C 153.821 43.398,153.821 41.935,153.791 41.042 C 153.761 40.148,153.736 40.879,153.736 42.667 M180.667 55.333 C 180.667 65.778,180.723 71.167,180.833 71.167 C 180.943 71.167,181.000 65.778,181.000 55.333 C 181.000 44.889,180.943 39.500,180.833 39.500 C 180.723 39.500,180.667 44.889,180.667 55.333 M191.242 45.167 C 191.242 48.329,191.264 49.623,191.291 48.042 C 191.319 46.460,191.319 43.873,191.291 42.292 C 191.264 40.710,191.242 42.004,191.242 45.167 M199.580 55.417 C 199.580 64.217,199.600 67.792,199.625 63.362 C 199.650 58.932,199.650 51.732,199.625 47.362 C 199.600 42.992,199.580 46.617,199.580 55.417 M267.080 55.417 C 267.080 64.217,267.100 67.792,267.125 63.362 C 267.150 58.932,267.150 51.732,267.125 47.362 C 267.100 42.992,267.080 46.617,267.080 55.417 M352.080 55.333 C 352.080 64.087,352.100 67.669,352.125 63.292 C 352.150 58.915,352.150 51.752,352.125 47.375 C 352.100 42.998,352.080 46.579,352.080 55.333 M389.241 45.083 C 389.242 48.200,389.264 49.451,389.291 47.864 C 389.319 46.277,389.319 43.727,389.291 42.198 C 389.264 40.668,389.241 41.967,389.241 45.083 M275.408 45.167 C 275.408 48.237,275.431 49.494,275.458 47.958 C 275.486 46.423,275.486 43.910,275.458 42.375 C 275.431 40.840,275.408 42.096,275.408 45.167 M399.580 55.583 C 399.580 64.383,399.600 67.959,399.625 63.529 C 399.650 59.099,399.650 51.899,399.625 47.529 C 399.600 43.159,399.580 46.783,399.580 55.583 M326.155 43.292 C 326.149 43.452,326.116 43.790,326.083 44.042 C 326.050 44.294,326.075 44.500,326.139 44.500 C 326.203 44.500,326.271 44.163,326.289 43.750 C 326.307 43.337,326.287 43.000,326.244 43.000 C 326.202 43.000,326.161 43.131,326.155 43.292 M166.746 58.667 C 166.746 65.679,166.766 68.548,166.792 65.042 C 166.817 61.535,166.817 55.798,166.792 52.292 C 166.766 48.785,166.746 51.654,166.746 58.667 M303.712 46.833 C 303.712 47.246,303.745 47.415,303.784 47.208 C 303.824 47.002,303.824 46.665,303.784 46.458 C 303.745 46.252,303.712 46.421,303.712 46.833 M245.911 55.167 C 245.911 60.071,245.932 62.077,245.958 59.625 C 245.984 57.173,245.984 53.160,245.958 50.708 C 245.932 48.256,245.911 50.262,245.911 55.167 M306.025 47.875 C 306.011 48.677,306.056 49.333,306.125 49.334 C 306.194 49.334,306.229 48.865,306.203 48.292 C 306.124 46.521,306.051 46.350,306.025 47.875 M248.403 50.083 C 248.403 51.917,248.428 52.689,248.457 51.801 C 248.487 50.912,248.488 49.412,248.458 48.467 C 248.428 47.523,248.404 48.250,248.403 50.083 M256.633 50.917 C 256.606 52.338,256.640 53.500,256.708 53.500 C 256.777 53.500,256.833 52.337,256.833 50.917 C 256.833 47.574,256.698 47.574,256.633 50.917 M333.044 50.200 C 333.049 50.631,333.115 51.081,333.191 51.200 C 333.370 51.483,333.363 50.983,333.175 50.083 L 333.035 49.417 333.044 50.200 M325.148 51.292 C 325.048 51.945,325.034 52.355,325.113 52.276 C 325.235 52.154,325.354 51.167,325.247 51.167 C 325.203 51.167,325.158 51.223,325.148 51.292 M332.375 52.583 C 332.377 52.950,332.411 53.080,332.451 52.873 C 332.491 52.666,332.490 52.366,332.448 52.206 C 332.406 52.047,332.374 52.217,332.375 52.583 M389.243 64.583 C 389.243 68.250,389.265 69.726,389.292 67.864 C 389.318 66.002,389.318 63.002,389.291 61.197 C 389.265 59.393,389.243 60.917,389.243 64.583 M191.243 64.667 C 191.243 68.287,191.265 69.769,191.291 67.958 C 191.318 66.148,191.318 63.185,191.291 61.375 C 191.265 59.565,191.243 61.046,191.243 64.667 M275.409 64.667 C 275.409 68.287,275.431 69.769,275.458 67.958 C 275.485 66.148,275.485 63.185,275.458 61.375 C 275.431 59.565,275.409 61.046,275.409 64.667 M250.718 58.458 C 251.800 58.487,253.525 58.487,254.551 58.458 C 255.577 58.428,254.692 58.405,252.583 58.405 C 250.475 58.405,249.635 58.429,250.718 58.458 M248.400 61.167 C 248.400 62.587,248.426 63.169,248.457 62.458 C 248.488 61.748,248.488 60.585,248.457 59.875 C 248.426 59.165,248.400 59.746,248.400 61.167 M256.729 60.417 C 256.729 61.425,256.757 61.816,256.790 61.286 C 256.823 60.755,256.823 59.930,256.789 59.452 C 256.756 58.974,256.729 59.408,256.729 60.417 M218.500 59.660 L 217.250 59.759 218.604 59.838 C 219.644 59.898,219.940 59.868,219.878 59.708 C 219.834 59.594,219.787 59.514,219.774 59.530 C 219.761 59.547,219.188 59.605,218.500 59.660 M303.620 59.801 C 303.761 59.891,303.840 60.673,303.875 62.340 L 303.927 64.750 303.963 62.208 C 303.997 59.884,303.975 59.667,303.708 59.669 C 303.506 59.671,303.479 59.711,303.620 59.801 M332.208 59.788 C 332.552 59.824,333.115 59.824,333.458 59.788 C 333.802 59.752,333.521 59.723,332.833 59.723 C 332.146 59.723,331.865 59.752,332.208 59.788 M314.333 63.167 C 314.333 64.137,314.394 64.649,314.500 64.583 C 314.592 64.527,314.667 63.889,314.667 63.167 C 314.667 62.444,314.592 61.807,314.500 61.750 C 314.394 61.684,314.333 62.196,314.333 63.167 M237.500 62.833 C 237.500 63.108,237.562 63.333,237.638 63.333 C 237.714 63.333,237.743 63.108,237.702 62.833 C 237.662 62.558,237.600 62.333,237.564 62.333 C 237.529 62.333,237.500 62.558,237.500 62.833 M341.879 62.833 C 341.893 63.017,341.959 63.167,342.025 63.167 C 342.092 63.167,342.135 63.017,342.121 62.833 C 342.107 62.650,342.041 62.500,341.975 62.500 C 341.908 62.500,341.865 62.650,341.879 62.833 M209.196 64.520 C 209.191 64.895,209.213 65.175,209.245 65.143 C 209.381 65.002,209.459 63.994,209.338 63.920 C 209.265 63.875,209.202 64.145,209.196 64.520 M220.000 67.139 C 220.000 67.429,220.076 67.667,220.170 67.667 C 220.271 67.667,220.295 67.480,220.230 67.208 C 220.073 66.554,220.000 66.532,220.000 67.139 M217.295 67.326 C 217.180 67.736,217.249 67.974,217.430 67.792 C 217.483 67.739,217.501 67.520,217.468 67.306 L 217.410 66.917 217.295 67.326 M334.542 69.583 C 334.544 69.950,334.578 70.080,334.618 69.873 C 334.658 69.666,334.656 69.366,334.615 69.206 C 334.573 69.047,334.540 69.217,334.542 69.583 M277.500 71.375 C 277.500 71.444,279.356 71.485,281.625 71.466 C 285.757 71.431,285.280 71.373,280.208 71.293 C 278.718 71.269,277.500 71.306,277.500 71.375 M366.583 71.333 L 363.083 71.427 366.625 71.463 C 368.899 71.487,370.167 71.440,370.167 71.333 C 370.167 71.242,370.148 71.183,370.125 71.203 C 370.102 71.223,368.508 71.282,366.583 71.333 M160.708 71.458 C 161.785 71.487,163.548 71.487,164.625 71.458 C 165.702 71.429,164.821 71.405,162.667 71.405 C 160.512 71.405,159.631 71.429,160.708 71.458 M183.042 71.458 C 184.119 71.487,185.881 71.487,186.958 71.458 C 188.035 71.429,187.154 71.405,185.000 71.405 C 182.846 71.405,181.965 71.429,183.042 71.458 M193.468 71.458 C 194.596 71.487,196.396 71.487,197.468 71.458 C 198.540 71.429,197.617 71.405,195.417 71.405 C 193.217 71.405,192.340 71.429,193.468 71.458 M210.801 71.458 C 211.929 71.487,213.729 71.487,214.801 71.458 C 215.873 71.429,214.950 71.405,212.750 71.405 C 210.550 71.405,209.673 71.429,210.801 71.458 M222.801 71.458 C 223.929 71.487,225.729 71.487,226.801 71.458 C 227.873 71.429,226.950 71.405,224.750 71.405 C 222.550 71.405,221.673 71.429,222.801 71.458 M269.301 71.458 C 270.429 71.487,272.229 71.487,273.301 71.458 C 274.373 71.429,273.450 71.405,271.250 71.405 C 269.050 71.405,268.173 71.429,269.301 71.458 M324.968 71.458 C 326.096 71.487,327.896 71.487,328.968 71.458 C 330.040 71.429,329.117 71.405,326.917 71.405 C 324.717 71.405,323.840 71.429,324.968 71.458 M336.958 71.458 C 338.081 71.487,339.919 71.487,341.042 71.458 C 342.165 71.429,341.246 71.405,339.000 71.405 C 336.754 71.405,335.835 71.429,336.958 71.458 M353.967 71.458 C 354.912 71.488,356.412 71.487,357.301 71.457 C 358.189 71.428,357.417 71.403,355.583 71.403 C 353.750 71.404,353.023 71.428,353.967 71.458 M383.042 71.458 C 384.119 71.487,385.881 71.487,386.958 71.458 C 388.035 71.429,387.154 71.405,385.000 71.405 C 382.846 71.405,381.965 71.429,383.042 71.458 M393.542 71.458 C 394.619 71.487,396.381 71.487,397.458 71.458 C 398.535 71.429,397.654 71.405,395.500 71.405 C 393.346 71.405,392.465 71.429,393.542 71.458 M159.629 79.622 C 160.021 79.657,160.621 79.657,160.963 79.621 C 161.304 79.585,160.983 79.557,160.250 79.557 C 159.517 79.558,159.237 79.587,159.629 79.622 M171.875 79.621 C 172.219 79.657,172.781 79.657,173.125 79.621 C 173.469 79.585,173.188 79.556,172.500 79.556 C 171.813 79.556,171.531 79.585,171.875 79.621 M187.042 79.625 C 188.944 79.652,192.056 79.652,193.958 79.625 C 195.860 79.598,194.304 79.576,190.500 79.576 C 186.696 79.576,185.140 79.598,187.042 79.625 M212.625 79.622 C 213.015 79.657,213.652 79.657,214.042 79.622 C 214.431 79.587,214.112 79.558,213.333 79.558 C 212.554 79.558,212.235 79.587,212.625 79.622 M229.853 79.576 C 229.963 79.685,239.846 79.710,239.955 79.601 C 240.001 79.555,237.728 79.512,234.904 79.505 C 232.081 79.498,229.808 79.530,229.853 79.576 M256.542 79.625 C 258.627 79.651,262.040 79.651,264.125 79.625 C 266.210 79.598,264.504 79.577,260.333 79.577 C 256.162 79.577,254.456 79.598,256.542 79.625 M276.375 79.621 C 276.719 79.657,277.281 79.657,277.625 79.621 C 277.969 79.585,277.688 79.556,277.000 79.556 C 276.313 79.556,276.031 79.585,276.375 79.621 M288.792 79.622 C 289.181 79.657,289.819 79.657,290.208 79.622 C 290.598 79.587,290.279 79.558,289.500 79.558 C 288.721 79.558,288.402 79.587,288.792 79.622 M343.629 79.622 C 344.021 79.657,344.621 79.657,344.963 79.621 C 345.304 79.585,344.983 79.557,344.250 79.557 C 343.517 79.558,343.237 79.587,343.629 79.622 M363.208 79.625 C 364.469 79.653,366.531 79.653,367.792 79.625 C 369.052 79.596,368.021 79.573,365.500 79.573 C 362.979 79.573,361.948 79.596,363.208 79.625 M388.970 79.625 C 390.924 79.652,394.074 79.651,395.970 79.625 C 397.865 79.598,396.267 79.576,392.417 79.576 C 388.567 79.576,387.015 79.598,388.970 79.625 M171.237 83.167 C 171.237 85.046,171.261 85.815,171.291 84.875 C 171.321 83.935,171.321 82.398,171.291 81.458 C 171.261 80.519,171.237 81.287,171.237 83.167 M183.411 87.917 C 183.411 92.408,183.432 94.222,183.458 91.947 C 183.484 89.672,183.484 85.997,183.458 83.780 C 183.432 81.564,183.410 83.425,183.411 87.917 M290.911 88.000 C 290.911 92.537,290.932 94.394,290.958 92.125 C 290.984 89.856,290.984 86.144,290.958 83.875 C 290.932 81.606,290.911 83.462,290.911 88.000 M197.548 80.750 C 197.549 81.208,197.581 81.376,197.620 81.123 C 197.658 80.869,197.657 80.494,197.617 80.289 C 197.578 80.084,197.546 80.292,197.548 80.750 M275.577 88.083 C 275.577 92.575,275.599 94.389,275.625 92.113 C 275.651 89.838,275.651 86.163,275.625 83.947 C 275.599 81.730,275.577 83.592,275.577 88.083 M278.403 83.167 C 278.403 84.954,278.428 85.685,278.458 84.792 C 278.488 83.898,278.488 82.435,278.458 81.542 C 278.428 80.648,278.403 81.379,278.403 83.167 M399.548 80.750 C 399.549 81.208,399.581 81.376,399.620 81.123 C 399.658 80.869,399.657 80.494,399.617 80.289 C 399.578 80.084,399.546 80.292,399.548 80.750 M375.105 81.167 C 375.206 81.304,375.322 81.525,375.364 81.658 C 375.412 81.813,375.478 81.836,375.549 81.722 C 375.609 81.625,375.493 81.403,375.291 81.231 C 375.088 81.058,375.005 81.029,375.105 81.167 M326.084 84.332 C 326.028 84.423,326.052 84.622,326.137 84.774 C 326.263 84.999,326.292 84.968,326.292 84.609 C 326.292 84.134,326.245 84.072,326.084 84.332 M372.667 85.917 C 372.553 86.054,372.356 86.167,372.230 86.167 C 372.103 86.167,372.000 86.244,372.000 86.339 C 372.000 86.455,372.101 86.458,372.305 86.348 C 372.616 86.182,373.109 85.667,372.957 85.667 C 372.912 85.667,372.781 85.779,372.667 85.917 M196.718 87.917 C 196.719 88.467,196.750 88.672,196.787 88.372 C 196.825 88.072,196.824 87.622,196.786 87.372 C 196.748 87.122,196.717 87.367,196.718 87.917 M171.238 92.417 C 171.238 94.525,171.262 95.365,171.291 94.282 C 171.320 93.200,171.320 91.475,171.291 90.449 C 171.262 89.423,171.238 90.308,171.238 92.417 M278.405 92.333 C 278.405 94.396,278.429 95.240,278.458 94.208 C 278.487 93.177,278.487 91.490,278.458 90.458 C 278.429 89.427,278.405 90.271,278.405 92.333 M341.444 88.944 C 341.117 89.272,341.600 89.330,344.375 89.296 L 347.417 89.258 344.451 89.209 C 342.576 89.177,341.522 89.099,341.586 88.996 C 341.700 88.811,341.611 88.778,341.444 88.944 M233.381 89.123 C 233.912 89.157,234.737 89.156,235.214 89.123 C 235.692 89.089,235.258 89.062,234.250 89.062 C 233.242 89.063,232.851 89.090,233.381 89.123 M364.381 89.123 C 364.912 89.157,365.737 89.156,366.214 89.123 C 366.692 89.089,366.258 89.062,365.250 89.062 C 364.242 89.063,363.851 89.090,364.381 89.123 M211.717 89.291 C 212.616 89.321,214.041 89.321,214.884 89.291 C 215.727 89.261,214.992 89.236,213.250 89.236 C 211.508 89.236,210.818 89.261,211.717 89.291 M327.035 90.424 C 327.085 90.474,327.341 90.550,327.605 90.594 C 327.964 90.654,328.021 90.632,327.833 90.506 C 327.576 90.334,326.872 90.261,327.035 90.424 M221.000 93.074 C 221.000 93.181,221.690 94.333,221.754 94.333 C 221.784 94.333,221.683 94.034,221.529 93.668 C 221.298 93.117,221.000 92.782,221.000 93.074 M352.530 94.083 C 352.635 94.313,352.785 94.500,352.864 94.500 C 352.943 94.500,352.885 94.313,352.735 94.083 C 352.585 93.854,352.434 93.667,352.401 93.667 C 352.368 93.667,352.426 93.854,352.530 94.083 M323.620 93.936 C 323.563 93.992,323.270 94.089,322.968 94.151 C 322.666 94.213,322.496 94.311,322.590 94.369 C 322.685 94.428,323.059 94.337,323.423 94.168 C 323.786 93.999,324.002 93.854,323.903 93.847 C 323.803 93.839,323.676 93.880,323.620 93.936 M189.136 94.125 C 190.815 94.152,193.515 94.152,195.136 94.125 C 196.757 94.097,195.383 94.075,192.083 94.075 C 188.783 94.075,187.457 94.098,189.136 94.125 M391.125 94.125 C 392.706 94.152,395.294 94.152,396.875 94.125 C 398.456 94.097,397.162 94.075,394.000 94.075 C 390.837 94.075,389.544 94.097,391.125 94.125 M377.000 94.959 C 377.000 95.167,377.653 95.974,377.661 95.776 C 377.664 95.699,377.517 95.445,377.333 95.212 C 377.150 94.979,377.000 94.865,377.000 94.959 " stroke="none" fill="#fcfcf4" fill-rule="evenodd"></path><path id="path2" d="" stroke="none" fill="#100fcfc" fill-rule="evenodd"></path><path id="path3" d="" stroke="none" fill="#100fcfc" fill-rule="evenodd"></path><path id="path4" d="" stroke="none" fill="#100fcfc" fill-rule="evenodd"></path></g></svg>