<svg width="29" height="30" viewBox="0 0 29 30" fill="none" xmlns="http://www.w3.org/2000/svg">
<path d="M4.7286 0L0 4.77795H23.9389L28.6674 0H4.7286Z" fill="#13BEBB"/>
<path d="M13.7418 29.9998C19.6236 29.9998 21.1026 27.6348 21.1026 24.3953C21.1026 20.4104 17.5062 19.6654 14.5149 19.1793C12.2293 18.7905 11.1874 18.5962 11.1874 17.2032C11.1874 16.1665 12.0948 15.7777 13.5738 15.7777C15.3888 15.7777 15.8929 16.2961 16.061 17.8187L20.8337 17.106C20.4302 13.8339 18.5816 12.1816 13.7081 12.1816C8.36423 12.1816 6.48203 14.3198 6.48203 17.7215C6.44853 22.1276 10.6161 22.5809 13.7081 23.0992C15.6238 23.4558 16.3636 23.7795 16.3636 25.0431C16.3636 26.0799 15.725 26.5335 13.809 26.5335C11.6916 26.5335 11.053 26.1771 10.7842 24.46L6.146 25.1403C6.58288 28.6068 8.63309 29.9998 13.7418 29.9998Z" fill="#21125E"/>
</svg>
