<svg version="1.1" viewBox="0.0 0.0 960.0 540.0" fill="none" stroke="none" stroke-linecap="square" stroke-miterlimit="10" xmlns:xlink="http://www.w3.org/1999/xlink" xmlns="http://www.w3.org/2000/svg"><clipPath id="gc4947db652_0_2.0"><path d="m0 0l960.0 0l0 540.0l-960.0 0l0 -540.0z" clip-rule="nonzero"/></clipPath><g clip-path="url(#gc4947db652_0_2.0)"><path fill="#ffffff" d="m0 0l960.0 0l0 540.0l-960.0 0z" fill-rule="evenodd"/><path fill="#000000" fill-opacity="0.0" d="m0 183.27686l960.0 0l0 173.44882l-960.0 0z" fill-rule="evenodd"/><path fill="#0d233f" d="m118.81763 220.52255q2.125 0 4.59375 0.28125q2.46875 0.265625 4.796875 0.734375q2.34375 0.453125 4.265625 0.921875q1.9375 0.46875 3.0 1.0l0 14.796875l-1.1875 0q0 -6.390625 -4.40625 -10.0625q-4.40625 -3.671875 -10.671875 -3.671875q-7.328125 0 -11.859375 4.609375q-4.53125 4.59375 -4.53125 10.734375q0 2.53125 1.125 5.9375q1.140625 3.390625 4.203125 6.328125l26.265625 24.265625q4.0 3.734375 5.328125 8.0q1.34375 4.265625 1.34375 8.265625q0 11.0625 -6.734375 18.0q-6.734375 6.921875 -18.203125 6.921875q-3.203125 0 -7.53125 -0.671875q-4.328125 -0.65625 -8.40625 -2.3125q-4.0625 -1.671875 -6.71875 -4.34375q-0.40625 -2.125 -0.40625 -5.328125q0 -3.203125 0.53125 -6.734375q0.53125 -3.53125 1.46875 -6.46875l1.203125 0q-0.671875 6.796875 1.71875 11.875q2.40625 5.0625 7.0 7.671875q4.609375 2.59375 10.46875 2.3125q7.34375 -0.390625 12.609375 -5.125q5.265625 -4.734375 5.265625 -12.734375q0 -3.859375 -1.34375 -6.984375q-1.328125 -3.140625 -3.859375 -5.421875l-25.59375 -23.71875q-4.0 -3.734375 -5.609375 -8.203125q-1.59375 -4.46875 -1.59375 -8.328125q0 -5.609375 2.65625 -10.796875q2.671875 -5.203125 7.9375 -8.46875q5.265625 -3.28125 12.875 -3.28125zm16.65625 1.34375l0 2.796875l-10.125 0l0 -2.796875l10.125 0zm58.799652 0.921875l0 92.9375l-8.65625 0l0 -92.9375l8.65625 0zm34.265625 -0.53125l0 4.0l-77.1875 0l0 -4.0l77.1875 0zm0 3.609375l0 10.796875l-1.328125 -0.140625l0 -2.265625q0 -3.328125 -2.34375 -5.59375q-2.328125 -2.265625 -5.53125 -2.40625l0 -0.390625l9.203125 0zm0 -6.0l0 3.859375l-16.265625 -1.46875q2.9375 0 6.203125 -0.390625q3.265625 -0.40625 6.0625 -0.9375q2.796875 -0.53125 4.0 -1.0625zm-42.53125 86.125l0 9.734375l-10.65625 0l0 -1.328125q0 0 0.859375 0q0.875 0 0.875 0q3.453125 0 5.921875 -2.46875q2.46875 -2.46875 2.609375 -5.9375l0.390625 0zm7.875 0l0.390625 0q0.140625 3.46875 2.609375 5.9375q2.46875 2.46875 5.921875 2.46875q0 0 0.859375 0q0.875 0 0.875 0l0 1.328125l-10.65625 0l0 -9.734375zm-33.34375 -80.125l0 0.390625q-3.328125 0.140625 -5.59375 2.40625q-2.265625 2.265625 -2.265625 5.59375l0 2.265625l-1.328125 0.140625l0 -10.796875l9.1875 0zm-9.1875 -6.0q1.328125 0.53125 4.0625 1.0625q2.734375 0.53125 6.0625 0.9375q3.328125 0.390625 6.140625 0.390625l-16.265625 1.46875l0 -3.859375zm133.59476 0.65625q14.265625 0 25.0625 6.078125q10.796875 6.0625 16.859375 17.0q6.078125 10.921875 6.078125 25.453125q0 14.546875 -6.078125 25.484375q-6.0625 10.921875 -16.859375 16.984375q-10.796875 6.0625 -25.0625 6.0625q-14.140625 0 -24.9375 -6.0625q-10.79689 -6.0625 -16.875015 -16.984375q-6.0625 -10.9375 -6.0625 -25.484375q0 -14.53125 6.0625 -25.453125q6.078125 -10.9375 16.875015 -17.0q10.796875 -6.078125 24.9375 -6.078125zm0 93.0625q11.328125 0 19.796875 -5.59375q8.46875 -5.59375 13.1875 -15.59375q4.734375 -10.0 4.734375 -23.34375q0 -13.328125 -4.734375 -23.328125q-4.71875 -10.0 -13.1875 -15.59375q-8.46875 -5.609375 -19.796875 -5.609375q-11.203125 0 -19.671875 5.609375q-8.46875 5.59375 -13.20314 15.59375q-4.734375 10.0 -4.734375 23.328125q0 13.34375 4.734375 23.34375q4.7343903 10.0 13.20314 15.59375q8.46875 5.59375 19.671875 5.59375zm77.06235 -91.1875l18.796875 0q6.0 0 10.859375 1.734375q4.875 1.734375 8.203125 5.0q3.328125 3.265625 5.125 7.875q1.8125 4.59375 1.8125 10.453125q0 6.40625 -3.0 12.28125q-3.0 5.859375 -8.140625 9.53125q-5.125 3.65625 -11.53125 3.65625q2.265625 0.9375 4.9375 3.8125q2.671875 2.859375 4.671875 5.515625q0 0 1.796875 2.609375q1.796875 2.59375 4.53125 6.328125q2.734375 3.734375 5.53125 7.34375q2.796875 3.59375 4.796875 5.71875q2.671875 2.9375 5.328125 5.203125q2.671875 2.265625 5.796875 3.609375q3.140625 1.328125 7.015625 1.328125l0 1.328125l-7.34375 0q-6.125 0 -10.59375 -1.859375q-4.46875 -1.875 -7.53125 -4.609375q-3.0625 -2.734375 -5.203125 -5.265625q-0.390625 -0.53125 -2.203125 -3.0625q-1.796875 -2.53125 -4.265625 -6.0625q-2.46875 -3.546875 -4.875 -7.0q-2.390625 -3.46875 -4.125 -5.9375q-1.734375 -2.46875 -2.0 -2.875q-2.53125 -3.328125 -5.59375 -6.125q-3.0625 -2.796875 -6.671875 -2.796875l0 -1.34375q0 0 2.0625 0.078125q2.078125 0.0625 5.015625 -0.078125q3.453125 -0.125 7.578125 -1.0625q4.140625 -0.9375 7.734375 -3.859375q3.609375 -2.9375 5.484375 -8.9375q0.390625 -1.46875 0.65625 -3.671875q0.265625 -2.203125 0.140625 -4.328125q-0.140625 -9.0625 -4.609375 -14.453125q-4.453125 -5.40625 -11.921875 -5.8125q-3.734375 -0.265625 -7.671875 -0.203125q-3.9375 0.0625 -6.609375 0.0625q-2.65625 0 -2.65625 0q0 -0.125 -0.34375 -1.125q-0.328125 -1.0 -0.65625 -2.0q-0.328125 -1.0 -0.328125 -1.0zm1.734375 0l0 93.328125l-8.671875 0l0 -93.328125l8.671875 0zm-8.265625 83.59375l0 9.734375l-10.671875 0l0 -1.328125q0 0 0.859375 0q0.875 0 0.875 0q3.46875 0 5.921875 -2.46875q2.46875 -2.46875 2.609375 -5.9375l0.40625 0zm0 -73.859375l-0.40625 0q-0.140625 -3.46875 -2.609375 -5.9375q-2.453125 -2.46875 -5.921875 -2.46875q0 0 -0.875 0q-0.859375 0 -0.859375 0l0 -1.328125l10.671875 0l0 9.734375zm7.859375 73.859375l0.40625 0q0 3.46875 2.53125 5.9375q2.53125 2.46875 6.0 2.46875q0 0 0.796875 0q0.796875 0 0.796875 0l0 1.328125l-10.53125 0l0 -9.734375zm175.98978 -83.203125l0 92.9375l-8.65625 0l0 -92.9375l8.65625 0zm34.265625 -0.53125l0 4.0l-77.1875 0l0 -4.0l77.1875 0zm0 3.609375l0 10.796875l-1.328125 -0.140625l0 -2.265625q0 -3.328125 -2.34375 -5.59375q-2.328125 -2.265625 -5.53125 -2.40625l0 -0.390625l9.203125 0zm0 -6.0l0 3.859375l-16.265625 -1.46875q2.9375 0 6.203125 -0.390625q3.265625 -0.40625 6.0625 -0.9375q2.796875 -0.53125 4.0 -1.0625zm-42.53125 86.125l0 9.734375l-10.65625 0l0 -1.328125q0 0 0.859375 0q0.875 0 0.875 0q3.453125 0 5.921875 -2.46875q2.46875 -2.46875 2.609375 -5.9375l0.390625 0zm7.875 0l0.390625 0q0.140625 3.46875 2.609375 5.9375q2.46875 2.46875 5.921875 2.46875q0 0 0.859375 0q0.875 0 0.875 0l0 1.328125l-10.65625 0l0 -9.734375zm-33.34375 -80.125l0 0.390625q-3.328125 0.140625 -5.59375 2.40625q-2.265625 2.265625 -2.265625 5.59375l0 2.265625l-1.328125 0.140625l0 -10.796875l9.1875 0zm-9.1875 -6.0q1.328125 0.53125 4.0625 1.0625q2.734375 0.53125 6.0625 0.9375q3.328125 0.390625 6.140625 0.390625l-16.265625 1.46875l0 -3.859375zm118.25098 0.65625l39.46875 94.40625l-11.328125 0l-30.796875 -81.734375l2.65625 -12.671875zm-28.65625 85.46875q-0.9375 2.671875 -0.28125 4.546875q0.671875 1.859375 2.203125 2.859375q1.546875 1.0 3.140625 1.0l1.203125 0l0 1.328125l-26.796875 0l0 -1.328125q0 0 0.59375 0q0.59375 0 0.59375 0q3.078125 0 6.34375 -1.9375q3.265625 -1.9375 5.390625 -6.46875l7.609375 0zm28.65625 -85.46875l1.203125 9.34375l-33.46875 85.453125l-8.0 0l34.140625 -81.0625q0 0 0.734375 -1.65625q0.734375 -1.671875 1.734375 -4.0625q1.0 -2.40625 1.734375 -4.671875q0.734375 -2.265625 0.734375 -3.34375l1.1875 0zm18.8125 58.796875l0 4.0l-41.734375 0l0 -4.0l41.734375 0zm5.984375 26.671875l10.9375 0q2.0 4.53125 5.328125 6.46875q3.34375 1.9375 6.40625 1.9375q0 0 0.53125 0q0.53125 0 0.53125 0l0 1.328125l-30.0 0l0 -1.328125l1.203125 0q2.53125 0 4.53125 -2.203125q2.0 -2.203125 0.53125 -6.203125zm49.210938 -83.59375l0 93.328125l-8.671875 0l0 -93.328125l8.671875 0zm36.0 89.1875l0 4.140625l-36.40625 0l0 -4.140625l36.40625 0zm8.125 -17.453125l-7.734375 21.59375l-22.125 0l4.796875 -4.140625q7.0625 0 11.53125 -2.1875q4.46875 -2.203125 7.265625 -6.203125q2.796875 -4.0 4.9375 -9.0625l1.328125 0zm-52.390625 11.859375l0 9.734375l-10.671875 0l0 -1.328125q0 0 0.859375 0q0.875 0 0.875 0q3.46875 0 5.921875 -2.46875q2.46875 -2.46875 2.609375 -5.9375l0.40625 0zm0 -73.859375l-0.40625 0q-0.140625 -3.46875 -2.609375 -5.9375q-2.453125 -2.46875 -5.921875 -2.46875q0 0 -0.875 0q-0.859375 0 -0.859375 0l0 -1.328125l10.671875 0l0 9.734375zm7.859375 0l0 -9.734375l10.671875 0l0 1.328125q-0.140625 0 -0.9375 0q-0.796875 0 -0.796875 0q-3.46875 0 -5.9375 2.46875q-2.46875 2.46875 -2.59375 5.9375l-0.40625 0zm73.33667 -9.734375l0 93.328125l-8.671875 0l0 -93.328125l8.671875 0zm-8.265625 83.59375l0 9.734375l-10.671875 0l0 -1.328125q0 0 0.859375 0q0.875 0 0.875 0q3.46875 0 5.921875 -2.46875q2.46875 -2.46875 2.609375 -5.9375l0.40625 0zm0 -73.859375l-0.40625 0q-0.140625 -3.46875 -2.609375 -5.9375q-2.453125 -2.46875 -5.921875 -2.46875q0 0 -0.875 0q-0.859375 0 -0.859375 0l0 -1.328125l10.671875 0l0 9.734375zm7.859375 73.859375l0.40625 0q0.125 3.46875 2.59375 5.9375q2.46875 2.46875 5.9375 2.46875q0 0 0.796875 0q0.796875 0 0.9375 0l0 1.328125l-10.671875 0l0 -9.734375zm0 -73.859375l0 -9.734375l10.671875 0l0 1.328125q-0.140625 0 -0.9375 0q-0.796875 0 -0.796875 0q-3.46875 0 -5.9375 2.46875q-2.46875 2.46875 -2.59375 5.9375l-0.40625 0zm66.39307 -11.609375l39.46875 94.40625l-11.328125 0l-30.796875 -81.734375l2.65625 -12.671875zm-28.65625 85.46875q-0.9375 2.671875 -0.28125 4.546875q0.671875 1.859375 2.203125 2.859375q1.546875 1.0 3.140625 1.0l1.203125 0l0 1.328125l-26.796875 0l0 -1.328125q0 0 0.59375 0q0.59375 0 0.59375 0q3.078125 0 6.34375 -1.9375q3.265625 -1.9375 5.390625 -6.46875l7.609375 0zm28.65625 -85.46875l1.203125 9.34375l-33.46875 85.453125l-8.0 0l34.140625 -81.0625q0 0 0.734375 -1.65625q0.734375 -1.671875 1.734375 -4.0625q1.0 -2.40625 1.734375 -4.671875q0.734375 -2.265625 0.734375 -3.34375l1.1875 0zm18.8125 58.796875l0 4.0l-41.734375 0l0 -4.0l41.734375 0zm5.984375 26.671875l10.9375 0q2.0 4.53125 5.328125 6.46875q3.34375 1.9375 6.40625 1.9375q0 0 0.53125 0q0.53125 0 0.53125 0l0 1.328125l-30.0 0l0 -1.328125l1.203125 0q2.53125 0 4.53125 -2.203125q2.0 -2.203125 0.53125 -6.203125z" fill-rule="nonzero"/><path fill="#000000" fill-opacity="0.0" d="m405.00888 96.30466l99.74802 0l0 342.58267l-99.74802 0z" fill-rule="evenodd"/><path fill="#0d233f" d="m467.86826 174.6484l0 186.65625l-17.328125 0l0 -186.65625l17.328125 0zm-16.53125 167.1875l0 19.46875l-21.328125 0l0 -2.671875q0 0 1.734375 0q1.734375 0 1.734375 0q6.9375 0 11.859375 -4.921875q4.9375 -4.9375 5.203125 -11.875l0.796875 0zm0 -147.71875l-0.796875 0q-0.265625 -6.9375 -5.203125 -11.875q-4.921875 -4.9375 -11.859375 -4.9375q0 0 -1.734375 0q-1.734375 0 -1.734375 0l0 -2.65625l21.328125 0l0 19.46875zm15.734375 147.71875l0.796875 0q0.265625 6.9375 5.203125 11.875q4.9375 4.921875 11.875 4.921875q0 0 1.59375 0q1.59375 0 1.859375 0l0 2.671875l-21.328125 0l0 -19.46875zm0 -147.71875l0 -19.46875l21.328125 0l0 2.65625q-0.265625 0 -1.859375 0q-1.59375 0 -1.59375 0q-6.9375 0 -11.875 4.9375q-4.9375 4.9375 -5.203125 11.875l-0.796875 0z" fill-rule="nonzero"/></g></svg>