<?xml version="1.0" encoding="utf-8"?>
<!-- Generator: Adobe Illustrator 24.2.1, SVG Export Plug-In . SVG Version: 6.00 Build 0)  -->
<svg version="1.1" xmlns="http://www.w3.org/2000/svg" xmlns:xlink="http://www.w3.org/1999/xlink" x="0px" y="0px"
	 viewBox="0 0 300 102" style="enable-background:new 0 0 300 102;" xml:space="preserve">
<style type="text/css">
	.st0{display:none;}
	.st1{fill:#3B771F;}
	.st2{fill:#D91828;}
	.st3{fill:#0C233F;}
	.st4{fill:none;stroke:#0C233D;stroke-miterlimit:10;}
	.st5{display:inline;}
	.st6{font-family:'DidotLH-Roman';}
	.st7{font-size:25.0053px;}
	.st8{letter-spacing:3;}
	.st9{font-size:68.8519px;}
	.st10{letter-spacing:8;}
</style>
<g id="Layer_1" class="st0">
	
</g>
<g id="Layer_2">
	<g>
		<g>
			<path class="st1" d="M133.4,16c-1-1.2-1.9-2.6-2.5-4.1l-0.2-0.5l0.5,0.1c0,0,0,0,0.1,0c0.1,0,0.3,0,0.4-0.2
				c0.1-0.2,0.1-0.4,0-0.8c0,0,0-0.1,0-0.1c-0.2,0-0.4,0.1-0.6,0.1c-0.8,0-1.8-0.3-3-1.4c0,0-0.5,0.7-1.7,0.7
				c-0.7,0-1.6-0.2-2.9-0.9c1.9,3.4,0.2,4.5,0.2,4.5c2.4,2.4,1.1,4.3,1.1,4.3s1,0.5,1.8,1c1.4,0.8,0.4,1.6,0.4,1.6
				c1.8,0.9,3.9,1.1,5.7,1.2c-0.8-0.5-1.4-1.5-1.4-2.5C131.5,17.5,132.3,16.4,133.4,16z"/>
			<path class="st1" d="M138.5,11.6l0.3,0.4c0,0,0.2,0.2,0.4,0.2c0.2,0,0.4-0.2,0.7-0.6c0.5-0.8,1-1.8,1-1.8l0.2-0.3l0.3,0.2
				c0,0,0.1,0.1,0.3,0.2c0.2-0.8,0.5-1.6,0.5-1.6s-2.2-0.4-2.3-3.8c0,0-0.1,0-0.1,0c-0.5,0-2-0.3-2.9-3.4c-0.9,3.1-2.4,3.4-2.9,3.4
				c-0.1,0-0.1,0-0.1,0c0,3.4-2.3,3.8-2.3,3.8s0.3,0.8,0.5,1.6c0,0.1,0,0.1,0,0.2c0,0.1,0,0.1,0,0.2c0,0,0,0.1,0,0.1
				c0.3,1.3-0.4,1.4-0.7,1.4c-0.1,0-0.1,0-0.1,0c0.5,1.5,1.5,3,2.5,4.1c0.1,0,0.2,0,0.3-0.1c0.2-0.9,0.8-1.6,1.7-2
				c0,0,0.1,0,0.1-0.1c0,0,0.1,0,0.2-0.1c0.3-0.1,0.6-0.2,1-0.2c0.3,0,0.5,0,0.7,0.1c0.2-0.5,0.4-1,0.6-1.5L138.5,11.6z"/>
			<path class="st1" d="M150,8.7c-1.2,0.7-2.2,0.9-2.9,0.9c-1.2,0-1.7-0.7-1.7-0.7c-1.2,1.1-2.2,1.4-3,1.4c-0.2,0-0.4,0-0.6-0.1
				c-0.1,0-0.1,0-0.2,0c-0.1,0-0.1,0-0.2,0c-0.3-0.1-0.4-0.2-0.4-0.2s-0.5,1-1,1.8c-0.3,0.6-0.7,0.7-0.9,0.7c-0.4,0-0.7-0.4-0.7-0.4
				c-0.2,0.5-0.4,1-0.6,1.5c0.9,0.4,1.7,1.2,1.9,2.2c0,0,0,0,0,0c0.1,0,0.1,0,0.2,0c0.1,0,0.1,0,0.2,0.1c1.1,0.4,2,1.5,2,2.8
				c0,1.1-0.6,2-1.4,2.5c1.8-0.1,3.9-0.3,5.7-1.2c0,0-1-0.8,0.4-1.6c0.8-0.5,1.8-1,1.8-1s-1.3-1.9,1.1-4.3
				C149.8,13.3,148.1,12.1,150,8.7z"/>
		</g>
		<g>
			<path class="st2" d="M136.2,16.3c0.1,0,0.1,0.1,0.2,0.1c0.1,0.1,0.1,0.1,0.2,0.2c0.1,0.1,0.2,0.2,0.3,0.3
				c0.1-0.1,0.2-0.2,0.3-0.3c0.1-0.1,0.1-0.1,0.2-0.2c0.1,0,0.1-0.1,0.2-0.1c0.5-0.3,1.1-0.5,1.7-0.5c0.1,0,0.2,0,0.3,0
				c-0.2-0.8-0.8-1.5-1.6-1.8c0,0-0.1,0-0.1-0.1c-0.1,0-0.1,0-0.2,0c-0.2-0.1-0.4-0.1-0.7-0.1c-0.3,0-0.6,0.1-0.9,0.1
				c-0.1,0-0.1,0-0.2,0.1c0,0-0.1,0-0.1,0.1c-0.7,0.3-1.2,0.9-1.4,1.7c0,0,0.1,0,0.1,0C135.1,15.8,135.7,16,136.2,16.3z"/>
			<path class="st2" d="M140.1,16.2C140,16.2,140,16.2,140.1,16.2c-0.1,0-0.1,0-0.2-0.1c0,0-0.1,0-0.1,0c0,0-0.1,0-0.1,0
				c0,0,0,0-0.1,0c-0.1,0-0.3,0-0.4,0c-0.7,0-1.3,0.2-1.8,0.7c-0.1,0-0.1,0.1-0.2,0.2c-0.1,0.1-0.1,0.1-0.2,0.2c0,0,0,0.1-0.1,0.1
				c0,0,0,0.1,0.1,0.1c0,0,0,0.1,0.1,0.1c0,0,0.1,0,0.1,0c0.1,0,0.1,0,0.2,0c0.3,0,0.6,0.1,0.8,0.2c0,0,0.1,0,0.1,0.1
				c0.1,0,0.1,0.1,0.1,0.1c0.2,0.1,0.4,0.3,0.5,0.4c0,0,0.1,0.1,0.1,0.1c0,0,0.1,0.1,0.1,0.1c0.4,0.5,0.7,1.2,0.7,1.9
				c0,0.3-0.1,0.6-0.1,0.9c0,0,0,0.1,0,0.1c0.1,0,0.2,0,0.3-0.1c1.1-0.4,1.8-1.4,1.8-2.5C141.9,17.6,141.1,16.6,140.1,16.2z"/>
			<path class="st2" d="M134,20.4c0-0.7,0.3-1.4,0.7-1.9c0,0,0.1-0.1,0.1-0.1c0,0,0.1-0.1,0.1-0.1c0.1-0.1,0.3-0.2,0.4-0.3
				c0,0,0.1-0.1,0.1-0.1c0,0,0.1-0.1,0.1-0.1c0.2-0.1,0.5-0.2,0.7-0.3c0,0,0.1,0,0.2,0c0,0,0,0,0.1,0c0,0,0.1,0,0.1,0
				c0,0,0.1,0,0.1,0c0,0,0.1,0,0.1,0c0,0,0,0,0-0.1c0,0-0.1-0.1-0.1-0.1c0,0,0-0.1-0.1-0.1c-0.1-0.1-0.1-0.1-0.2-0.2
				c-0.1-0.1-0.1-0.1-0.2-0.2c-0.5-0.4-1.1-0.7-1.8-0.7c-0.1,0-0.1,0-0.2,0c-0.1,0-0.1,0-0.2,0c0,0-0.1,0-0.1,0c0,0,0,0,0,0
				c-0.1,0-0.1,0-0.1,0c-0.1,0-0.1,0-0.2,0.1c-1.1,0.4-1.9,1.4-1.9,2.6c0,1.2,0.8,2.2,1.8,2.5c0.2,0.1,0.3,0.1,0.5,0.1
				c0,0,0-0.1,0-0.1C134,21,134,20.7,134,20.4z"/>
			<path class="st2" d="M138.9,18.6c0,0-0.1-0.1-0.1-0.1c-0.2-0.2-0.4-0.3-0.6-0.4c-0.1,0-0.1-0.1-0.2-0.1c-0.1,0-0.1,0-0.2-0.1
				c-0.2-0.1-0.4-0.1-0.6-0.2c0,0-0.1,0-0.1,0c0,0-0.1,0-0.1,0c0,0-0.1,0-0.1,0c0,0,0,0-0.1,0c0,0-0.1,0-0.1,0c0,0,0,0,0,0
				c-0.1,0-0.2,0-0.2,0c0,0-0.1,0-0.1,0c0,0-0.1,0-0.1,0c0,0-0.1,0-0.1,0c0,0-0.1,0-0.1,0c0,0,0,0-0.1,0c-0.2,0-0.4,0.1-0.5,0.2
				c0,0-0.1,0-0.1,0.1c0,0-0.1,0.1-0.1,0.1c-0.2,0.1-0.3,0.2-0.4,0.3c0,0-0.1,0.1-0.1,0.1c0,0-0.1,0.1-0.1,0.1
				c-0.4,0.5-0.6,1.1-0.6,1.7c0,0.3,0.1,0.6,0.2,0.9c0,0.1,0,0.1,0.1,0.2c0,0,0,0,0,0c0,0.1,0,0.1,0.1,0.2c0,0,0,0,0,0
				c0,0.1,0.1,0.1,0.1,0.2c0.5,0.8,1.3,1.3,2.3,1.3c1,0,1.8-0.5,2.3-1.3c0,0,0.1-0.1,0.1-0.2c0,0,0,0,0,0c0,0,0-0.1,0.1-0.1
				c0,0,0,0,0,0c0,0,0-0.1,0.1-0.1c0.1-0.3,0.2-0.6,0.2-0.9c0-0.7-0.2-1.2-0.6-1.7C139,18.6,139,18.6,138.9,18.6z"/>
		</g>
	</g>
	<g>
		<path class="st3" d="M3.9,48.6h0.4c1.7,7.8,6.1,7.8,8.8,7.8c5.1,0,6.4-3.5,6.4-5.8c0-3.4-2.8-4.7-4.8-5.3L10.5,44
			c-3.9-1.2-5.9-3.1-5.9-6.4c0-4.4,3.2-7.6,7.9-7.6c3.4,0,4.3,1.4,5.7,1.4c0.6,0,0.7-0.1,1.1-0.8h0.5v6.5h-0.4
			c-0.6-3.5-2.7-6.7-6.8-6.7c-2.3,0-6,1.1-6,4.9c0,3.1,2.7,4.2,5.2,4.9l4.4,1.4c1.8,0.6,6.2,1.7,6.2,6.6c0,4.5-3.5,8.5-9.2,8.5
			c-2,0-2.9-0.1-4.5-0.5c-0.9-0.3-2.2-0.8-3-0.8c-0.7,0-0.9,0.3-1.1,0.8H3.9V48.6z"/>
		<path class="st3" d="M36.4,55.9h4V31.2h-2.1c-1.9,0-5,0.2-6.7,6.1h-0.4v-6.6h22v6.6h-0.4c-1.7-5.9-4.8-6.1-6.7-6.1h-2.1v24.7h4
			v0.5H36.4V55.9z"/>
		<path class="st3" d="M73.8,30c6.4,0,12.6,5.8,12.6,13.5c0,6.8-5.5,13.4-12.6,13.4c-7.3,0-12.6-6.5-12.6-13.4
			C61.3,35.8,67.9,30,73.8,30z M73.8,56.4c6.2,0,8.4-4.3,8.4-12.9c0-6.6-1.4-13-8.4-13s-8.4,6.3-8.4,13
			C65.4,52.2,67.6,56.4,73.8,56.4z"/>
		<path class="st3" d="M94.5,55.9h4V31.2h-4v-0.5h6.9c0.6,0,1.2,0,1.7-0.1c0.6,0,1.2,0,1.7,0c2.8,0,4.9,0.1,6.8,1.6
			c1.7,1.3,2.3,3.1,2.3,4.5c0,1.4-0.8,5-6.4,5.7v0.1c1.6,0.2,5.8,0.9,6.7,4.2c0.5,1.9,0.4,5.3,0.8,6.9c0.3,1.3,0.8,2.5,2.2,2.5
			c0.6,0,1.3-0.3,1.9-0.8l0.3,0.4c-0.5,0.4-1.2,0.9-3.2,0.9c-3.9,0-4.9-1.9-5.2-5.6l-0.3-3.3c-0.4-4.8-3.5-4.9-5.1-4.9h-3.6v13h4
			v0.5H94.5V55.9z M102.1,42.3h3.3c2.7,0,4.5-1.2,4.5-5.6c0-5.1-2.9-5.7-5.4-5.7c-0.9,0-1.8,0-2.5,0.1V42.3z"/>
	</g>
	<g>
		<path class="st3" d="M158.5,88.5h4V63.6h-2.1c-1.9,0-5.1,0.2-6.7,6.1h-0.4v-6.7h22.1v6.7H175c-1.7-6-4.8-6.1-6.7-6.1h-2.1v24.9h4
			V89h-11.7V88.5z"/>
		<path class="st3" d="M178.6,88.5h3.2l9.8-26h0.9l9.9,26h3.2V89h-11.2v-0.5h4l-3.8-10.1h-8.4l-3.8,10.1h4V89h-7.8V88.5z
			 M190.4,67.3l-4,10.6h8L190.4,67.3z"/>
		<path class="st3" d="M211.3,88.5h4V63.6h-4v-0.5H223v0.5h-4v24.9h6.5c4.3,0,6.6-2.9,7.7-7.5h0.4v8h-22.2V88.5z"/>
		<path class="st3" d="M240.9,88.5h4V63.6h-4v-0.5h11.7v0.5h-4v24.9h4V89h-11.7V88.5z"/>
		<path class="st3" d="M258.4,88.5h3.2l9.8-26h0.9l9.9,26h3.2V89h-11.2v-0.5h4l-3.8-10.1H266l-3.8,10.1h4V89h-7.8V88.5z M270.2,67.3
			l-4,10.6h8L270.2,67.3z"/>
	</g>
	<g>
		<path class="st3" d="M294.5,83.6c2,0,3.7,1.7,3.7,3.7s-1.7,3.7-3.7,3.7s-3.7-1.7-3.7-3.7S292.5,83.6,294.5,83.6z M294.5,90.8
			c1.9,0,3.5-1.6,3.5-3.5s-1.6-3.5-3.5-3.5s-3.5,1.6-3.5,3.5S292.6,90.8,294.5,90.8z M296.1,89.4L296.1,89.4
			c-0.1-0.1-0.2-0.1-0.3-0.1c-0.2,0-0.6,0.2-1.1,0.2c-0.5,0-1-0.2-1.4-0.6c-0.4-0.4-0.7-0.9-0.7-1.6c0-1.2,0.9-2.2,2.1-2.2
			c0.5,0,0.7,0.2,1,0.2c0.2,0,0.2-0.1,0.3-0.1h0.1v1.2h-0.1c-0.1-0.6-0.4-1.2-1.3-1.2c-1.3,0-1.4,1.3-1.4,2.2c0,1.7,0.6,2.1,1.4,2.1
			c1.1,0,1.2-0.7,1.4-1.3h0.1V89.4z"/>
	</g>
	<g>
		<path class="st3" d="M121,94.3h11.1V25.7H121v-1.4h32.3v1.4h-11.1v68.5h11.1v1.4H121V94.3z"/>
	</g>
	<line class="st4" x1="153.3" y1="59.6" x2="285.9" y2="59.6"/>
	<line class="st4" x1="4.3" y1="59.6" x2="121" y2="59.6"/>
</g>
<g id="Layer_2_copy" class="st0">
	<g class="st5">
		<g>
			<path class="st1" d="M138.1,32.6c-1.9-2.3-3.7-5-4.7-7.9l-0.3-0.9l1,0.1c0,0,0.1,0,0.1,0c0.2,0,0.6,0,0.8-0.3
				c0.2-0.3,0.2-0.9,0.1-1.6c0-0.1,0-0.1-0.1-0.2c-0.3,0.1-0.7,0.1-1.1,0.1c-1.5,0-3.4-0.6-5.7-2.7c0,0-0.9,1.3-3.2,1.3
				c-1.3,0-3.1-0.4-5.5-1.8c3.7,6.5,0.5,8.7,0.5,8.7c4.5,4.6,2.1,8.2,2.1,8.2s1.9,1,3.5,1.9c2.6,1.6,0.7,3,0.7,3
				c3.3,1.6,7.4,2.2,10.8,2.3c-1.6-1-2.7-2.8-2.7-4.8C134.4,35.5,136,33.4,138.1,32.6z"/>
			<path class="st1" d="M147.9,24.3l0.6,0.8c0,0,0.4,0.5,0.8,0.5c0.4,0,0.8-0.4,1.2-1.1c0.9-1.5,1.9-3.4,1.9-3.4l0.3-0.6l0.6,0.4
				c0,0,0.2,0.2,0.7,0.3c0.4-1.5,0.9-3,0.9-3s-4.2-0.9-4.3-7.3c0,0-0.1,0-0.3,0c-0.9,0-3.9-0.5-5.5-6.5c-1.7,6-4.6,6.5-5.5,6.5
				c-0.2,0-0.3,0-0.3,0c-0.1,6.4-4.3,7.3-4.3,7.3s0.5,1.5,0.9,3c0,0.1,0.1,0.2,0.1,0.3c0,0.1,0.1,0.2,0.1,0.3c0,0.1,0,0.2,0.1,0.2
				c0.6,2.4-0.9,2.6-1.4,2.6c-0.1,0-0.2,0-0.2,0c1,2.9,2.9,5.6,4.8,7.9c0.2,0,0.3-0.1,0.5-0.1c0.4-1.7,1.6-3.1,3.2-3.9
				c0.1,0,0.2-0.1,0.3-0.1c0.1,0,0.2-0.1,0.3-0.1c0.6-0.2,1.2-0.3,1.8-0.3c0.5,0,1,0.1,1.4,0.2c0.3-1,0.7-2,1.1-2.9L147.9,24.3z"/>
			<path class="st1" d="M169.7,18.8c-2.4,1.3-4.1,1.8-5.5,1.8c-2.3,0-3.2-1.3-3.2-1.3c-2.2,2.2-4.2,2.7-5.7,2.7
				c-0.4,0-0.8,0-1.1-0.1c-0.1,0-0.2,0-0.3-0.1c-0.1,0-0.2-0.1-0.3-0.1c-0.5-0.2-0.8-0.4-0.8-0.4s-1,1.9-1.9,3.5
				c-0.6,1.1-1.3,1.4-1.8,1.4c-0.8,0-1.3-0.7-1.3-0.7c-0.4,0.9-0.8,1.9-1.1,2.8c1.8,0.7,3.2,2.2,3.6,4.1c0,0,0,0,0.1,0
				c0.1,0,0.2,0.1,0.3,0.1c0.1,0,0.2,0.1,0.3,0.1c2.2,0.8,3.7,2.9,3.7,5.4c0,2-1.1,3.8-2.7,4.8c3.4-0.1,7.4-0.7,10.8-2.3
				c0,0-1.9-1.4,0.7-3c1.5-0.9,3.5-1.9,3.5-1.9s-2.4-3.6,2.1-8.2C169.3,27.5,166.1,25.2,169.7,18.8z"/>
		</g>
		<g>
			<path class="st2" d="M143.4,33.3c0.1,0.1,0.2,0.2,0.3,0.2c0.1,0.1,0.2,0.2,0.3,0.3c0.2,0.2,0.4,0.4,0.6,0.6
				c0.2-0.2,0.4-0.4,0.6-0.6c0.1-0.1,0.2-0.2,0.3-0.3c0.1-0.1,0.2-0.2,0.3-0.2c0.9-0.6,2.1-1,3.3-1c0.2,0,0.4,0,0.7,0
				c-0.4-1.6-1.6-2.8-3.1-3.4c-0.1,0-0.2-0.1-0.3-0.1c-0.1,0-0.2-0.1-0.3-0.1c-0.4-0.1-0.8-0.2-1.3-0.2c-0.6,0-1.1,0.1-1.7,0.3
				c-0.1,0-0.2,0.1-0.3,0.1c-0.1,0-0.2,0.1-0.3,0.1c-1.3,0.6-2.3,1.8-2.7,3.2c0.1,0,0.2,0,0.2,0C141.4,32.3,142.5,32.6,143.4,33.3z"
				/>
			<path class="st2" d="M150.8,33.1c-0.1,0-0.1,0-0.2-0.1c-0.1,0-0.1,0-0.2,0c-0.1,0-0.1,0-0.2,0c-0.1,0-0.1,0-0.2,0
				c0,0-0.1,0-0.1,0c-0.3,0-0.5-0.1-0.8-0.1c-1.3,0-2.5,0.5-3.4,1.3c-0.1,0.1-0.2,0.2-0.3,0.3c-0.1,0.1-0.2,0.3-0.3,0.4
				c0,0.1-0.1,0.1-0.1,0.2c0,0.1,0.1,0.1,0.1,0.2c0,0.1,0.1,0.2,0.1,0.2c0.1,0,0.1,0,0.2,0c0.1,0,0.2,0,0.3,0
				c0.5,0.1,1.1,0.2,1.6,0.5c0.1,0,0.2,0.1,0.3,0.1c0.1,0.1,0.2,0.1,0.3,0.2c0.4,0.2,0.7,0.5,1,0.8c0.1,0.1,0.1,0.1,0.2,0.2
				c0.1,0.1,0.1,0.1,0.2,0.2c0.8,1,1.4,2.3,1.4,3.7c0,0.6-0.1,1.2-0.3,1.8c0,0.1,0,0.1-0.1,0.2c0.2,0,0.4-0.1,0.6-0.2
				c2-0.7,3.5-2.6,3.5-4.9C154.3,35.7,152.8,33.8,150.8,33.1z"/>
			<path class="st2" d="M139.1,41.1c0-1.4,0.5-2.7,1.4-3.7c0.1-0.1,0.1-0.2,0.2-0.2c0.1-0.1,0.1-0.1,0.2-0.2
				c0.2-0.2,0.5-0.4,0.8-0.6c0.1-0.1,0.2-0.1,0.3-0.2c0.1-0.1,0.2-0.1,0.3-0.2c0.4-0.2,0.9-0.4,1.4-0.5c0.1,0,0.2,0,0.3-0.1
				c0,0,0.1,0,0.1,0c0.1,0,0.1,0,0.2,0c0.1,0,0.1,0,0.2,0c0.1,0,0.1,0,0.2,0c0,0-0.1-0.1-0.1-0.1c-0.1-0.1-0.1-0.2-0.2-0.3
				c0-0.1-0.1-0.1-0.1-0.2c-0.1-0.1-0.2-0.3-0.3-0.4c-0.1-0.1-0.2-0.2-0.3-0.3c-0.9-0.8-2.1-1.3-3.4-1.3c-0.1,0-0.2,0-0.4,0
				c-0.1,0-0.2,0-0.3,0c-0.1,0-0.2,0-0.3,0c0,0,0,0,0,0c-0.1,0-0.2,0-0.3,0.1c-0.1,0-0.2,0.1-0.3,0.1c-2.1,0.7-3.6,2.6-3.6,4.9
				c0,2.3,1.5,4.2,3.5,4.9c0.3,0.1,0.7,0.2,1,0.2c0-0.1-0.1-0.2-0.1-0.2C139.2,42.3,139.1,41.7,139.1,41.1z"/>
			<path class="st2" d="M148.6,37.6c-0.1-0.1-0.1-0.1-0.2-0.2c-0.3-0.3-0.7-0.6-1.1-0.8c-0.1-0.1-0.2-0.1-0.3-0.2
				c-0.1,0-0.2-0.1-0.3-0.1c-0.4-0.1-0.7-0.2-1.1-0.3c0,0-0.1,0-0.1,0c0,0-0.1,0-0.1,0c-0.1,0-0.1,0-0.2,0c0,0-0.1,0-0.1,0
				c-0.1,0-0.1,0-0.2,0c0,0,0,0,0,0c-0.1,0-0.3,0-0.4,0c-0.1,0-0.1,0-0.2,0c0,0-0.1,0-0.1,0c-0.1,0-0.1,0-0.2,0c-0.1,0-0.1,0-0.2,0
				c0,0-0.1,0-0.1,0c-0.3,0.1-0.7,0.2-1,0.3c-0.1,0-0.2,0.1-0.3,0.1c-0.1,0.1-0.2,0.1-0.3,0.2c-0.3,0.2-0.6,0.4-0.8,0.6
				c-0.1,0.1-0.1,0.1-0.2,0.2c-0.1,0.1-0.1,0.1-0.2,0.2c-0.7,0.9-1.2,2-1.2,3.3c0,0.6,0.1,1.2,0.3,1.8c0,0.1,0.1,0.2,0.1,0.3
				c0,0,0,0,0,0c0,0.1,0.1,0.2,0.1,0.3c0,0,0,0,0,0c0.1,0.1,0.1,0.2,0.2,0.3c0.9,1.5,2.5,2.5,4.4,2.5c1.9,0,3.5-1,4.4-2.5
				c0.1-0.1,0.1-0.2,0.2-0.3c0,0,0,0,0,0c0-0.1,0.1-0.2,0.1-0.3c0,0,0,0,0,0c0-0.1,0.1-0.2,0.1-0.3c0.2-0.6,0.3-1.1,0.3-1.8
				c0-1.2-0.4-2.4-1.2-3.3C148.8,37.8,148.7,37.7,148.6,37.6z"/>
		</g>
		<text transform="matrix(1 0 0 1 51.2503 70.3962)" class="st3 st6 st7 st8">STOR</text>
		<text transform="matrix(1 0 0 1 155.0033 92.8073)" class="st3 st6 st7 st8">Talia</text>
		<text transform="matrix(1 0 0 1 131.6649 97.3981)" class="st3 st6 st9 st10">i</text>
		<line class="st4" x1="155.8" y1="72.4" x2="246.5" y2="72.4"/>
		<line class="st4" x1="53.4" y1="72.4" x2="133.3" y2="72.4"/>
	</g>
</g>
</svg>
