<svg width="128" height="40" viewBox="0 0 128 40" fill="none" xmlns="http://www.w3.org/2000/svg">
<path d="M32.3725 6.36363L2.67029e-05 6.36363L6.3946 -3.8147e-06L38.7671 -3.8147e-06L32.3725 6.36363Z" fill="#3EE7CD"/>
<path d="M18.5791 39.9568C26.5331 39.9568 28.533 36.807 28.533 32.4921C28.533 27.1848 23.6697 26.1923 19.6245 25.5451C16.5338 25.0273 15.1248 24.7684 15.1248 22.913C15.1248 21.5322 16.352 21.0145 18.3519 21.0145C20.8062 21.0145 21.488 21.7048 21.7153 23.7328L28.1693 22.7836C27.6239 18.4255 25.1241 16.2249 18.5337 16.2249C11.3069 16.2249 8.76164 19.0727 8.76164 23.6034C8.71619 29.4716 14.3522 30.0757 18.5337 30.7661C21.1244 31.2408 22.1243 31.6722 22.1243 33.3551C22.1243 34.7358 21.2607 35.3399 18.67 35.3399C15.8066 35.3399 14.943 34.8653 14.5794 32.5784L8.30713 33.4845C8.898 38.1014 11.6705 39.9568 18.5791 39.9568Z" fill="#21125E"/>
<path d="M38.5809 39.9568C42.1261 39.9568 43.7169 38.835 44.8532 37.1953V39.6548H51.2618V24.0349C51.2618 18.8139 49.2165 16.1818 42.1261 16.1818C35.2629 16.1818 32.854 18.0803 31.8995 22.7404L38.2627 23.6897C38.6718 21.7048 39.2627 21.1008 41.8988 21.1008C44.4441 21.1008 44.8532 22.1363 44.8532 23.8623V25.4588H41.8534C33.7176 25.4588 30.9451 27.8751 30.9451 32.7941C30.9451 37.6268 33.4449 39.9568 38.5809 39.9568ZM41.3989 35.2105C38.3536 35.2105 37.2628 34.5632 37.2628 32.4058C37.2628 30.4641 38.3536 29.6874 41.6261 29.6874H44.8986V31.9311C44.8986 34.0886 43.8078 35.2105 41.3989 35.2105Z" fill="#21125E"/>
<path d="M56.0562 39.6548H62.6012V6.36363L56.0562 12.7273V39.6548Z" fill="#21125E"/>
<path d="M76.8612 40C84.4061 40 86.4059 36.5481 86.8605 33.0962L80.6336 32.19C80.3609 34.2612 79.9519 35.3399 76.8612 35.3399C73.725 35.3399 73.0433 33.8297 73.0433 31.8448V29.9463H86.8605V25.804C86.8605 20.022 84.5424 16.1818 76.8612 16.1818C69.2708 16.1818 66.6801 20.0652 66.6801 24.9842V31.1976C66.6801 35.9871 69.3163 40 76.8612 40ZM73.0433 25.5882V24.4232C73.0433 22.3952 73.9977 21.0145 76.8612 21.0145C79.6337 21.0145 80.5427 22.1795 80.5427 24.4232V25.5882H73.0433Z" fill="#21125E"/>
<path d="M100.26 34.9947C97.6239 34.9947 96.3058 33.6571 96.3058 31.4997V24.8547C96.3058 22.6541 97.6239 21.3165 100.26 21.3165C102.896 21.3165 104.305 22.6541 104.305 24.8547V31.4997C104.305 33.6571 102.896 34.9947 100.26 34.9947ZM100.26 40C107.76 40 110.85 36.246 110.85 31.1976V24.9842C110.85 19.8494 107.76 16.1818 100.26 16.1818C92.7606 16.1818 89.7608 19.8494 89.7608 24.9842V31.1976C89.7608 36.246 92.7151 40 100.26 40Z" fill="#21125E"/>
<path d="M114.728 39.6548H121.273V24.7684C121.273 22.4384 123.955 21.4891 127.091 21.4891H128V16.2681H127.091C124.5 16.3112 122.591 17.4331 121.273 19.3316V16.527H114.728V39.6548Z" fill="#21125E"/>
</svg>
