<svg version="1.1" viewBox="0.0 0.0 447.501312335958 151.501312335958" fill="none" stroke="none" stroke-linecap="square" stroke-miterlimit="10" xmlns:xlink="http://www.w3.org/1999/xlink" xmlns="http://www.w3.org/2000/svg"><clipPath id="p.0"><path d="m0 0l447.5013 0l0 151.50131l-447.5013 0l0 -151.50131z" clip-rule="nonzero"/></clipPath><g clip-path="url(#p.0)"><path fill="#000000" fill-opacity="0.0" d="m0 0l447.5013 0l0 151.50131l-447.5013 0z" fill-rule="evenodd"/><path fill="#000000" fill-opacity="0.0" d="m11.136483 30.598425l425.22836 0l0 92.72441l-425.22836 0z" fill-rule="evenodd"/><path fill="#0d233f" d="m36.85827 53.855965q1.09375 0 2.34375 0.140625q1.265625 0.125 2.453125 0.375q1.1875 0.234375 2.171875 0.46875q1.0 0.234375 1.53125 0.5l0 7.546875l-0.609375 0q0 -3.25 -2.25 -5.125q-2.234375 -1.875 -5.4375 -1.875q-3.734375 0 -6.046875 2.359375q-2.3125 2.34375 -2.3125 5.46875q0 1.28125 0.578125 3.015625q0.578125 1.734375 2.140625 3.234375l13.40625 12.375q2.03125 1.90625 2.703125 4.09375q0.6875 2.171875 0.6875 4.203125q0 5.640625 -3.4375 9.1875q-3.421875 3.53125 -9.28125 3.53125q-1.625 0 -3.84375 -0.34375q-2.203125 -0.34375 -4.28125 -1.1875q-2.0625 -0.84375 -3.4375 -2.203125q-0.203125 -1.09375 -0.203125 -2.71875q0 -1.640625 0.265625 -3.4375q0.28125 -1.8125 0.765625 -3.296875l0.609375 0q-0.34375 3.46875 0.875 6.046875q1.234375 2.578125 3.578125 3.90625q2.34375 1.328125 5.34375 1.1875q3.734375 -0.203125 6.421875 -2.609375q2.6875 -2.421875 2.6875 -6.5q0 -1.96875 -0.6875 -3.5625q-0.671875 -1.609375 -1.96875 -2.765625l-13.0625 -12.09375q-2.03125 -1.90625 -2.859375 -4.1875q-0.8125 -2.28125 -0.8125 -4.25q0 -2.859375 1.359375 -5.5q1.359375 -2.65625 4.046875 -4.3125q2.6875 -1.671875 6.5625 -1.671875zm8.5 0.671875l0 1.4375l-5.15625 0l0 -1.4375l5.15625 0zm29.987534 0.484375l0 47.390625l-4.40625 0l0 -47.390625l4.40625 0zm17.484375 -0.28125l0 2.046875l-39.375 0l0 -2.046875l39.375 0zm0 1.84375l0 5.5l-0.6875 -0.0625l0 -1.15625q0 -1.703125 -1.1875 -2.859375q-1.1875 -1.15625 -2.8125 -1.21875l0 -0.203125l4.6875 0zm0 -3.0625l0 1.96875l-8.296875 -0.75q1.5 0 3.15625 -0.203125q1.671875 -0.203125 3.09375 -0.46875q1.4375 -0.28125 2.046875 -0.546875zm-21.6875 43.921875l0 4.96875l-5.453125 0l0 -0.6875q0 0 0.4375 0q0.453125 0 0.453125 0q1.765625 0 3.015625 -1.25q1.265625 -1.265625 1.34375 -3.03125l0.203125 0zm4.0 0l0.203125 0q0.078125 1.765625 1.328125 3.03125q1.265625 1.25 3.03125 1.25q0 0 0.4375 0q0.4375 0 0.4375 0l0 0.6875l-5.4375 0l0 -4.96875zm-17.0 -40.859375l0 0.203125q-1.6875 0.0625 -2.84375 1.21875q-1.15625 1.15625 -1.15625 2.859375l0 1.15625l-0.6875 0.0625l0 -5.5l4.6875 0zm-4.6875 -3.0625q0.6875 0.265625 2.078125 0.546875q1.390625 0.265625 3.09375 0.46875q1.703125 0.203125 3.125 0.203125l-8.296875 0.75l0 -1.96875z" fill-rule="nonzero"/><path fill="#0d233f" d="m123.854225 52.90284q7.4218826 0 13.031258 3.15625q5.625 3.15625 8.78125 8.84375q3.15625 5.671875 3.15625 13.234375q0 7.5625 -3.15625 13.25q-3.15625 5.671875 -8.78125 8.828125q-5.609375 3.15625 -13.031258 3.15625q-7.34375 0 -12.96875 -3.15625q-5.609375 -3.15625 -8.765625 -8.828125q-3.140625 -5.6875 -3.140625 -13.25q0 -7.5625 3.140625 -13.234375q3.15625 -5.6875 8.765625 -8.84375q5.625 -3.15625 12.96875 -3.15625zm0 48.390625q5.9062576 0 10.296883 -2.90625q4.40625 -2.921875 6.859375 -8.109375q2.46875 -5.203125 2.46875 -12.140625q0 -6.9375 -2.46875 -12.125q-2.453125 -5.203125 -6.859375 -8.109375q-4.390625 -2.921875 -10.296883 -2.921875q-5.8125 0 -10.21875 2.921875q-4.40625 2.90625 -6.875 8.109375q-2.453125 5.1875 -2.453125 12.125q0 6.9375 2.453125 12.140625q2.46875 5.1875 6.875 8.109375q4.40625 2.90625 10.21875 2.90625zm40.08526 -47.421875l9.765625 0q3.125 0 5.65625 0.90625q2.53125 0.890625 4.265625 2.59375q1.734375 1.703125 2.65625 4.09375q0.9375 2.390625 0.9375 5.4375q0 3.328125 -1.5625 6.390625q-1.546875 3.046875 -4.21875 4.953125q-2.671875 1.90625 -6.0 1.90625q1.1875 0.484375 2.5625 1.984375q1.390625 1.484375 2.4375 2.859375q0 0 0.921875 1.359375q0.9375 1.34375 2.359375 3.296875q1.421875 1.9375 2.875 3.8125q1.46875 1.859375 2.5 2.96875q1.390625 1.53125 2.765625 2.71875q1.390625 1.171875 3.015625 1.875q1.640625 0.6875 3.65625 0.6875l0 0.6875l-3.8125 0q-3.1875 0 -5.515625 -0.96875q-2.328125 -0.96875 -3.921875 -2.390625q-1.59375 -1.421875 -2.703125 -2.734375q-0.203125 -0.28125 -1.140625 -1.59375q-0.9375 -1.328125 -2.21875 -3.15625q-1.28125 -1.84375 -2.53125 -3.640625q-1.25 -1.8125 -2.15625 -3.09375q-0.890625 -1.28125 -1.03125 -1.484375q-1.3125 -1.734375 -2.921875 -3.1875q-1.59375 -1.453125 -3.453125 -1.453125l0 -0.703125q0 0 1.0625 0.046875q1.078125 0.03125 2.609375 -0.046875q1.796875 -0.0625 3.9375 -0.546875q2.15625 -0.484375 4.03125 -2.015625q1.875 -1.53125 2.84375 -4.640625q0.203125 -0.765625 0.34375 -1.90625q0.140625 -1.140625 0.078125 -2.25q-0.078125 -4.71875 -2.40625 -7.53125q-2.3125 -2.8125 -6.203125 -3.015625q-1.9375 -0.140625 -3.984375 -0.09375q-2.046875 0.03125 -3.4375 0.03125q-1.375 0 -1.375 0q0 -0.078125 -0.171875 -0.59375q-0.171875 -0.515625 -0.34375 -1.03125q-0.171875 -0.53125 -0.171875 -0.53125zm0.890625 0l0 48.53125l-4.5 0l0 -48.53125l4.5 0zm-4.296875 43.46875l0 5.0625l-5.546875 0l0 -0.6875q0 0 0.453125 0q0.453125 0 0.453125 0q1.796875 0 3.078125 -1.28125q1.28125 -1.296875 1.359375 -3.09375l0.203125 0zm0 -38.40625l-0.203125 0q-0.078125 -1.796875 -1.359375 -3.078125q-1.28125 -1.296875 -3.078125 -1.296875q0 0 -0.453125 0q-0.453125 0 -0.453125 0l0 -0.6875l5.546875 0l0 5.0625zm4.09375 38.40625l0.203125 0q0 1.796875 1.3125 3.09375q1.328125 1.28125 3.125 1.28125q0 0 0.40625 0q0.421875 0 0.421875 0l0 0.6875l-5.46875 0l0 -5.0625z" fill-rule="nonzero"/><path fill="#0d233f" d="m256.6793 55.012215l0 47.390625l-4.40625 0l0 -47.390625l4.40625 0zm17.484344 -0.28125l0 2.046875l-39.37497 0l0 -2.046875l39.37497 0zm0 1.84375l0 5.5l-0.6875 -0.0625l0 -1.15625q0 -1.703125 -1.1875 -2.859375q-1.1875 -1.15625 -2.8125 -1.21875l0 -0.203125l4.6875 0zm0 -3.0625l0 1.96875l-8.2968445 -0.75q1.4999695 0 3.1562195 -0.203125q1.671875 -0.203125 3.09375 -0.46875q1.4375 -0.28125 2.046875 -0.546875zm-21.68747 43.921875l0 4.96875l-5.453125 0l0 -0.6875q0 0 0.4375 0q0.453125 0 0.453125 0q1.765625 0 3.015625 -1.25q1.265625 -1.265625 1.34375 -3.03125l0.203125 0zm4.0 0l0.203125 0q0.078125 1.765625 1.328125 3.03125q1.265625 1.25 3.03125 1.25q0 0 0.4375 0q0.4375 0 0.4375 0l0 0.6875l-5.4375 0l0 -4.96875zm-17.0 -40.859375l0 0.203125q-1.6875 0.0625 -2.84375 1.21875q-1.15625 1.15625 -1.15625 2.859375l0 1.15625l-0.6875 0.0625l0 -5.5l4.6875 0zm-4.6875 -3.0625q0.6875 0.265625 2.078125 0.546875q1.390625 0.265625 3.09375 0.46875q1.703125 0.203125 3.125 0.203125l-8.296875 0.75l0 -1.96875zm60.310913 0.34375l20.140625 48.140625l-5.78125 0l-15.71875 -41.6875l1.359375 -6.453125zm-14.609375 43.578125q-0.484375 1.359375 -0.140625 2.3125q0.34375 0.953125 1.125 1.46875q0.78125 0.5 1.59375 0.5l0.609375 0l0 0.6875l-13.671875 0l0 -0.6875q0 0 0.3125 0q0.3125 0 0.3125 0q1.5625 0 3.21875 -0.984375q1.671875 -0.984375 2.765625 -3.296875l3.875 0zm14.609375 -43.578125l0.625 4.75l-17.078125 43.59375l-4.078125 0l17.40625 -41.34375q0 0 0.375 -0.84375q0.375 -0.859375 0.875 -2.078125q0.515625 -1.234375 0.890625 -2.390625q0.375 -1.15625 0.375 -1.6875l0.609375 0zm9.59375 29.984375l0 2.03125l-21.28125 0l0 -2.03125l21.28125 0zm3.0625 13.59375l5.578125 0q1.015625 2.3125 2.71875 3.296875q1.703125 0.984375 3.265625 0.984375q0 0 0.265625 0q0.265625 0 0.265625 0l0 0.6875l-15.296875 0l0 -0.6875l0.609375 0q1.296875 0 2.3125 -1.109375q1.03125 -1.125 0.28125 -3.171875zm25.087921 -42.625l0 47.59375l-4.421875 0l0 -47.59375l4.421875 0zm18.359375 45.484375l0 2.109375l-18.5625 0l0 -2.109375l18.5625 0zm4.15625 -8.90625l-3.953125 11.015625l-11.28125 0l2.4375 -2.109375q3.609375 0 5.890625 -1.125q2.28125 -1.125 3.703125 -3.15625q1.421875 -2.046875 2.515625 -4.625l0.6875 0zm-26.734375 6.046875l0 4.96875l-5.4375 0l0 -0.6875q0 0 0.4375 0q0.453125 0 0.453125 0q1.765625 0 3.015625 -1.25q1.265625 -1.265625 1.328125 -3.03125l0.203125 0zm0 -37.671875l-0.203125 0q-0.0625 -1.765625 -1.328125 -3.015625q-1.25 -1.265625 -3.015625 -1.265625q0 0 -0.453125 0q-0.4375 0 -0.4375 0l0 -0.671875l5.4375 0l0 4.953125zm4.015625 0l0 -4.953125l5.4375 0l0 0.671875q-0.0625 0 -0.46875 0q-0.40625 0 -0.40625 0q-1.78125 0 -3.046875 1.265625q-1.25 1.25 -1.3125 3.015625l-0.203125 0zm37.39917 -4.953125l0 47.59375l-4.421875 0l0 -47.59375l4.421875 0zm-4.21875 42.625l0 4.96875l-5.4375 0l0 -0.6875q0 0 0.4375 0q0.453125 0 0.453125 0q1.765625 0 3.015625 -1.25q1.265625 -1.265625 1.328125 -3.03125l0.203125 0zm0 -37.671875l-0.203125 0q-0.0625 -1.765625 -1.328125 -3.015625q-1.25 -1.265625 -3.015625 -1.265625q0 0 -0.453125 0q-0.4375 0 -0.4375 0l0 -0.671875l5.4375 0l0 4.953125zm4.015625 37.671875l0.203125 0q0.0625 1.765625 1.3125 3.03125q1.265625 1.25 3.046875 1.25q0 0 0.40625 0q0.40625 0 0.46875 0l0 0.6875l-5.4375 0l0 -4.96875zm0 -37.671875l0 -4.953125l5.4375 0l0 0.671875q-0.0625 0 -0.46875 0q-0.40625 0 -0.40625 0q-1.78125 0 -3.046875 1.265625q-1.25 1.25 -1.3125 3.015625l-0.203125 0zm33.85904 -5.90625l20.140625 48.140625l-5.78125 0l-15.71875 -41.6875l1.359375 -6.453125zm-14.609375 43.578125q-0.484375 1.359375 -0.140625 2.3125q0.34375 0.953125 1.125 1.46875q0.78125 0.5 1.59375 0.5l0.609375 0l0 0.6875l-13.671875 0l0 -0.6875q0 0 0.3125 0q0.3125 0 0.3125 0q1.5625 0 3.21875 -0.984375q1.671875 -0.984375 2.765625 -3.296875l3.875 0zm14.609375 -43.578125l0.625 4.75l-17.078125 43.59375l-4.078125 0l17.40625 -41.34375q0 0 0.375 -0.84375q0.375 -0.859375 0.875 -2.078125q0.515625 -1.234375 0.890625 -2.390625q0.375 -1.15625 0.375 -1.6875l0.609375 0zm9.59375 29.984375l0 2.03125l-21.28125 0l0 -2.03125l21.28125 0zm3.0625 13.59375l5.578125 0q1.015625 2.3125 2.71875 3.296875q1.703125 0.984375 3.265625 0.984375q0 0 0.265625 0q0.265625 0 0.265625 0l0 0.6875l-15.296875 0l0 -0.6875l0.609375 0q1.296875 0 2.3125 -1.109375q1.03125 -1.125 0.28125 -3.171875z" fill-rule="nonzero"/><path fill="#000000" fill-opacity="0.0" d="m194.14088 9.587084l44.031494 0l0 137.10237l-44.031494 0z" fill-rule="evenodd"/><path fill="#0d233f" d="m218.68776 40.33083l0 74.65625l-6.9375 0l0 -74.65625l6.9375 0zm-6.609375 66.875l0 7.78125l-8.53125 0l0 -1.0625q0 0 0.6875 0q0.6875 0 0.6875 0q2.78125 0 4.75 -1.96875q1.96875 -1.984375 2.078125 -4.75l0.328125 0zm0 -59.093746l-0.328125 0q-0.109375 -2.765625 -2.078125 -4.734375q-1.96875 -1.984375 -4.75 -1.984375q0 0 -0.6875 0q-0.6875 0 -0.6875 0l0 -1.0625l8.53125 0l0 7.78125zm6.28125 59.093746l0.328125 0q0.109375 2.765625 2.078125 4.75q1.96875 1.96875 4.75 1.96875q0 0 0.640625 0q0.640625 0 0.734375 0l0 1.0625l-8.53125 0l0 -7.78125zm0 -59.093746l0 -7.78125l8.53125 0l0 1.0625q-0.09375 0 -0.734375 0q-0.640625 0 -0.640625 0q-2.78125 0 -4.75 1.984375q-1.96875 1.96875 -2.078125 4.734375l-0.328125 0z" fill-rule="nonzero"/></g></svg>