<svg width="117" height="40" viewBox="0 0 110 40" fill="none"
    xmlns="http://www.w3.org/2000/svg">
    <mask id="mask0" mask-type="alpha" maskUnits="userSpaceOnUse" x="0" y="1" width="117" height="39">
        <path fill-rule="evenodd" clip-rule="evenodd" d="M0 1.45288H116.146V39.9999H0V1.45288Z" fill="white"/>
    </mask>
    <g mask="url(#mask0)">
        <path fill-rule="evenodd" clip-rule="evenodd" d="M19.328 39.9603C26.4611 39.9603 28.2548 37.0799 28.2548 33.1341C28.2548 28.2807 23.8932 27.3733 20.2655 26.7813C17.4938 26.3079 16.2301 26.0713 16.2301 24.3745C16.2301 23.1121 17.3306 22.6383 19.1243 22.6383C21.3254 22.6383 21.9367 23.2697 22.1406 25.1241L27.9287 24.2561C27.4393 20.2709 25.1975 18.2588 19.2872 18.2588C12.8064 18.2588 10.5237 20.8629 10.5237 25.0057C10.4831 30.3721 15.5374 30.9245 19.2872 31.5557C21.6104 31.9899 22.5075 32.3843 22.5075 33.9233C22.5075 35.1859 21.7331 35.7383 19.4095 35.7383C16.8416 35.7383 16.0672 35.3043 15.7411 33.2131L10.1162 34.0417C10.646 38.2637 13.1324 39.9603 19.328 39.9603Z" fill="#28234A"/>
        <path fill-rule="evenodd" clip-rule="evenodd" d="M37.9866 35.6198C35.2554 35.6198 34.2774 35.028 34.2774 33.055C34.2774 31.2794 35.2554 30.5692 38.1904 30.5692H41.1252V32.621C41.1252 34.5938 40.147 35.6198 37.9866 35.6198ZM35.4592 39.9604C38.6386 39.9604 40.0654 38.9344 41.0844 37.435V39.6842H46.8314V25.4004C46.8314 20.6262 44.9971 18.2192 38.6386 18.2192C32.4836 18.2192 30.3235 19.9552 29.4674 24.2168L35.174 25.0848C35.5407 23.2698 36.0707 22.7172 38.4348 22.7172C40.7175 22.7172 41.0844 23.6642 41.0844 25.2428V26.7028H38.394C31.0979 26.7028 28.6113 28.9122 28.6113 33.4104C28.6113 37.8296 30.8533 39.9604 35.4592 39.9604Z" fill="#28234A"/>
        <path fill-rule="evenodd" clip-rule="evenodd" d="M48.2988 39.684H54.1686V9.24097L48.2988 15.0603V39.684Z" fill="#28234A"/>
        <path fill-rule="evenodd" clip-rule="evenodd" d="M61.3424 26.8205V25.7553C61.3424 23.9009 62.1985 22.6379 64.7664 22.6379C67.2528 22.6379 68.0682 23.7035 68.0682 25.7553V26.8205H61.3424ZM64.7651 39.9999C71.5316 39.9999 73.325 36.8431 73.7326 33.6865L68.1485 32.8579C67.9039 34.7519 67.537 35.7383 64.7651 35.7383C61.9529 35.7383 61.3412 34.3573 61.3412 32.5423V30.8063H73.7326V27.0183C73.7326 21.7309 71.6537 18.2192 64.7651 18.2192C57.9582 18.2192 55.6348 21.7705 55.6348 26.2687V31.9505C55.6348 36.3303 57.9989 39.9999 64.7651 39.9999Z" fill="#28234A"/>
        <path fill-rule="evenodd" clip-rule="evenodd" d="M84.616 40C91.3414 40 94.113 36.5672 94.113 31.9506V26.2688C94.113 21.5734 91.3414 18.2192 84.616 18.2192C77.8902 18.2192 75.2002 21.5734 75.2002 26.2688V31.9506C75.2002 36.5672 77.8495 40 84.616 40ZM84.6153 35.4226C82.251 35.4226 81.069 34.1996 81.069 32.2266V26.1502C81.069 24.138 82.251 22.9148 84.6153 22.9148C86.9794 22.9148 88.2428 24.138 88.2428 26.1502V32.2266C88.2428 34.1996 86.9794 35.4226 84.6153 35.4226Z" fill="#28234A"/>
        <path fill-rule="evenodd" clip-rule="evenodd" d="M104.597 24.2409H101.451V39.5606H95.5813V24.2409H95.5811L101.316 18.4219H110.331L104.597 24.2409Z" fill="#28234A"/>
    </g>
    <path fill-rule="evenodd" clip-rule="evenodd" d="M26.5201 0L18.7949 8.0492H37.8787L45.6039 0H26.5201Z" fill="#8AC4EB"/>
    <path fill-rule="evenodd" clip-rule="evenodd" d="M10.5537 3.33057L3.31641 10.5471H28.4157L35.653 3.33057H10.5537Z" stroke="#28234A" stroke-width="1.2182" stroke-linecap="round" stroke-linejoin="round"/>
</svg>
