<svg width="40" height="36" viewBox="0 0 40 36" fill="none" xmlns="http://www.w3.org/2000/svg">
  <path fill-rule="evenodd" clip-rule="evenodd" d="M15.4237 36C21.8496 36 23.4655 33.4051 23.4655 29.8505C23.4655 25.4782 19.5363 24.6607 16.2682 24.1274C13.7712 23.7009 12.6329 23.4878 12.6329 21.9592C12.6329 20.8219 13.6243 20.3951 15.2401 20.3951C17.223 20.3951 17.7737 20.9639 17.9575 22.6345L23.1718 21.8525C22.7309 18.2624 20.7113 16.4497 15.3869 16.4497C9.5485 16.4497 7.49213 18.7957 7.49213 22.5278C7.45553 27.3623 12.0088 27.8599 15.3869 28.4285C17.4798 28.8197 18.288 29.175 18.288 30.5614C18.288 31.6989 17.5903 32.1965 15.4971 32.1965C13.1837 32.1965 12.4861 31.8055 12.1923 29.9216L7.125 30.6681C7.60231 34.4716 9.84224 36 15.4237 36" fill="#28234A"/>
  <path fill-rule="evenodd" clip-rule="evenodd" d="M21.9028 0L14.9434 7.2513H32.1354L39.0948 0H21.9028Z" fill="#8AC4EB"/>
  <path fill-rule="evenodd" clip-rule="evenodd" d="M7.51984 3L1 9.50116H23.6112L30.1311 3H7.51984Z" stroke="#28234A" stroke-width="1.2182" stroke-linecap="round" stroke-linejoin="round"/>
</svg>
