<svg xmlns="http://www.w3.org/2000/svg" width="22.573" height="20.855" viewBox="0 0 22.573 20.855"><defs><style>.a{fill:#fff;}.b{fill:none;stroke:#fff;stroke-linecap:round;stroke-width:1.2px;}</style></defs><path class="a" d="M3.22,19.477H19.353a3.224,3.224,0,0,1,3.22,3.22V33.585a3.224,3.224,0,0,1-3.22,3.22H18.089l-.025,2.843a.69.69,0,0,1-1.112.54l-4.383-3.383H3.22A3.224,3.224,0,0,1,0,33.585V22.7A3.224,3.224,0,0,1,3.22,19.477ZM1.38,33.585a1.842,1.842,0,0,0,1.84,1.84H12.8a.69.69,0,0,1,.422.144l3.47,2.678.019-2.138a.69.69,0,0,1,.69-.684h1.948a1.842,1.842,0,0,0,1.84-1.84V22.7a1.842,1.842,0,0,0-1.84-1.84H3.22A1.842,1.842,0,0,0,1.38,22.7V33.585Z" transform="translate(0 -19.477)"/><line class="b" x2="11.537" transform="translate(5.518 5.545)"/><line class="b" x2="11.537" transform="translate(5.518 8.408)"/><line class="b" x2="11.537" transform="translate(5.518 11.27)"/></svg>