<svg xmlns="http://www.w3.org/2000/svg" width="24" height="24" viewBox="0 0 24 24"><path d="M0 0v24h24v-24h-24zm12 20c-.825 0-1.62-.125-2.369-.357.326-.531.813-1.402.994-2.098l.499-1.901c.261.498 1.023.918 1.833.918 2.413 0 4.151-2.219 4.151-4.976 0-2.643-2.157-4.62-4.932-4.62-3.452 0-5.286 2.317-5.286 4.841 0 1.174.625 2.634 1.624 3.1.151.07.232.039.268-.107l.222-.907c.019-.081.01-.15-.056-.23-.331-.4-.595-1.138-.595-1.825 0-1.765 1.336-3.472 3.612-3.472 1.965 0 3.341 1.339 3.341 3.255 0 2.164-1.093 3.663-2.515 3.663-.786 0-1.374-.649-1.185-1.446.226-.951.663-1.977.663-2.664 0-.614-.33-1.127-1.012-1.127-.803 0-1.448.831-1.448 1.943 0 .709.239 1.188.239 1.188s-.793 3.353-.938 3.977c-.161.691-.098 1.662-.028 2.294-2.974-1.165-5.082-4.06-5.082-7.449 0-4.418 3.582-8 8-8s8 3.582 8 8-3.582 8-8 8z"/></svg>