<svg xmlns="http://www.w3.org/2000/svg" width="24.654" height="18.944" viewBox="0 0 24.654 18.944"><defs><style>.a{fill:#188c72;}.b{fill:none;stroke:#188c72;stroke-linecap:round;}</style></defs><path class="a" d="M19.942,18.208H10.283a2.544,2.544,0,0,1-2.466-1.72L4.551,5.978A1.525,1.525,0,0,0,3.071,4.947H.514A.475.475,0,1,1,.514,4H3.071A2.544,2.544,0,0,1,5.538,5.72l.644,2.069h16.93a1.571,1.571,0,0,1,1.236.572,1.318,1.318,0,0,1,.239,1.256l-2.21,6.962A2.554,2.554,0,0,1,19.942,18.208ZM6.476,8.736,8.8,16.23a1.523,1.523,0,0,0,1.478,1.031h9.659A1.546,1.546,0,0,0,21.4,16.3L23.6,9.346a.44.44,0,0,0-.08-.419.521.521,0,0,0-.412-.191Z" transform="translate(0 -4)"/><path class="a" d="M11.054,23.789a1.9,1.9,0,1,1,0-3.789,1.9,1.9,0,1,1,0,3.789Zm0-2.842a.95.95,0,1,0,1.027.947A.991.991,0,0,0,11.054,20.947Z" transform="translate(0.245 -4.844)"/><path class="a" d="M18.054,23.789a1.9,1.9,0,1,1,2.054-1.894A1.981,1.981,0,0,1,18.054,23.789Zm0-2.842a.95.95,0,1,0,1.027.947A.991.991,0,0,0,18.054,20.947Z" transform="translate(0.436 -4.844)"/><line class="b" y2="4.51" transform="translate(15.487 6.466)"/><line class="b" x2="4.891" transform="translate(13.042 8.721)"/></svg>