<?xml version="1.0" encoding="utf-8"?>
<!-- Generator: Adobe Illustrator 24.2.1, SVG Export Plug-In . SVG Version: 6.00 Build 0)  -->
<svg version="1.1" id="Layer_2" xmlns="http://www.w3.org/2000/svg" xmlns:xlink="http://www.w3.org/1999/xlink" x="0px" y="0px"
	 width="22" height="24" viewBox="0 0 24 24" style="enable-background:new 0 0 24 24;" xml:space="preserve">
<style type="text/css">
	.st0{fill:#323232;}
</style>
<path class="st0" d="M23.9,20.9c-0.3-0.4-3.7-3.9-4.8-5.1c-0.6-0.6-1-0.8-1.3-0.9c0.9-1.4,1.3-3.1,1.3-4.9c0-5.3-4.3-9.6-9.6-9.6
	S0,4.8,0,10.1s4.3,9.6,9.6,9.6c2.1,0,4-0.6,5.5-1.7c0.1,0.4,0.3,0.7,0.7,1c0.5,0.4,5.2,4,5.7,4.4c0.5,0.3,1.1,0.1,1.8-0.4
	C24,22.3,24.2,21.4,23.9,20.9z M18,8.1c-0.2-1.2-1.3-5.1-6-6.5C12,1.6,17.2,2.1,18,8.1z M9.3,18.4c-4.7,0-8.4-3.7-8.4-8.4
	s3.8-8.4,8.4-8.4s8.4,3.7,8.4,8.4S14,18.4,9.3,18.4z"/>
</svg>
