<svg xmlns="http://www.w3.org/2000/svg" width="14" height="13.999" viewBox="0 0 14 13.999"><defs><style>.a{fill-rule:evenodd;}</style></defs><path class="a" d="M2.774,1.574a1.527,1.527,0,0,1,2.285.142L6.627,3.733A1.523,1.523,0,0,1,6.9,5.04L6.424,6.956a.594.594,0,0,0,.156.564l2.15,2.149a.594.594,0,0,0,.564.156l1.915-.479a1.527,1.527,0,0,1,1.307.276l2.017,1.569a1.526,1.526,0,0,1,.143,2.285l-.905.905A2.432,2.432,0,0,1,11.255,15a16.3,16.3,0,0,1-6.132-3.867A16.3,16.3,0,0,1,1.254,5a2.433,2.433,0,0,1,.614-2.518l.905-.9Z" transform="translate(-1.124 -1.127)"/></svg>