<!-- <svg xmlns="http://www.w3.org/2000/svg" width="30.245" height="25.205" viewBox="0 0 30.245 25.205"><defs><style>.a{fill:#fff;}</style></defs><path class="a" d="M24.465,22.9H12.615a3.148,3.148,0,0,1-3.026-2.289L5.583,6.631A1.886,1.886,0,0,0,3.768,5.26H.63A.63.63,0,0,1,.63,4H3.768A3.148,3.148,0,0,1,6.794,6.289l.79,2.752h20.77a1.889,1.889,0,0,1,1.81,2.432l-2.711,9.263A3.146,3.146,0,0,1,24.465,22.9ZM7.945,10.3,10.8,20.272a1.884,1.884,0,0,0,1.813,1.371h11.85A1.9,1.9,0,0,0,26.25,20.36l2.708-9.248a.631.631,0,0,0-.6-.812Z" transform="translate(0 -4)"/><path class="a" d="M11.52,25.041a2.52,2.52,0,1,1,2.52-2.52A2.523,2.523,0,0,1,11.52,25.041Zm0-3.781a1.26,1.26,0,1,0,1.26,1.26A1.262,1.262,0,0,0,11.52,21.26Z" transform="translate(2.342 0.164)"/><path class="a" d="M18.52,25.041a2.52,2.52,0,1,1,2.52-2.52A2.523,2.523,0,0,1,18.52,25.041Zm0-3.781a1.26,1.26,0,1,0,1.26,1.26A1.262,1.262,0,0,0,18.52,21.26Z" transform="translate(4.164 0.164)"/></svg> -->

<svg xmlns="http://www.w3.org/2000/svg" width="30.245" height="25.205" viewBox="0 0 30.245 25.205"><defs><style>.a{fill:#fff;}</style></defs><path class="a" d="M24.465,22.9H12.615a3.148,3.148,0,0,1-3.026-2.289L5.583,6.631A1.886,1.886,0,0,0,3.768,5.26H.63A.63.63,0,0,1,.63,4H3.768A3.148,3.148,0,0,1,6.794,6.289l.79,2.752h20.77a1.889,1.889,0,0,1,1.81,2.432l-2.711,9.263A3.146,3.146,0,0,1,24.465,22.9ZM7.945,10.3,10.8,20.272a1.884,1.884,0,0,0,1.813,1.371h11.85A1.9,1.9,0,0,0,26.25,20.36l2.708-9.248a.631.631,0,0,0-.6-.812Z" transform="translate(0 -4)"/><path class="a" d="M11.52,25.041a2.52,2.52,0,1,1,2.52-2.52A2.523,2.523,0,0,1,11.52,25.041Zm0-3.781a1.26,1.26,0,1,0,1.26,1.26A1.262,1.262,0,0,0,11.52,21.26Z" transform="translate(2.342 0.164)"/><path class="a" d="M18.52,25.041a2.52,2.52,0,1,1,2.52-2.52A2.523,2.523,0,0,1,18.52,25.041Zm0-3.781a1.26,1.26,0,1,0,1.26,1.26A1.262,1.262,0,0,0,18.52,21.26Z" transform="translate(4.164 0.164)"/></svg>