<svg xmlns="http://www.w3.org/2000/svg" width="24" height="24" viewBox="0 0 24 24"><path d="M0 0v24h24v-24h-24zm18.862 9.237c.208 4.617-3.235 9.765-9.33 9.765-1.854 0-3.579-.543-5.032-1.475 1.742.205 3.48-.278 4.86-1.359-1.437-.027-2.649-.976-3.066-2.28.515.098 1.021.069 1.482-.056-1.579-.317-2.668-1.739-2.633-3.26.442.246.949.394 1.486.411-1.461-.977-1.875-2.907-1.016-4.383 1.619 1.986 4.038 3.293 6.766 3.43-.479-2.053 1.079-4.03 3.198-4.03.944 0 1.797.398 2.396 1.037.748-.147 1.451-.42 2.085-.796-.245.767-.766 1.41-1.443 1.816.664-.08 1.297-.256 1.885-.517-.44.656-.997 1.234-1.638 1.697z"/></svg>