<!-- <svg xmlns="http://www.w3.org/2000/svg" width="20.07" height="22.417" viewBox="0 0 20.07 22.417"><defs><style>.a,.c{fill:#fff;}.b{fill:#fff;}.c{stroke:#fff;stroke-width:1.4px;}.d{stroke:none;}</style></defs><path class="a" d="M8.031,3.995A3.828,3.828,0,1,1,4.2.167,3.828,3.828,0,0,1,8.031,3.995Z" transform="translate(6.424 0.997)"/><path class="b" d="M20.619,19.327V18.145a7.464,7.464,0,0,0-7.706-7.809h-4.7A7.432,7.432,0,0,0,.549,18.145v1.182H1.825V18.145a6.216,6.216,0,0,1,6.389-6.51h4.7c4.545.068,6.373,3.275,6.373,6.51v1.182h1.277Z" transform="translate(-0.549 3.09)"/><g class="c" transform="translate(4.745)"><circle class="d" cx="5.632" cy="5.632" r="5.632"/><circle class="a" cx="5.632" cy="5.632" r="4.932"/></g></svg> -->
<svg xmlns="http://www.w3.org/2000/svg" width="17.647" height="20.855" viewBox="0 0 17.647 20.855"><defs><style>.a{fill:#fff;}</style></defs><g transform="translate(-39.385)"><g transform="translate(39.385)"><path class="a" d="M51.353,9.67a5.348,5.348,0,1,0-6.288,0,8.838,8.838,0,0,0-5.679,8.244,2.944,2.944,0,0,0,2.941,2.941H54.091a2.944,2.944,0,0,0,2.941-2.941A8.838,8.838,0,0,0,51.353,9.67ZM44.465,5.348a3.743,3.743,0,1,1,3.743,3.743A3.748,3.748,0,0,1,44.465,5.348Zm9.626,13.9H42.326a1.338,1.338,0,0,1-1.337-1.337,7.219,7.219,0,1,1,14.438,0A1.338,1.338,0,0,1,54.091,19.251Z" transform="translate(-39.385)"/></g></g></svg>